<?xml version="1.0" encoding="utf-8"?>
<!-- Generator: Adobe Illustrator 24.0.2, SVG Export Plug-In . SVG Version: 6.00 Build 0)  -->
<svg version="1.1" id="Layer_1" xmlns="http://www.w3.org/2000/svg" xmlns:xlink="http://www.w3.org/1999/xlink" x="0px" y="0px"
	 viewBox="0 0 36 36" style="enable-background:new 0 0 36 36;" xml:space="preserve">
<style type="text/css">
	.st0{fill:#212427;}
	.st1{fill-rule:evenodd;clip-rule:evenodd;fill:#6A6E73;}
	.st2{fill-rule:evenodd;clip-rule:evenodd;fill:#4F5255;}
</style>
<rect y="0" class="st0" width="36" height="36"/>
<g>
	<g transform="translate(5.04 6.88)">
		<path class="st1" d="M22.6,18.1c-1.1-1.4-2.3-2.2-3.5-2.6s-1.8-0.6-6.3-0.6s-6.1,0.7-6.1,0.7l0,0c-1.2,0.4-2.4,1.2-3.4,2.6
			C1,21,0.1,30.5,0.1,33c0,3.2,0.4,12.3,0.6,15.4c0,0-0.4,5.5,4,5.5l-0.3-6.3L4,44.1l0.2-0.9c0.9,0.4,3.6,1.2,8.6,1.2
			c5.3,0,8-0.9,8.8-1.3l0.2,1l-0.2,3.6L21.3,54c3,0.1,3.7-3,3.8-4.4s0.6-12.6,0.6-16.5C25.8,30.5,24.9,21,22.6,18.1z"/>
		<path class="st2" d="M22.5,26c-0.1-2.1-1.5-2.8-4.8-2.8l2.2,9.6c0,0,1.8-1.7,3-1.8C22.9,31,22.5,26.4,22.5,26z"/>
		<path class="st1" d="M12.7,13.2c-3.5,0-6.4-2.9-6.4-6.4s2.9-6.4,6.4-6.4s6.4,2.9,6.4,6.4S16.3,13.2,12.7,13.2z"/>
		<path class="st2" d="M9.4,6.8c0-3,2.1-5.5,4.9-6.3c-0.5-0.1-1-0.2-1.6-0.2c-3.5,0-6.4,2.9-6.4,6.4s2.9,6.4,6.4,6.4
			c0.6,0,1.1-0.1,1.6-0.2C11.5,12.3,9.4,9.8,9.4,6.8z"/>
		<path class="st2" d="M8.3,22.4c-2,0.4-2.9,1.4-3.1,3.5L4.6,44.5c0,0,1.7,0.7,3.6,0.9L8.3,22.4z"/>
	</g>
</g>
</svg>
