<?xml version="1.0" encoding="utf-8"?>
<!-- Generator: Adobe Illustrator 22.0.1, SVG Export Plug-In . SVG Version: 6.00 Build 0)  -->
<svg version="1.1" id="Layer_1" xmlns="http://www.w3.org/2000/svg" xmlns:xlink="http://www.w3.org/1999/xlink" x="0px" y="0px"
	 viewBox="0 0 74.6 67.6" style="enable-background:new 0 0 74.6 67.6;" xml:space="preserve">
<style type="text/css">
	.st0{fill:#A30000;}
	.st1{fill:#CC0000;}
	.st2{fill:#820000;}
</style>
<path class="st0" d="M21.4,30.3L9.6,34.6c0.2,1.9,0.5,3.8,0.9,5.6l11.2-4.1C21.3,34.2,21.2,32.3,21.4,30.3"/>
<path class="st0" d="M73.6,17.2c-0.8-1.7-1.8-3.4-2.9-4.9l-11.8,4.3c1.4,1.4,2.5,3,3.5,4.7L73.6,17.2z"/>
<path class="st1" d="M47.6,13.9c2.4,1.1,4.5,2.7,6.4,4.5l11.8-4.3C55-1.1,33.9-4.6,18.7,6.2C9,13.1,3.7,24.6,4.6,36.4l11.8-4.3
	C17.3,20,27.8,11,39.9,11.9C42.6,12.1,45.2,12.8,47.6,13.9"/>
<path class="st1" d="M11.2,40L0,44c1,4.1,2.8,8,5.3,11.5l11.8-4.3C14.1,48.1,12,44.2,11.2,40"/>
<path class="st1" d="M60.2,35.5c-0.2,2.6-0.9,5.2-2,7.6c-5.1,11-18.2,15.7-29.1,10.6c-2.4-1.1-4.6-2.7-6.4-4.6l-11.8,4.3
	c10.8,15.2,31.9,18.8,47.1,8c4.8-3.4,8.6-8,11.1-13.3c2.5-5.3,3.5-11.1,3-16.9L60.2,35.5z"/>
<path class="st1" d="M63.1,21.1l-11.2,4.1c2.1,3.8,3.1,8.1,2.8,12.4l11.8-4.3C66.1,29,65,24.9,63.1,21.1"/>
<path class="st2" d="M21.3,32.7c0-0.8,0-1.6,0-2.4L9.6,34.6c0,0.8,0.1,1.5,0.3,2.3L21.3,32.7z"/>
<path class="st2" d="M71.9,14.1c-0.4-0.6-0.8-1.2-1.2-1.8l-11.8,4.3c0.5,0.5,1,1.1,1.5,1.7L71.9,14.1z"/>
<path class="st0" d="M10.9,53.5c0.9,1.3,1.9,2.5,3,3.7l12.9-4.7c-1.5-0.9-2.8-2-4.1-3.3L10.9,53.5z M72,31.2l-11.8,4.3
	c-0.1,1.7-0.5,3.4-1,5.1L72,35.9C72.1,34.3,72.1,32.8,72,31.2"/>
</svg>
