<svg xmlns="http://www.w3.org/2000/svg" width="48" height="48" viewBox="0 0 48 48" fill="none">
  <g clip-path="url(#clip0_8538_323)">
    <path d="M31.9779 13.1813C31.7904 13.5469 31.8279 13.9875 32.0904 14.3063C32.7467 15.1031 33.2998 16.0031 33.7029 16.9688L38.2498 15.0187V11.25C38.2498 10.0031 39.2529 9 40.4998 9C41.7467 9 42.7498 10.0031 42.7498 11.25V13.0875L44.8592 12.1781C46.0029 11.6906 47.3248 12.2156 47.8123 13.3594C48.2998 14.5031 47.7748 15.825 46.6311 16.3125L41.3811 18.5625L34.4811 21.5156C34.4342 22.4062 34.2842 23.2594 34.0311 24.075C33.9186 24.4312 34.0217 24.825 34.2936 25.0875C37.1904 27.8344 38.9998 31.7063 38.9998 36C38.9998 40.1906 37.2842 43.9688 34.5186 46.6969C33.5904 47.6063 32.2967 48 31.0029 48H17.0061C15.7029 48 14.4092 47.6063 13.4904 46.6969C10.7154 43.9688 8.99981 40.1906 8.99981 36C8.99981 31.7063 10.8092 27.8344 13.6967 25.0969C13.9686 24.8344 14.0717 24.45 13.9592 24.0844C13.7061 23.2687 13.5561 22.4063 13.5092 21.525L6.60919 18.5719L1.35919 16.3219C0.224812 15.825 -0.309563 14.5031 0.177937 13.3594C0.665437 12.2156 1.98731 11.6906 3.13106 12.1781L5.24981 13.0875V11.25C5.24981 10.0031 6.25294 9 7.49981 9C8.74669 9 9.74981 10.0031 9.74981 11.25V15.0187L14.3061 16.9688C14.7092 16.0031 15.2529 15.1031 15.9186 14.3063C16.1811 13.9875 16.2279 13.5469 16.0311 13.1813C15.3748 11.925 14.9998 10.5094 14.9998 9C14.9998 4.03125 19.0311 0 23.9998 0C28.9686 0 32.9998 4.03125 32.9998 9C32.9998 10.5094 32.6248 11.925 31.9779 13.1813ZM20.9998 9C21.3976 9 21.7792 8.84196 22.0605 8.56066C22.3418 8.27936 22.4998 7.89782 22.4998 7.5C22.4998 7.10218 22.3418 6.72064 22.0605 6.43934C21.7792 6.15804 21.3976 6 20.9998 6C20.602 6 20.2205 6.15804 19.9392 6.43934C19.6578 6.72064 19.4998 7.10218 19.4998 7.5C19.4998 7.89782 19.6578 8.27936 19.9392 8.56066C20.2205 8.84196 20.602 9 20.9998 9ZM25.4998 21C25.4998 20.6022 25.3418 20.2206 25.0605 19.9393C24.7792 19.658 24.3976 19.5 23.9998 19.5C23.602 19.5 23.2205 19.658 22.9392 19.9393C22.6578 20.2206 22.4998 20.6022 22.4998 21C22.4998 21.3978 22.6578 21.7794 22.9392 22.0607C23.2205 22.342 23.602 22.5 23.9998 22.5C24.3976 22.5 24.7792 22.342 25.0605 22.0607C25.3418 21.7794 25.4998 21.3978 25.4998 21ZM23.9998 28.5C24.3976 28.5 24.7792 28.342 25.0605 28.0607C25.3418 27.7794 25.4998 27.3978 25.4998 27C25.4998 26.6022 25.3418 26.2206 25.0605 25.9393C24.7792 25.658 24.3976 25.5 23.9998 25.5C23.602 25.5 23.2205 25.658 22.9392 25.9393C22.6578 26.2206 22.4998 26.6022 22.4998 27C22.4998 27.3978 22.6578 27.7794 22.9392 28.0607C23.2205 28.342 23.602 28.5 23.9998 28.5ZM25.4998 33C25.4998 32.6022 25.3418 32.2206 25.0605 31.9393C24.7792 31.658 24.3976 31.5 23.9998 31.5C23.602 31.5 23.2205 31.658 22.9392 31.9393C22.6578 32.2206 22.4998 32.6022 22.4998 33C22.4998 33.3978 22.6578 33.7794 22.9392 34.0607C23.2205 34.342 23.602 34.5 23.9998 34.5C24.3976 34.5 24.7792 34.342 25.0605 34.0607C25.3418 33.7794 25.4998 33.3978 25.4998 33ZM26.9998 9C27.3976 9 27.7792 8.84196 28.0605 8.56066C28.3418 8.27936 28.4998 7.89782 28.4998 7.5C28.4998 7.10218 28.3418 6.72064 28.0605 6.43934C27.7792 6.15804 27.3976 6 26.9998 6C26.602 6 26.2205 6.15804 25.9392 6.43934C25.6578 6.72064 25.4998 7.10218 25.4998 7.5C25.4998 7.89782 25.6578 8.27936 25.9392 8.56066C26.2205 8.84196 26.602 9 26.9998 9ZM22.4998 11.25V11.55C22.4998 11.85 22.5748 12.1406 22.7154 12.3937L23.5592 13.9781C23.6436 14.1375 23.8123 14.2406 23.9998 14.2406C24.1873 14.2406 24.3561 14.1375 24.4404 13.9781L25.2842 12.3937C25.4248 12.1312 25.4998 11.8406 25.4998 11.55V11.25C25.4998 10.425 24.8248 9.75 23.9998 9.75C23.1748 9.75 22.4998 10.425 22.4998 11.25Z" fill="#AFDC8F"/>
  </g>
  <defs>
    <clipPath id="clip0_8538_323">
      <rect width="48" height="48" fill="white"/>
    </clipPath>
  </defs>
</svg>