<?xml version="1.0" encoding="UTF-8"?>
<svg width="348px" height="141px" viewBox="0 0 348 141" version="1.1" xmlns="http://www.w3.org/2000/svg" xmlns:xlink="http://www.w3.org/1999/xlink">
    <!-- Generator: Sketch 52.6 (67491) - http://www.bohemiancoding.com/sketch -->
    <title>Artboard</title>
    <desc>Created with Sketch.</desc>
    <g id="Artboard" stroke="none" stroke-width="1" fill="none" fill-rule="evenodd">
        <rect fill="#FFFFFF" x="0" y="0" width="348" height="141"></rect>
        <g id="Group-16-Copy" transform="translate(20.000000, 5.000000)">
            <g id="Group-12">
                <circle id="yello-copy-2" stroke="#005C66" stroke-width="8" cx="63.4532374" cy="62.5467626" r="52.5755396"></circle>
                <path d="M62.9643588,115.464359 C91.9593081,115.464359 115.464359,91.9593081 115.464359,62.9643588 C115.464359,33.9694094 91.9593081,10.4643588 62.9643588,10.4643588 C33.9694094,10.4643588 10.4643588,33.9694094 10.4643588,62.9643588 C10.4643588,91.9593081 33.9694094,115.464359 62.9643588,115.464359 Z" id="blue-copy-2" stroke="#00B9E4" stroke-width="8" stroke-dasharray="314,314" transform="translate(62.964359, 62.964359) rotate(-13.000000) translate(-62.964359, -62.964359) "></path>
                <path d="M63.4532374,115.122302 C92.4899061,115.122302 116.028777,91.5834313 116.028777,62.5467626 C116.028777,33.5100939 92.4899061,9.97122302 63.4532374,9.97122302 C34.4165687,9.97122302 10.8776978,33.5100939 10.8776978,62.5467626 C10.8776978,91.5834313 34.4165687,115.122302 63.4532374,115.122302 Z" id="green-copy-2" stroke="#6EC664" stroke-width="8" stroke-dasharray="188,470"></path>
                <path d="M39.4532374,11.4532374 L43.5,19.5" id="Line-Copy-2" stroke="#FFFFFF" stroke-linecap="square"></path>
                <path d="M59.5,111.453237 L59.5,118.294964" id="Line-2-Copy-2" stroke="#FFFFFF" stroke-linecap="square"></path>
                <path d="M62.9643588,111.453237 L62.9643588,118.294964" id="Line-2-Copy-2" stroke="#FFFFFF" stroke-linecap="square"></path>
            </g>
            <text id="52-copy" font-family="Overpass-Regular, Overpass" font-size="18" font-weight="normal" letter-spacing="0.01142856" fill="#292E34">
                <tspan x="51.9365714" y="60">52</tspan>
            </text>
            <text id="Something" font-family="Overpass-Regular, Overpass" font-size="12" font-weight="normal" letter-spacing="0.007619048" fill="#8B8D8F">
                <tspan x="35.3777143" y="80">Something</tspan>
            </text>
            <g id="Group-11" transform="translate(197.000000, 29.000000)">
                <rect id="Rectangle-7" fill="#6EC664" x="0" y="3" width="12" height="12"></rect>
                <rect id="Rectangle-7-Copy" fill="#00B9E4" x="0" y="30" width="12" height="12"></rect>
                <rect id="Rectangle-7-Copy-2" fill="#005C66" x="0" y="57" width="12" height="12"></rect>
                <text id="Things" font-family="Overpass-Regular, Overpass" font-size="14" font-weight="normal" letter-spacing="0.008888888" fill="#292E34">
                    <tspan x="20" y="14">Things</tspan>
                </text>
                <text id="Stuff" font-family="Overpass-Regular, Overpass" font-size="14" font-weight="normal" letter-spacing="0.008888888" fill="#292E34">
                    <tspan x="20" y="41">Stuff</tspan>
                </text>
                <text id="Whathaveyous" font-family="Overpass-Regular, Overpass" font-size="14" font-weight="normal" letter-spacing="0.008888888" fill="#292E34">
                    <tspan x="20" y="68">Whathaveyous</tspan>
                </text>
            </g>
        </g>
    </g>
</svg>