<?xml version="1.0" standalone="no"?>
<!DOCTYPE svg PUBLIC "-//W3C//DTD SVG 1.1//EN" "http://www.w3.org/Graphics/SVG/1.1/DTD/svg11.dtd" >
<svg xmlns="http://www.w3.org/2000/svg">
<defs>
  <font id="pficon" horiz-adv-x="1306">
    <font-face font-family="pficon"
      units-per-em="1024" ascent="1024"
      descent="0" />
    <missing-glyph horiz-adv-x="0" />
    <glyph glyph-name="add-circle-o"
      unicode="&#xE001;"
      horiz-adv-x="1024" d="M512.1 1048C229.7 1048 0 818.2 0 536C0 253.7000000000001 229.8 24 512.1 24C794.4 24 1024 253.7000000000001 1024 536C1024 818.3 794.4 1048 512.1 1048zM512 152C300.2 152 128 324.1 128 536C128 747.7 300.2 920 512 920C723.7 920 896 747.8 896 536C896 324.2000000000001 723.7 152 512 152zM576 745C576 753.3 569.3 760 561 760L463 760C454.7 760 448 753.3 448 745L448 600L303 600C294.7 600 288 593.3 288 585L288 487C288 478.7 294.7 472 303 472L448 472L448 327.1C448 318.8 454.7 312 463 312L561 312C569.3 312 576 318.8 576 327.1L576 472L721 472C729.3 472 736 478.6 736 486.9L736 584.9C736 593.2 729.3 600 721 600L576 600L576 745z" />
    <glyph glyph-name="applications"
      unicode="&#xE002;"
      horiz-adv-x="1024" d="M951.9 792C912.6 792 832 792 832 792L832 977C832 1017.1 800.7 1048 760.5 1048L71.1 1048C30.9 1047.9 0 1017.1 0 977L0 415.1C0 374.9 30.9 344 71.1 344L192 344L192 159.8C192 119.5 223.4 88 263.7 88L952 88C992.3 88 1024 119.5 1024 159.8L1024 721C1023.9 761.1 992.1 792 951.9 792zM832 728L896 728L896 664L832 664L832 728zM640 984L704 984L704 920L640 920L640 984zM64 408L64 856L768 856L768 408L64 408zM960 152L256 152L256 344L760.5 344C800.8 344 832 375.5 832 415.7000000000001L832 536L960 536L960 152z" />
    <glyph glyph-name="arrow"
      unicode="&#xE003;"
      horiz-adv-x="1097" d="M651.8499999999999 828.6L717.65 828.6L717.65 1048L1083.45 718.8L717.75 389.7000000000001L717.75 609.1C710.3499999999999 609.1 695.75 609.1 688.4499999999999 609.1C461.65 594.5 366.55 397 425.15 272.7000000000001C366.65 316.6 293.45 338.5 278.85 477.5C256.85 696.9 432.45 828.6 651.8499999999999 828.6zM845.55 280L845.55 152L141.55 152L141.55 791.6L237.55 791.6L365.55 920L50.15 920C28.15 920 13.55 905.3 13.55 883.4L13.55 60.6C13.55 38.6 28.15 24 50.15 24L944.25 24C958.85 24 973.55 38.6 973.55 60.6L973.55 408L845.55 280z" />
    <glyph glyph-name="asleep"
      unicode="&#xE004;"
      horiz-adv-x="1024" d="M744.1 428.8C723.2 383.7000000000001 691.8 347.7000000000001 649.7 320.7000000000001C607.6 293.7000000000001 561.7 280.2000000000001 512 280.2000000000001C477.4 280.2000000000001 444.2 287 412.8 300.6C381.4 314.2000000000001 354 332.3 331 355.3C308 378.3 289.9 405.4 276.3 436.9C262.7 468.4 256 501.5 256 536.1C256 570.1 262.4 602.6 275.2 633.6C288 664.6 305.3 691.4 327.2 714.1C349.1 736.7 375.3 755 405.7 768.9C436.1 782.8 468.4 790.4 502.3 791.8C512 792.2 523.3 785.7 527.1 776.6C531.1 767.5 531.7 757.2 524.3 750.3C505.1 733 488.3 712.8 478.2 689.8C468.1 666.8 460.8 644.8 460.8 619.3C460.8 586.4 466.7 558.4 482.9 530.6C499.1 502.9 521.1 480.8 548.9 464.6C576.6 448.4 607 440.3 639.9 440.3C666.1 440.3 691.4 445.9 715.8 457.3C724.9 461.3 732.9 459.9 739.8 453C742.8 450 744.8 446.1 745.6 441.7000000000001C746.4 437.2000000000001 745.9 433 744.1 428.8L744.1 428.8L744.1 428.8zM512.1 24C229.8 24 0 253.7000000000001 0 536C0 818.2 229.7 1048 512.1 1048C794.4 1048 1024 818.3 1024 536C1024 253.7000000000001 794.4 24 512.1 24L512.1 24zM512 920C300.2 920 128 747.7 128 536C128 324.1 300.2 152 512 152C723.7 152 896 324.2000000000001 896 536C896 747.8 723.7 920 512 920L512 920z" />
    <glyph glyph-name="attention-bell"
      unicode="&#xE005;"
      horiz-adv-x="1024" d="M485 216H539C559.4 216 576 232.6 576 253V563C576 583.4 559.4 600 539 600H485C464.6 600 448 583.4 448 563V253C448 232.6 464.6 216 485 216zM512 664C547.3 664 576 692.7 576 728S547.3 792 512 792S448 763.3 448 728S476.7 664 512 664zM512 24C494.7 24 479.7 30.3 467 43S448 70.7000000000001 448 88V130L445.8 130.4C372.1 145.4 311.5 181.1999999999999 264 238C216 295.3 192 362.7000000000001 192 440C192 524 180 592.7 156 646C141.3 676.7 118.7 708 88 740C85.3 744 83.3 746.7 82 748C70 761.3 64 776.3 64 793S70 824.3 82 837S109.3 856 128 856H896H896.7C915.1 855.8 930.2 849.5 942 837C954 824.3 960 809.7 960 793S954 761.3 942 748L936 740L934.9 738.9C904.8 707.3 882.5 676.3 868 646C844 592.7 832 524 832 440C832 362.7000000000001 808 295.3 760 238S650.7 144.7000000000001 576 130V88V87.3C575.8 70.3 569.5 55.5 557 43C544.3 30.3 529.3 24 512 24zM384 920V921.1C384.3 956.6 396.9 986.6 422 1011C447.3 1035.7 477.3 1048 512 1048S576.7 1035.7 602 1011S640 956 640 920z" />
    <glyph glyph-name="automation"
      unicode="&#xE006;"
      horiz-adv-x="1024" d="M746.6000000000001 597C731.4000000000001 603.2 718.4000000000001 600.6 707.8000000000002 589.2L635.2 517.2L619.2 501.2L367.6000000000001 756.1C329.0000000000001 788.1 304.6000000000001 793 256.0000000000001 793C114.6000000000001 793 1e-13 677.5 1e-13 536.2S114.6000000000001 281 256.0000000000001 281C304.0000000000001 281 344.2000000000001 298.1 380.0000000000001 326.1L379.4000000000001 326.5L384.8 330.1C408.2 346.7000000000001 413.6 379.3000000000001 397 402.7000000000001S347.8 431.5 324.4000000000001 414.9000000000001C301.2000000000001 398.3000000000001 274.2000000000001 388.7000000000001 245.8000000000001 386.5000000000001C163.2000000000001 387.6000000000002 104 453.2000000000002 104 536.2C104 618.6000000000001 165.8 685.7 247.6 688.1000000000001H248.2H252.2C253.0000000000001 687.9000000000001 253.8 688.1000000000001 254.4 687.9000000000001H254.8C269.4000000000001 688.1000000000001 292.6 682.7000000000002 312.6 666.7000000000002L546.5999999999999 428.4000000000001L458.8 340.6000000000002C447.4 329.4000000000001 444.8 316.8000000000002 450.9999999999999 302.2000000000002C457.1999999999999 287.4000000000002 468.1999999999999 281.0000000000001 483.8 281.0000000000001H732.5999999999999C742.2 281.0000000000001 750.5999999999999 283.6000000000002 757.5999999999999 290.6000000000002S768.2 306.0000000000001 768.2 315.6000000000002V564.2000000000002C768.2 579.8000000000002 761 590.8000000000002 746.5999999999999 597.0000000000002zM768 793V791.6C765.2 792.2 762.2 792.4 759.2 792.4C704.8000000000002 793.2 652.6000000000001 777.4 607.8000000000002 746.6C584.2 730.2 578.2 698 594.6000000000001 674.2C604.6000000000001 659.6 621 651.8000000000001 637.4000000000001 651.8000000000001C647.6000000000001 651.8000000000001 657.8 654.8000000000001 666.8 661C693.5999999999999 679.4000000000001 725 689 757.5999999999999 688.4000000000001C761.2 688.4000000000001 764.5999999999999 688.6 768 689.2V688.8000000000001C851.8 688.8000000000001 920 620.6000000000001 920 536.9000000000001C920 475.9000000000001 883.8 423.1000000000002 832 399.0000000000001V288.8000000000001C942.3999999999997 317.2000000000001 1024 417.4000000000001 1024 536.7C1024 678.4000000000001 909.3999999999997 793 768 793z" />
    <glyph glyph-name="blueprint"
      unicode="&#xE007;"
      horiz-adv-x="1024" d="M960 856L256 856C220.7 856 192 827.3 192 792L192 88C192 52.7 220.7 24 256 24L960 24C995.3 24 1024 52.7 1024 88L1024 792C1024 827.3 995.3 856 960 856zM960 103C960 94.7000000000001 953.3 88 945 88L271 88C262.7 88 256 94.7000000000001 256 103L256 777C256 785.3 262.7 792 271 792L945 792C953.3 792 960 785.3 960 777L960 103zM256 1047.3L384 1047.3L384 983.3L256 983.3L256 1047.3zM576 983.3L448 983.3L448 1047.3L576 1047.3L576 983.3zM832 983.3L832 920L768 920L768 968.3C768 976.6 761.3 983.3 753 983.3L640 983.3L640 1047.3L768 1047.3C803.3 1047.3 832 1018.6 832 983.3zM0 472L0 600L64 600L64 472L0 472zM64 792L64 664L0 664L0 792L64 792zM64 1048L191.3 1048L191.3 984L79 984C70.7 984 64 977.3 64 969L64 856L0 856L0 984C0 1019.3 28.7 1048 64 1048zM0 280.7000000000001L0 408L64 408L64 295.7000000000001C64 287.4 70.7 280.7000000000001 79 280.7000000000001L128 279.9L128 215.9L64 216.7000000000001C28.7 216.7000000000001 0 245.4 0 280.7000000000001z" />
    <glyph glyph-name="build"
      unicode="&#xE008;"
      horiz-adv-x="1024" d="M799.7428595377415 711.5L799.7428595377415 750.5C799.7428595377415 772.3 778.5635425377416 787.7 757.8837375377416 780.9L693.9461765377416 760C680.7590545377416 755.7 671.8677375377416 743.4 671.8677375377416 729.6L671.8677375377416 688.6C671.8677375377416 666.5 693.7463715377415 651 714.6259815377416 658.5L778.5635425377416 681.3C791.2511515377415 685.9 799.7428595377415 697.9 799.7428595377415 711.5zM995.0521275377416 376L916.1292005377416 404.2000000000001C912.3329075377416 405.6 908.0371025377416 405.4 904.3407125377416 403.8L861.7822735377416 385.2000000000001C848.4952495377415 379.4 849.1945665377416 360.4 862.7812985377416 355.5L911.4337855377416 338L510.8250055377416 131.8L111.7147615377416 338.1L152.8745665377416 352.9C166.2614935377416 357.7000000000001 167.1606155377416 376.4 154.2732005377416 382.4L113.3132005377416 401.6C109.5169075377416 403.4 105.1212005377416 403.6 101.1251025377416 402.2000000000001L28.3961274377416 376.1C11.8123225377416 370.1 0.7231518077416 354.4 0.6232493677416 336.7000000000001L0.5233469277416 317.9C0.5233469277416 302.6 8.9151518077416 288.4 22.3020786377416 281.1L471.1637375377416 34.5C496.5389565377416 20.5 527.3089075377416 20.5 552.7840295377416 34.5L1001.7455925377416 281.1C1015.1325225377416 288.4 1023.5243225377416 302.6 1023.5243225377416 317.9L1023.5243225377416 335.5C1023.5243225377416 353.7000000000001 1012.1354425377416 369.9 995.0521275377416 376zM990.7563225377417 605L856.7871515377416 653.3C853.2905665377416 654.6 849.4942735377416 654.6 845.9976885377416 653.3L798.5440295377416 636.4C784.3578835377416 631.4 784.3578835377416 611.3 798.5440295377416 606.3L913.6316395377416 565L512.0238345377415 401.2000000000001L109.9165175377416 565.2L224.3048105377416 606.2C238.3910545377416 611.3 238.3910545377416 631.3 224.3048105377416 636.3L177.0509565377416 653.2C173.5543715377416 654.4 169.7580785377416 654.4 166.2614935377416 653.2L33.5910542377416 605.6C13.4107615377416 598.4 0.2236396107416 579.2 0.5233469277416 557.9C0.5233469277416 554.3 0.5233469277416 548.5 0.5233469277416 544.9C-0.3757750232584 524.3 11.5126152377416 505.2 30.3941762377416 497L476.8581765377415 300.7000000000001C498.5370055377415 291.2000000000001 523.2129075377416 291.1 544.9916395377415 300.6L803.0396395377416 413.5L993.8532985377416 497.1C1012.5350525377416 505.3 1024.4234425377417 524.2 1023.4244225377416 544.7C1023.4244225377416 548.2 1023.4244225377416 554 1023.4244225377416 557.6C1023.9239325377416 578.8 1010.7368125377416 597.9 990.7563225377417 605zM352.1799325377416 688.1L352.1799325377416 729.2C352.1799325377416 743 343.2886155377416 755.3 330.1014935377416 759.6L266.1639325377416 780.5C245.4841275377416 787.3 224.3048105377416 771.8 224.3048105377416 750.1L224.3048105377416 711C224.3048105377416 697.5 232.7965175377416 685.4 245.4841275377416 680.9L309.4216885377416 657.9C330.2013955377416 650.4 352.1799325377416 665.9 352.1799325377416 688.1zM534.1022735377416 701.6L510.9249075377415 694.6L490.0452985377416 699.9C469.3654935377415 706.7 448.1861765377416 691.2 448.1861765377416 669.5L448.1861765377416 630.4C448.1861765377416 616.9 456.6778835377416 604.8 469.3654935377415 600.3L500.0355425377415 589.8C508.1276395377416 586.9 516.3196395377415 587.5 523.4127125377415 590.5L554.7820785377415 602.1C567.4696885377416 606.6 575.9613955377416 618.7 575.9613955377416 632.2L575.9613955377416 671.2C575.9613955377416 693 554.7820785377415 708.4 534.1022735377416 701.6zM995.8513465377416 876.5L540.9955425377416 1042.8C522.2138835377416 1049.7 501.5340785377416 1049.7 482.7524205377416 1042.8L28.0964201377416 876.6C11.5126152377416 870.6 0.4234444887416 854.7 0.5226774307416 837L0.6232493677416 799C0.7231518077416 780.9 12.1120298377416 764.8 29.0954445377416 758.7L85.6402249377416 738.5C106.4199325377416 731 128.3984685377416 746.5 128.3984685377416 768.6L128.3984685377416 813.4L512.1237375377416 953L895.6492005377415 812.8L895.6492005377415 752.6C895.6492005377415 738.3 909.8353465377415 728.3 923.3221765377416 733.1L994.9522245377416 758.7C1012.0355425377415 764.8 1023.4244225377416 781 1023.4244225377416 799.2L1023.4244225377416 837.1C1023.4244225377416 854.7 1012.4351525377416 870.4 995.8513465377416 876.5z" />
    <glyph glyph-name="builder-image"
      unicode="&#xE009;"
      horiz-adv-x="1024" d="M1024 807.434927C1023.4 843.000195 1001 874.469463 967.5 886.757463C825.5 938.506927 683.5 990.1564878 541.5 1041.90595122C522.5 1048.799219512 501.6 1048.799219512 482.5 1041.90595122L56.5 886.657561C23.1 874.369561 0.7 842.900293 0 807.434927L0 807.434927L0 353.478244L0.1 353.478244C1.2 322.5084880000001 18.9 282.84722 44.6 268.061659L470.6 34.58966C496.4 20.50341 527.6 20.50341 553.4 34.58966C639.6 81.843512 841.7 192.535415 979.4 268.061659C1006.1 282.647415 1022.9 322.408585 1024 353.478244L1024 353.478244L1024 807.434927L1024 807.434927zM703.2 637.60078L911.3 562.973659L573.6 425.907512L573.6 591.046244L703.2 637.60078zM928 467.666732L928 384.248195L823.4 421.71161L928 467.666732zM798 671.5676100000001L928 718.1221459999999L928 624.9131709999999L798 671.5676100000001zM738.3 384.3480980000001L897 327.50361L573.6 150.076878L573.6 311.918829L738.3 384.3480980000001zM445.5 592.344976L445.5 427.705756L111.9 562.873756L319.9 637.5008780000001L445.5 592.344976zM199.9 421.71161L96 384.3480980000001L96 467.16722L199.9 421.71161zM96 717.722537L225.2 671.367805L96 625.0130730000001L96 717.722537zM126.8 327.4037070000001L285.1 384.148293L445.6 313.7170730000001L445.6 152.674341L126.8 327.4037070000001zM903.7 809.432976L511.5 668.670439L119.9 809.133268L512.2 952.0936585L903.7 809.432976z" />
    <glyph glyph-name="bundle"
      unicode="&#xE00A;"
      horiz-adv-x="1024" d="M890.4528803984723 541.5L1016.3528803984722 623.8L1010.1528803984723 395.1C1009.8528803984722 383.3 1004.7528803984724 372.2000000000001 995.9528803984724 364.3L885.5528803984723 264.3L890.4528803984723 541.5zM10.7528803984723 549.6L19.9528803984723 285.1C20.5528803984723 266.6 32.9528803984723 250.6 50.6528803984723 245.3L253.0528803984724 184.6L247.7528803984724 493.5L10.7528803984723 549.6zM508.8528803984723 970.8C559.1528803984723 987.3 609.3528803984723 1003.8 659.6528803984723 1020.3L438.2528803984723 1046.7C432.5528803984724 1047.4 426.6528803984724 1046.9 421.1528803984724 1045.3L276.0528803984724 1003.1L508.8528803984723 970.8zM272.2528803984723 893.1C326.6528803984724 911 381.0528803984724 928.8 435.4528803984723 946.7L199.3528803984724 980.8L31.1528803984723 931.9C12.1528803984723 926.3 -0.6471196015277 908.7 0.0528803984723 889L9.1528803984723 626.8L246.1528803984724 574.4L242.5528803984724 851.6C242.3528803984724 870.4 254.3528803984724 887.2 272.2528803984723 893.1zM317.3528803984724 477.1L321.2528803984723 164.2000000000001L638.7528803984724 68.9C653.2528803984724 64.6 668.8528803984723 68.1 680.0528803984723 78.2000000000001L823.8528803984723 208.4L828.7528803984724 501.2L681.3528803984723 404.8C671.4528803984723 398.3 659.3528803984723 396.2000000000001 647.8528803984723 398.9L317.3528803984724 477.1zM986.1528803984723 979.4L722.3528803984723 1011.6L577.0528803984723 961.3L860.1528803984723 922.1C881.7528803984724 919.1 897.7528803984724 900.4 897.3528803984723 878.6L892.7528803984724 619L1017.8528803984722 695.6L1023.9528803984724 935.5C1024.6528803984722 957.7 1008.2528803984724 976.7 986.1528803984723 979.4zM314.1503763984723 840.5L317.5528803984724 558.7L650.8528803984723 485C661.7528803984724 482.6 673.1528803984723 484.5 682.6528803984723 490.3L831.0528803984723 581.2L835.5528803984723 850.9C835.9528803984723 872.6 820.0528803984723 891.2 798.6528803984723 894.3L504.7528803984723 936.7L343.4528803984723 881.8C325.7528803984723 875.8 313.9528803984723 859.1 314.1503763984723 840.5z" />
    <glyph glyph-name="catalog"
      unicode="&#xE00B;"
      horiz-adv-x="1097" d="M512.2 843.9L512.2 844.5C512.4000000000001 844.3 512.4000000000001 844.1 512.2 843.9zM516.5000000000001 154.6L516.5000000000001 88C516.5000000000001 88 260.5000000000001 275.3 138.9000000000001 90.1C138.9000000000001 90.1 39.3000000000001 70.9 36.5000000000001 152L36.5000000000001 917.2C36.5000000000001 917.2 32.2000000000001 982.9 100.5000000000001 985L100.5000000000001 156.7000000000001C100.5000000000001 156.8 230.5000000000001 351.3 516.5000000000001 154.6zM164.5000000000001 285.4L164.5000000000001 1048C247.9000000000001 1032.4 405.1000000000002 978.1 516.5000000000001 906.4L516.5000000000001 224.8C356.5000000000001 328.3 225.8000000000002 302.2000000000001 164.5000000000001 285.4zM584.8000000000001 844.6C584.6000000000001 844.3 584.6000000000001 844.3 584.8000000000001 844.6L584.8000000000001 844.6zM996.5000000000002 985C1064.8 982.9 1060.5 917.2 1060.5 917.2L1060.5 152C1057.7 70.9 958.1000000000003 90.1 958.1000000000003 90.1C835.5000000000001 275.3 580.5000000000001 88 580.5000000000001 88L580.5000000000001 154.6C867.5000000000001 351.3 996.5000000000002 156.7000000000001 996.5000000000002 156.7000000000001L996.5000000000002 985zM580.5000000000001 906.7C691.8000000000001 978.1 849.1000000000001 1032.5 932.5000000000002 1048L932.5000000000002 285.4C871.3000000000001 302.3 742.5000000000001 328.3 580.5000000000001 224.8L580.5000000000001 906.7z" />
    <glyph glyph-name="chat"
      unicode="&#xE00C;"
      horiz-adv-x="1024" d="M896 728L896 988.1C894.4 1035.1 879.7 1048 845.2 1048L64 1048C7.7 1048 0 1042.7 0 988.1L0 477.4C0 406.3 0 409.5 64.7 408L128 408L128 251.3C128 227.5 141.6 216 158.8 216C298.9 216 400.2 217.2000000000001 480 408L511.9 408L511.9 344C512.2 279.3 512 279.8 573.8 280L768 280C798.3 178.7000000000001 859.6 152 927.9 152C927.9 152 960 152.6 960 163.1L960 280C1019.3 279.9 1023.5 279.3 1024 343.9L1024 660.6C1024 719.1 1023.9 727.5 964.2 728L896 728zM383.8 536.4C380 351 256 344 256 344L256 536.1L128 536.1L128 920L768 920L768 536.1L383.8 536.4L383.8 536.4z" />
    <glyph glyph-name="close"
      unicode="&#xE00D;"
      horiz-adv-x="731" d="M725.7 279.6L469.3000000000001 536L725.7 792.4C729.4000000000001 796.0999999999999 731.3000000000001 800.4 731.2 805.2C731.2 810 729.2 814.3 725.5 818.1L647.7 896C643.9000000000001 899.8 639.6 901.7 634.8000000000001 901.7C630.0000000000001 901.7 625.7 899.9 622.0000000000001 896.2L622.0000000000001 896.2L365.5000000000001 639.7L109.1 896.2C105.4 899.9 101.1 901.8 96.3 901.7L96.3 901.7C91.5 901.6 87.2000000000001 899.7 83.4 896L5.5 818.2C1.7 814.4 -0.2 810.1 -0.2 805.3C-0.2 800.5 1.6 796.2 5.3 792.5L261.8000000000001 536L5.3 279.6C1.6 275.9 -0.3 271.6 -0.2 267.6C-0.1 262.8000000000001 1.8 258.5 5.5 254.7000000000001L83.3 176C87.1 172.2000000000001 91.4 170.3 96.2000000000001 170.3C101 170.3 105.3 172.0999999999999 109 175.8L365.4000000000001 432.2L621.8000000000001 175.8C625.5000000000001 172.0999999999999 629.8000000000001 170.1999999999999 634.6 170.3C639.4 170.3 643.7 172.3 647.5 176L725.3 253.8C729.0999999999999 257.5999999999999 731 261.9 731 266.7C731.3000000000001 271.6 729.4000000000001 275.9 725.7 279.6z" />
    <glyph glyph-name="cloud-security"
      unicode="&#xE00E;"
      horiz-adv-x="1097" d="M1015.7 619.9C985.8 657.8 947.9 682.3 902 693.2C916.5 716.1 923.8 741.2 923.8 768.5C923.8 807.2 910.6 840.1 883.7 867.3C857.5 894.6 825.2 908.3 787.5 908.3C753.4 908.3 723.9 896.9 699 874.4C678.1 926.3 644.6 967.9 598.9 1000C553.2 1032.1 502.3 1048.000273723843 446.2 1048.000273723843C370.9 1048.1 306.5 1020.8 253.1 966.3C199.7 911.8 173.1 845.8 173.1 768.8C173.1 763.4 173.5 755.5 174.2 745.3C133 725.7 99.7 696 74.4 656C49.1 616.2 36.5 572.3 36.5 524.4C36.5 457.2 60 399.6 106.7 351.8C153.4 304 209.7 280 275.4 280L855.7 280C912.2 280 960.4 300.6 1000.6 341.3C1040.7 382.3 1060.5 431.6 1060.5 489.5C1060.5 538.5 1045.6 582 1015.7 619.9L1015.7 619.9zM740.4 441C740.4 432.1 737.2 424.6 731 418.2000000000001C724.8 412 717.2 408 708.3 408L388.6 408C379.7 408 372.2 412 365.9 418.2000000000001C359.7 424.4 356.5 432 356.5 441L356.5 633.5C356.5 642.4 359.7 649.9 365.9 656.3C372.1 662.5 379.7 664.6 388.6 664.6L420.3 664.6L420.3 727.6C420.3 762.9 432.9 792.8 458.1 818.1C483.3 843.4 513.4 856 548.5 856C583.6 856 613.8 843.4 639 818.1C664.2 792.8 676.6 762.8 676.6 727.6L676.6 664.6L708.5 664.6C717.4 664.6 724.9 662.4 731.2 656.2C737.5 650 740.6 642.4 740.6 633.4L740.4 441L740.4 441zM548.5 790.3C530.8 790.3 515.7 784 503.2 771.5C490.8 759.1 484.5 743.9 484.5 726.3L484.5 664L612.5 664L612.5 726.3C612.5 744 606.2 759.1 593.7 771.6C581.4 784.1 566.2 790.3 548.5 790.3L548.5 790.3z" />
    <glyph glyph-name="cloud-tenant"
      unicode="&#xE00F;"
      horiz-adv-x="1024" d="M979.2 619.9C949.3 657.8 911.4 682.3 865.5 693.2C880 716.1 887.3 741.2 887.3 768.5C887.3 807.2 874.1 840.1 847.2 867.3C821 894.6 788.7 908.3 751 908.3C717.3 908.3 688.1 897.1 663.3 875.1L607.2 458C602.9 425.8 565.3 410.5 539.7 430.5L137.5 745.1C96.4 725.5 63.2 695.8 37.9 655.9C12.6 616.2 0 572.3 0 524.4C0 457.2 23.5 399.6 70.2 351.8C116.9 304 173.2 280 238.9 280L819.2 280C875.7 280 923.9 300.6 964.1 341.3C1004.2 382.3 1024 431.6 1024 489.5C1024 538.5 1009.1 582 979.2 619.9zM562.4 1000C516.7 1032.1 465.8 1048.000273723843 409.7 1048.000273723843C334.4 1048.1 270 1020.8 216.6 966.3C176.3 925.1 151.2 877.4 141.4 823.3L520 527.3C532.8 517.3 551.6 525 553.7 541L609.9 958.4C596 973.7 580.1 987.6 562.4 1000z" />
    <glyph glyph-name="cluster"
      unicode="&#xE010;"
      horiz-adv-x="1024" d="M987.4 280L36.6 280C26.6 280 18.2 276.4 10.9 269.1C3.6 261.8 0 253.2000000000001 0 243.4L0 124.7000000000001C0 114.7000000000001 3.6 106.3 10.7 98.9C18 91.6 26.4 88 36.4 88L987.4 88C997.4 88 1005.8 91.6 1013.1 98.9C1020.4 106.2000000000001 1024 114.6 1024 124.6L1024 243.4C1024 253.4 1020.4 261.8 1013.1 269.1C1005.8 276.4 997.2 280 987.4 280zM128 152L64 152L64 216L128 216L128 152zM256 152L192 152L192 216L256 216L256 152zM384 152L320 152L320 216L384 216L384 152zM512 152L448 152L448 216L512 216L512 152zM960 152L896 152L896 216L960 216L960 152zM0 866.802307C0 876.000821 1.19988282 877.300611 9.59906259 885.499287C9.59906259 885.499287 151.085246 1025.6766432 161.58422 1037.9746566C172.083195 1050.37265392 185.481887 1047.773073847 185.481887 1047.773073847L840.617908 1047.773073847C840.617908 1047.773073847 852.416756 1049.17284773 863.115711 1037.5747212C873.614686 1025.9765947 1013.50103 885.599271 1013.50103 885.599271C1021.90021 877.2006269999999 1024 875.900837 1024 866.802307C1024 857.203857 1012.30114 856.004051 1000.70228 856.004051L22.097842 856.004051C10.7989454 855.9040669999999 0 857.603793 0 866.802307zM987.4 792L36.6 792C26.6 792 18.2 788.4 10.9 781.1C3.6 773.8 0 765.2 0 755.4L0 636.7C0 626.7 3.6 618.3 10.7 610.9C18 603.6 26.4 600 36.4 600L987.4 600C997.4 600 1005.8 603.6 1013.1 610.9C1020.4 618.2 1024 626.6 1024 636.6L1024 755.4C1024 765.4 1020.4 773.8 1013.1 781.1C1005.8 788.4 997.2 792 987.4 792zM128 664L64 664L64 728L128 728L128 664zM256 664L192 664L192 728L256 728L256 664zM384 664L320 664L320 728L384 728L384 664zM512 664L448 664L448 728L512 728L512 664zM960 664L896 664L896 728L960 728L960 664zM987.4 536L36.6 536C26.6 536 18.2 532.4 10.9 525.1C3.6 517.8 0 509.2 0 499.4L0 380.7000000000001C0 370.7000000000001 3.6 362.3 10.7 354.9C18 347.6 26.4 344 36.4 344L987.4 344C997.4 344 1005.8 347.6 1013.1 354.9C1020.4 362.2000000000001 1024 370.6 1024 380.6L1024 499.4C1024 509.4 1020.4 517.8 1013.1 525.1C1005.8 532.4 997.2 536 987.4 536zM128 408L64 408L64 472L128 472L128 408zM256 408L192 408L192 472L256 472L256 408zM384 408L320 408L320 472L384 472L384 408zM512 408L448 408L448 472L512 472L512 408zM960 408L896 408L896 472L960 472L960 408z" />
    <glyph glyph-name="connected"
      unicode="&#xE011;"
      horiz-adv-x="1024" d="M301.1000000000001 307.5C286.8000000000001 307.5 272.6000000000001 314.3 263.7000000000001 326.9C228.1000000000002 377.3 209.4000000000001 436.7 209.4000000000001 498.5S228.2000000000001 619.6 263.4000000000001 670.1C277.7000000000001 690.7 306.3000000000001 695.7 327.1000000000001 681.3C347.7000000000001 666.7 352.7000000000001 638.4000000000001 338.3000000000001 617.6C313.6000000000001 582.7 300.9000000000001 541.4000000000001 300.9000000000001 498.5S313.9000000000001 414.3 338.5000000000001 379.4C353.1000000000002 358.8 348.1000000000002 330.4 327.3000000000002 315.7C319.4000000000002 310.3 310.0000000000001 307.4999999999999 301.1000000000002 307.4999999999999zM721.7000000000002 307.3C712.6000000000001 307.3 703.5000000000001 310 695.4000000000002 315.7C674.8000000000002 330.3 669.8000000000002 358.8 684.5000000000002 379.4C709.2000000000003 414.5 722.4000000000002 455.6 722.4000000000002 498.6999999999999C722.4000000000002 542 709.2000000000002 583.5999999999999 684.1000000000003 618.6999999999999C669.5000000000002 639.3 674.3000000000003 667.6999999999999 694.8000000000003 682.3999999999999S743.8000000000003 692.1999999999999 758.5000000000003 671.6999999999999C794.6000000000004 621.0999999999999 813.8000000000003 561.3 813.8000000000003 498.6999999999999C813.8000000000003 436.5999999999999 794.8000000000003 377.3 759.3000000000003 326.5999999999999C750.0000000000003 313.8999999999999 735.8000000000003 307.3 721.7000000000003 307.3zM622.0000000000001 499.1999999999999C622.0000000000001 438.4999999999999 572.7000000000002 389.4 512.2000000000002 389.4S402.4000000000001 438.7 402.4000000000001 499.1999999999999S451.7000000000001 609 512.2000000000002 609S622.0000000000001 559.8999999999999 622.0000000000001 499.1999999999999zM862.3000000000001 153.1999999999999C850.0000000000001 153.1999999999999 837.4000000000001 157.4999999999999 827.4000000000001 166.1999999999999C804.8000000000001 185.5999999999999 802.3000000000001 219.3 821.7 241.7C883.1 313.4 916.9 404.5999999999999 916.9 499.0999999999999C916.9 594.4999999999999 882.4000000000001 686.6999999999999 819.9000000000001 758.8C800.5000000000001 781.1999999999999 802.8000000000001 814.9999999999999 825.1000000000001 834.4999999999999C847.5000000000001 853.8999999999999 881.3000000000002 851.5999999999999 900.6000000000001 829.3C980.2000000000002 737.8 1024 620.6999999999999 1024 499.3999999999999C1024 379.3999999999999 981.1000000000003 263.2999999999999 903.1000000000003 172.1999999999998C892.3000000000002 159.6999999999998 877.5000000000001 153.1999999999998 862.3000000000002 153.1999999999998zM164.2 150.1999999999999C149.2 150.1999999999999 134.3 156.3 123.8 168.4C44 260 0 377.5999999999999 0 499.2C0 583.8000000000001 21.5 667.4000000000001 61.9 741.3000000000001C79.2 772.6000000000001 99.8 802.3000000000001 123.3 829.3000000000001C142.7 851.7 176.6 854 199 834.5S223.7 781.2 204.2 758.8000000000001C185.7 737.5 169.5 714.3000000000001 155.9 689.7C123.9 631.7 107.3 566.1 107.3 499.4000000000001C107.3 403.8000000000001 142 311.4000000000001 204.8 239.3000000000001C224.2 216.9000000000001 221.9 183.1 199.8 163.6C189.3 154.6 176.8 150.2000000000001 164.2 150.2000000000001z" />
    <glyph glyph-name="container-node"
      unicode="&#xE012;"
      horiz-adv-x="1024" d="M22.3 664L1001.8 664C1013.2 664 1020.3 669.1 1023.1 679.5C1025.6 689.8 1022.9 702.7 1014.4 717.9C1014.4 717.9 874.3 1007.5 863.8 1029C856 1048.1 841.4 1048.000716665267 841.4 1048.000716665267L185.6 1048.000716665267C185.6 1048.000716665267 169 1048.4 161.8 1030.3C151.3 1007.7 9.7 718 9.7 718C1.2 702.9 -1.7 690 1 679.6C3.7 669.2 10.8 664 22.3 664zM1013.1 589.1C1005.8 596.4 997.2 600 987.4 600L36.6 600C26.6 600 18.2 596.4 10.9 589.1C3.6 581.8 0 573.2 0 563.4L0 444.5C0 434.5 3.6 426.1 10.7 418.8C18 411.6 26.4 408 36.4 408L987.4 408C997.4 408 1005.8 411.6 1013.1 418.9C1020.4 426.2000000000001 1024 434.6 1024 444.6L1024 563.4C1024 573.4 1020.4 581.8 1013.1 589.1zM128 472L64 472L64 536L128 536L128 472zM256 472L192 472L192 536L256 536L256 472zM384 472L320 472L320 536L384 536L384 472zM512 472L448 472L448 536L512 536L512 472zM960 472L896 472L896 536L960 536L960 472z" />
    <glyph glyph-name="cpu"
      unicode="&#xE013;"
      horiz-adv-x="951" d="M699.4 843.6L699.5 421.6C699.5 414.7000000000001 693.9 409.2000000000001 687.1 409.2000000000001L264 408C257.1 408 251.5 413.6 251.5 420.4L251.5 843.6C251.5 850.5 257.1 856 263.9 856L686.9 856C693.9 856 699.4 850.4 699.4 843.6zM251.5 936L251.5 1032C251.5 1040.8 258.7 1048 267.5 1048L299.5 1048C308.3 1048 315.5 1040.8 315.5 1032L315.5 936C315.5 927.2 308.3 920 299.5 920L267.5 920C258.7 920 251.5 927.1 251.5 936zM395.5 1048L427.5 1048C436.3 1048 443.5 1040.8 443.5 1032L443.5 936C443.5 927.2 436.3 920 427.5 920L395.5 920C386.7 920 379.5 927.2 379.5 936L379.5 1032C379.5 1040.8 386.7 1048 395.5 1048zM523.5 1048L555.5 1048C564.3 1048 571.5 1040.8 571.5 1032L571.5 936C571.5 927.2 564.3 920 555.5 920L523.5 920C514.7 920 507.5 927.2 507.5 936L507.5 1032C507.5 1040.8 514.7 1048 523.5 1048zM651.5 1048L683.5 1048C692.3 1048 699.5 1040.8 699.5 1032L699.5 936C699.5 927.2 692.3 920 683.5 920L651.5 920C642.7 920 635.5 927.2 635.5 936L635.5 1032C635.5 1040.8 642.7 1048 651.5 1048zM267.5 344L299.5 344C308.3 344 315.5 336.8 315.5 328L315.5 232C315.5 223.2000000000001 308.3 216 299.5 216L267.5 216C258.7 216 251.5 223.2000000000001 251.5 232L251.5 328C251.5 336.8 258.7 344 267.5 344zM395.5 344L427.5 344C436.3 344 443.5 336.8 443.5 328L443.5 232C443.5 223.2000000000001 436.3 216 427.5 216L395.5 216C386.7 216 379.5 223.2000000000001 379.5 232L379.5 328C379.5 336.8 386.7 344 395.5 344zM523.5 344L555.5 344C564.3 344 571.5 336.8 571.5 328L571.5 232C571.5 223.2000000000001 564.3 216 555.5 216L523.5 216C514.7 216 507.5 223.2000000000001 507.5 232L507.5 328C507.5 336.8 514.7 344 523.5 344zM651.5 344L683.5 344C692.3 344 699.5 336.8 699.5 328L699.5 232C699.5 223.2000000000001 692.3 216 683.5 216L651.5 216C642.7 216 635.5 223.2000000000001 635.5 232L635.5 328C635.5 336.8 642.7 344 651.5 344zM779.5 856L875.5 856C884.3 856 891.5 848.8 891.5 840L891.5 808C891.5 799.2 884.3 792 875.5 792L779.5 792C770.7 792 763.5 799.2 763.5 808L763.5 840C763.5 848.8 770.7 856 779.5 856zM779.5 728L875.5 728C884.3 728 891.5 720.8 891.5 712L891.5 680C891.5 671.2 884.3 664 875.5 664L779.5 664C770.7 664 763.5 671.2 763.5 680L763.5 712C763.5 720.8 770.7 728 779.5 728zM779.5 600L875.5 600C884.3 600 891.5 592.8 891.5 584L891.5 552C891.5 543.2 884.3 536 875.5 536L779.5 536C770.7 536 763.5 543.2 763.5 552L763.5 584C763.5 592.8 770.7 600 779.5 600zM779.5 472L875.5 472C884.3 472 891.5 464.8 891.5 456L891.5 424C891.5 415.2000000000001 884.3 408 875.5 408L779.5 408C770.7 408 763.5 415.2000000000001 763.5 424L763.5 456C763.5 464.8 770.7 472 779.5 472zM75.5 856L171.5 856C180.3 856 187.5 848.8 187.5 840L187.5 808C187.5 799.2 180.3 792 171.5 792L75.5 792C66.7 792 59.5 799.2 59.5 808L59.5 840C59.5 848.8 66.7 856 75.5 856zM75.5 728L171.5 728C180.3 728 187.5 720.8 187.5 712L187.5 680C187.5 671.2 180.3 664 171.5 664L75.5 664C66.7 664 59.5 671.2 59.5 680L59.5 712C59.5 720.8 66.7 728 75.5 728zM75.5 600L171.5 600C180.3 600 187.5 592.8 187.5 584L187.5 552C187.5 543.2 180.3 536 171.5 536L75.5 536C66.7 536 59.5 543.2 59.5 552L59.5 584C59.5 592.8 66.7 600 75.5 600zM75.5 472L171.5 472C180.3 472 187.5 464.8 187.5 456L187.5 424C187.5 415.2000000000001 180.3 408 171.5 408L75.5 408C66.7 408 59.5 415.2000000000001 59.5 424L59.5 456C59.5 464.8 66.7 472 75.5 472z" />
    <glyph glyph-name="degraded"
      unicode="&#xE014;"
      horiz-adv-x="1024" d="M351.900028 728C383.89094 728 414.882136 726.9 444.173814 724C473.465493 721.1 501.557512 717.4 528.449872 711.9C555.142289 706.4 579.235444 700.2 600.629367 693.4C622.12326 686.1 640.817949 678.3 656.713434 669.2C672.10906 660.1 684.105652 650.5 691.803465 640.6C699.263164 631.076364 703.735414 621.3599340000001 703.990192 611.639999L704 611.1L704 466.9C703.000284 458.1 698.801477 449.8 692.403295 441.4C684.705481 431.5 672.70889 421.9 657.313263 412.8C641.517751 404.4 622.423175 396.2000000000001 601.029253 389.2000000000001C594.217855 386.866667 586.971025 384.620444 579.370043 382.461333L577.73587 382L575.936382 381.6L575.936382 283.6C584.633911 286 593.031525 288.6 601.029253 291.3C622.323204 298.3 641.517751 306.5 657.313263 314.9C672.70889 324 684.705481 333.6 692.403295 343.5C696.702073 349.1 699.801193 354.8 701.700653 360.6C701.989033 361.5615380000001 703.756282 361.413609 703.980672 360.511812L704 360.4L704 141.3C704 130.5 700.201079 120.4 692.503266 110.3C684.805453 100.4 672.808861 90.8 657.413235 81.7000000000001C641.617722 73.3 622.523147 65.1 601.129225 58.1C579.735302 50.9 555.642147 44.6 528.94973 39.1C501.657484 34 473.365521 29.8 444.273786 27.6C415.182051 25.1 384.49077 24 352.299915 24C320.608918 24 290.217552 25.2 260.72593 27.6C231.034365 29.7 202.742403 33.6 176.049986 38.9C148.957682 44.2 124.364669 50.4 102.970747 57.9C81.6767964 65 63.1820506 72.9 47.5864811 81.5C32.0908833 90.6 20.3942062 100.2000000000001 12.1965351 110.1C4.44237433 119.623636 0.350247605 129.53286 0.109389209 139.922313L0.099971599 140.5L0.099971599 360.2000000000001C0.199943198 361.2000000000001 1.89946038 361.4 2.29934678 360.4C12.295507 335.749 43.7497611 308.1577 123.62876 285.291462L126.064186 284.6L127.863675 284.1L127.863675 381.1C119.166146 383.5 110.768532 386.1 102.870775 388.9C81.5768248 396 63.082079 403.9 47.4865095 412.5C31.9909117 421.6 20.2942346 431.2000000000001 12.0965635 441.1C4.34240273 450.623636 0.250276006 460.53286 0.00941761004 470.922313L0 471.5L0 610.4C0 620.5 4.09883556 630.6 12.0965635 640.5C19.8943482 650.4 31.8909401 660.1 47.5864811 669.1C62.9821074 678.1 81.5768248 686.3 102.970747 693.3C124.364669 700.3 148.457824 706.5 175.150241 711.8C202.242545 717.1 230.834422 721.1 260.326044 723.9C289.817665 726.7 320.209032 728 351.900028 728zM232.2 527.4C230.9 527.4 229.3 527.2 227.8 526.5C226.716667 526 225.702778 525.430556 224.700463 524.849537L224.1 524.5L223.4 524.1L171.4 471.7C170 470.8 169 469.4 168.3 467.9C167.6 466.4 167.4 464.5 167.4 462.8C167.4 461.5 167.6 459.9 168.3 458.4C168.941667 457.116667 169.667361 455.917361 170.785185 454.6480319999999L171.1 454.3L171.4 454L282.4 343.6L169.1 230.5C167.7 229.6 166.7 228.2000000000001 166 226.7000000000001C165.3 225.2000000000001 165.1 223.3 165.1 221.6C165.1 220.3 165.3 218.7000000000001 166 217.2000000000001C166.641667 215.916667 167.367361 214.717361 168.485185 213.448032L168.8 213.1L169.1 212.8L221.1 160.6C222.4 159.2000000000001 224 158.2000000000001 225.5 157.5C227 156.8 228.9 156.6 230.6 156.6C231.9 156.6 233.5 156.8 235 157.5C236.392857 158.057143 237.527041 158.872959 238.402551 160.027515L238.6 160.3L238.8 160.6L352.1 273.2000000000001L465.3 161C466.2 159.6 467.6 158.6 469.1 157.9C470.6 157.2000000000001 472 157 473.5 157C475.3 157 477.1 157.2000000000001 478.6 157.9C479.883333 158.541667 481.082639 159.2673610000001 482.351968 160.385185L482.7 160.7000000000001L483 161L535 212.7000000000001C536.4 214 537.4 215.6 538.1 217.1C538.8 218.6 539.1 219.9 539 221.2000000000001C539 223 538.8 224.8 538.1 226.3C537.542857 227.692857 536.727041 228.827041 535.572485 229.702551L535.3 229.9L535 230.1L421.8 343.2000000000001L532.8 453.3C534.2 454.6 535.2 456.2 535.9 457.7C536.6 459.2 536.8 460.6 536.8 462.1C536.8 463.9 536.6 465.7 535.9 467.2C535.342857 468.592857 534.527041 469.727041 533.372485 470.6025509999999L533.1 470.8L532.8 471L481.4 523.6C480.1 524.5 478.5 525.3 477 526C475.5 526.7 473.6 526.9 471.9 526.9C470.6 526.9 469 526.7 467.5 526.2C466.09375 525.825 464.951172 525.186328 464.072266 524.036792L463.9 523.8L463.7 523.6L352.6 412.7000000000001L241.1 524.1C240.2 525.2 238.8 526.2 237.3 526.7C235.8 527.2 233.9 527.4 232.2 527.4zM1024 671.2L1024 461.3C1024 450.5 1020.2 440.4 1012.5 430.3C1004.8 420.4 992.8 410.8 977.4 401.7000000000001C961.6 393.3 942.5 385.1 921.1 378.1C899.7 370.9 875.6 364.6 848.9 359.1C822.8 354.2000000000001 795.7 350.2000000000001 768 347.9L767.7 571.9C795.6 574.2 822.7 578.2 848.9 583.1C875.6 588.6 902.3 595.6 921.1 602.1C939.9 608.6 961.5 617.3 977.3 625.7C992.7 634.8 1004.7 644.4 1012.4 654.3C1016.7 659.9 1019.8 665.6 1021.7 671.4C1022 672.5 1023.9 672.2 1024 671.2zM671.7 1048C703.8 1048 734.6 1046.9 763.9 1044C793.2 1041.1 821.3 1037.4 848.2 1031.9C874.9 1026.4 899 1020.2 920.4 1013.4C941.9 1006.1 960.6 998.3 976.5 989.2C991.9 980.1 1003.9 970.5 1011.6 960.6C1019.3 950.7 1024 940.6 1024 930.5L1024 782.6C1024 771.8 1020.2 761.7 1012.5 751.6C1004.8 741.7 992.8 732.1 977.4 723C961.6 714.6 942.5 706.4 921.1 699.4C899.7 692.2 875.6 685.9 848.9 680.4C821.6 675.3 793.3 671.1 764.2 668.9C759.8 668.5 755.4 668.2 750.9 667.9C748.4 672 745.7 676 742.6 679.8C730 696.1 712.6 710.6 689.6 724.2L688.8 724.6C670.3 735.3 648.2 744.8 621.4 753.9L620.2 754.3C596.7 761.8 570.2 768.6 541.4 774.5C515 779.9 486.1 784.1 450.6 787.6C420.6 790.6 388.3 792 351.9 792C341.1 792 330.6 791.9 320.3 791.6C320 791.8 319.9 791.9 319.6 792.2L319.6 930.4C319.6 940.5 323.7 950.6 331.7 960.5C339.5 970.4 351.5 980.1 367.2 989.1C382.6 998.1 401.2 1006.3 422.6 1013.3C444 1020.3 468.1 1026.5 494.8 1031.8C521.9 1037.1 550.5 1041.1 580 1043.9C609.6 1046.7 640 1048 671.7 1048z" />
    <glyph glyph-name="disconnected"
      unicode="&#xE015;"
      horiz-adv-x="1024" d="M903.817366561 211C981.141853561 301.8 1023.500487561 417.6 1023.500487561 537.2C1023.500487561 658.6 979.743219561 775.7 900.120975561 867.2C880.739902561 889.6 846.773073561 891.9 824.694634561 872.4C802.316487561 853 800.118634561 819 819.499707561 796.6C881.9387315609999 724.7 916.405073561 632.5 916.405073561 537.1C916.405073561 446 884.9358055609999 357.7000000000001 827.691707561 287.2000000000001L754.263414561 360.7000000000001C755.362341561 362.1 756.760975561 363.4 757.660097561 365C793.225366561 415.2000000000001 811.9071225609999 474.6 811.9071225609999 536.4C811.9071225609999 598.7 793.025561561 658.3 756.960780561 708.7C742.874536561 728.8 715.001756561 733.4 694.921366561 719.2C674.8409755609999 705 670.345366561 677.2 684.431609561 657.1C709.507122561 621.7 722.993951561 580 722.993951561 536.4C722.993951561 496.5 711.804878561 457.9 690.425756561 424.3L615.199219561 499.4C619.495024561 511 621.792780561 523.6 621.792780561 536.8C621.792780561 597.5 572.540878561 646.6 512.099902561 646.6C498.912780561 646.6 486.325073561 644.3 474.736390561 640L82.319609961 1033.3C64.137366061 1051.6 34.466341661 1051.6 16.284097761 1033.3C-1.898146099 1015 -1.998048539 985.4 16.284097761 967.1L120.182634561 863L120.182634561 863L196.308292561 787L196.308292561 787L333.074731561 650.1L333.074731561 650.1L408.800780561 574.3L408.800780561 574.3L549.063805561 433.9L549.063805561 433.9L941.880195561 40.6C950.971317561 31.5 962.859707561 26.9 974.947902561 26.9C987.036097561 26.9 998.924487561 31.5 1008.015607561 40.6C1026.297757561 58.9 1026.297757561 88.5 1008.015607561 106.8L903.817366561 211L903.817366561 211zM299.607414561 536.4C299.607414561 541.2 299.807219561 545.8 300.106927561 550.3L224.380878561 626.1C215.289756561 597.3 210.694244561 567.2 210.694244561 536.4C210.694244561 474.8 229.376000561 415.7000000000001 264.741463561 365.4C273.432975561 353.1 287.119609561 346.5 301.205853561 346.5C310.097170561 346.5 318.988487561 349 326.780878561 354.5C346.861268561 368.7000000000001 351.656585561 396.5 337.470439561 416.6C312.594731561 452 299.607414561 493.3 299.607414561 536.4L299.607414561 536.4zM107.395122561 537.1C107.395122561 595.5 120.382439561 653.3 145.058341561 705.8L65.735805161 785.2C64.636878261 783.1 63.438049061 781.1 62.339122161 779C21.978536861 705.3 0.499512439 621.6 0.499512439 536.9C0.499512439 415.2000000000001 44.456585561 297.7000000000001 124.278634561 206.2000000000001C134.968195561 194.1 149.853658561 187.9 164.639219561 187.9C177.226927561 187.9 189.714731561 192.2000000000001 199.704975561 201.1C222.083122561 220.5 224.280975561 254.5 204.700097561 276.9C142.061268561 349 107.395122561 441.3 107.395122561 537.1L107.395122561 537.1z" />
    <glyph glyph-name="domain"
      unicode="&#xE016;"
      horiz-adv-x="1024" d="M576 1016L576 642C576 624.3 590.3 610 608 610L864 610C881.7 610 896 624.3 896 642L896 1016C896 1033.7 881.7 1048 864 1048L608 1048C590.3 1048 576 1033.7 576 1016zM640 696L640 792L832 792L832 696L640 696zM832 888L736 888L736 984L832 984L832 888zM320 504.1L320 56.1C320 38.5 334.4 24.1 352 24.1L544 24.1C561.6 24.1 576 38.5 576 56.1L576 504.1C576 521.7 561.6 536.1 544 536.1L352 536.1C334.4 536.1 320 521.7 320 504.1zM512.1 216L384 216L384 344L512.1 344L512.1 216L512.1 216zM512 88L384 88L384 152L512 152L512 88L512 88zM512 408L448 408L448 472L512 472L512 408zM224 1048L32 1048C14.4 1048 0 1033.6 0 1016L0 760C0 742.4 14.4 728 32 728L224 728C241.6 728 256 742.4 256 760L256 1016C256 1033.6 241.6 1048 224 1048zM192 792L64 792L64 856L192 856L192 792zM128 920L128 984L192 984L192 920L128 920zM960 984L1024 984L1024 664L960 664L960 984zM640 472L704 472L704 88L640 88L640 472zM896 534.9C896 483 885.9 432.7000000000001 865.8 385.4C846.5 339.7000000000001 818.8 298.6 783.5 263.3C778.4 258.2000000000001 773.3 253.4 768 248.6L768 167.1C884.1 248.1 960 382.6 960 534.8L960 534.9L896 534.9C896 535 896 534.9 896 534.9zM256 248.7000000000001C250.7 253.4 245.5 258.3 240.5 263.4C205.2 298.7000000000001 177.5 339.8 158.2 385.5C138.2 432.8 128 483.1 128 535C128 579.1 135.3 622.1 149.8 663L82.6 663C70.5 622.3 64 579.4 64 534.9C64 382.7000000000001 139.9 248.2000000000001 256 167.2000000000001L256 248.7000000000001zM320 939.8L320 867.6C333.7 875.5 347.9 882.6 362.5 888.8C409.8 908.8 460.1 919 512 919L512 919L512 983L512 983C443.3 982.9 378.2 967.4 320 939.8z" />
    <glyph glyph-name="edit"
      unicode="&#xE017;"
      horiz-adv-x="1024" d="M219.6 97.1L292.9 170.2000000000001L146.3 316.6L73.2 243.5L73.2 170.4L146.3 170.4L146.3 97L219.6 97.1L219.6 97.1zM806.2 609.1L219.4 24L0 24L0 243.4L586.6 828.5L806.2 609.1zM1024 860.1C1024 841 1017.3 824.9 1004 811.6L857.5 661.1L638.8 879.6L787.3 1027.5C800.3 1041.2 816.5 1048 835.9 1048C855 1048 871.4 1041.2 885 1027.5L1004 909.1C1017.3 895.1 1024 878.8 1024 860.1L1024 860.1L1024 860.1z" />
    <glyph glyph-name="enhancement"
      unicode="&#xE018;"
      horiz-adv-x="1024" d="M469.7814767411827 1025.4471577C484.9813197411827 1048.249354696 516.2809957411827 1054.9500003 539.7807517411827 1040.04856456C545.7806897411828 1036.4482177 550.6806387411827 1031.3477262 554.6805977411827 1025.4471577L554.6805977411827 1025.4471577L624.9798697411827 886.433764L788.0781797411827 972.64207C814.1779097411827 982.543024 843.4776057411827 969.7417906 853.4775027411827 944.339343C856.0774757411828 937.638697 857.2774627411827 930.838042 856.7774677411827 923.737358L856.7774677411827 923.737358L832.4777197411827 766.222182L986.3761257411828 736.019272C1013.2758497411826 728.918588 1029.4756797411826 701.715967 1022.1757597411826 675.4134320000001C1020.2757697411826 668.612777 1016.9758097411828 662.41218 1012.5758497411827 656.91165L1012.5758497411827 656.91165L903.3769857411826 536L1012.5758497411827 415.08835C1030.2756697411826 393.786298 1026.9757097411825 362.6833010000001 1005.6759297411826 345.581653C1000.0759797411826 341.1812290000001 993.8760477411826 337.980921 986.7761217411826 336.180748L986.7761217411826 336.180748L828.1777647411827 310.578281L857.0774647411827 148.462661C858.7774477411828 121.060021 837.2776697411826 97.757776 809.4779577411826 96.357641C802.1780337411827 95.857593 794.8781097411827 97.0577080000001 788.3781767411828 99.557949L788.3781767411828 99.557949L627.5798427411827 185.766255L554.6805977411827 46.5528399999999C539.4807547411827 23.75065 508.1810787411827 17.05 484.7813217411827 31.9514400000001C478.7813837411827 35.55178 473.8814347411827 40.65227 469.8814757411827 46.5528399999999L469.8814757411827 46.5528399999999L396.9822307411827 185.766255L236.1838967411827 99.557949C210.0841667411827 89.6569950000001 180.7844707411827 102.458229 170.7845747411827 127.860676C168.1846007411827 134.561322 166.9846137411827 141.361977 167.4846087411827 148.462661L167.4846087411827 148.462661L196.3843087411827 310.578281L37.7859520411827 336.180748C10.6862327411827 343.081412 -5.5135994488173 370.284033 1.7863249311827 396.5865680000001C3.6863052511827 403.387223 6.9862710711827 409.58782 11.3862254411827 415.08835L11.3862254411827 415.08835L120.5850947411827 536L11.1862275411827 656.91165C-6.2135921988173 678.213702 -3.0136253488173 709.316699 18.6861498411827 726.418347C24.2860918411827 730.818771 30.4860276411827 734.0190789999999 37.5859540411827 735.819252L37.5859540411827 735.819252L191.5843587411827 766.222182L167.2846107411827 923.737358C165.8846247411827 950.939979 187.1844047411827 974.2422242 215.1841147411827 975.6423591C222.1840417411827 976.1424073 229.4839657411827 974.9422916 235.9838987411827 972.4420507L235.9838987411827 972.4420507L396.8822317411827 886.233745zM560.9999997411827 728L462.9999997411827 728C454.6999997411827 728 447.9999997411827 721.3 447.9999997411827 713L447.9999997411827 713L447.9999997411827 600L334.9999997411827 600C326.6999997411827 600 319.9999997411827 593.2 319.9999997411827 584.9L319.9999997411827 584.9L319.9999997411827 486.9C319.9999997411827 478.6 326.6999997411827 472 334.9999997411827 472L334.9999997411827 472L447.9999997411827 472L447.9999997411827 359C447.9999997411827 350.7000000000001 454.6999997411827 344 462.9999997411827 344L462.9999997411827 344L560.9999997411827 344C569.2999997411827 344 575.9999997411827 350.7000000000001 575.9999997411827 359L575.9999997411827 359L575.9999997411827 472L688.9999997411827 472C697.2999997411827 472 703.9999997411827 478.5 703.9999997411827 486.8L703.9999997411827 486.8L703.9999997411827 584.9C703.9999997411827 593.2 697.2999997411827 600 688.9999997411827 600L688.9999997411827 600L575.9999997411827 599.9L575.9999997411827 713C575.9999997411827 721.3 569.2999997411827 728 560.9999997411827 728L560.9999997411827 728z" />
    <glyph glyph-name="enterprise"
      unicode="&#xE019;"
      horiz-adv-x="1024" d="M128.4 613.8L511.6 522.8L511.6 671.3L128.4 757.1L128.4 613.8zM128.4 394.4L511.6 302.8L511.6 450.3L128.4 540.7L128.4 394.4zM896 723.2L704 647.5L704 501.2L896 577L896 723.2zM896.1 503.8L704 428L704 281.7000000000001L896.1 357.5L896.1 503.8zM512.1 1048L438.9 1048L0 938.3L0 165.7000000000001L585.1 24L658.3 24L1024 170.3L1024 938.3L512.1 1048zM128.4 321.3L128.4 210.2000000000001L73.2 222.9L73.2 847.1L576 735.4L576 103.7000000000001L511.6 119L511.6 228.6L128.4 321.3zM960 223.8L895.9 198.3L895.9 284.5L704 208.6L704 121.5L640 95.5L640 721L960 844.9L960 223.8z" />
    <glyph glyph-name="equalizer"
      unicode="&#xE01A;"
      horiz-adv-x="1024" d="M256 1047.9L256 792L288 792C305.7 792 320 777.7 320 760L320 760L320 568C320 550.3 305.7 536 288 536L288 536L256 536L256 24L128 24L128 536L96 536C78.3 536 64 550.3 64 568L64 568L64 760C64 777.7 78.3 792 96 792L96 792L128 792L128 1047.9L256 1047.9zM896 1047.9L896 792L928 792C945.7 792 960 777.7 960 760L960 760L960 568C960 550.3 945.7 536 928 536L928 536L896 536L896 24L768 24L768 536L736 536C718.3 536 704 550.3 704 568L704 568L704 760C704 777.7 718.3 792 736 792L736 792L768 792L768 1047.9L896 1047.9zM576 1048L576 536.4L608 536.4C625.7 536.4 640 522.1 640 504.4L640 504.4L640 312C640 294.3 625.7 280 608 280L608 280L576 280L576 24L448 24L448 280L416 280C398.3 280 384 294.3 384 312L384 312L384 504.4C384 522.1 398.3 536.4 416 536.4L416 536.4L448 536.4L448 1048L576 1048zM576 472L448 472L448 344L576 344L576 472zM256 728L128 728L128 599.9L256 599.9L256 728zM896 728L768 728L768 599.9L896 599.9L896 728z" />
    <glyph glyph-name="error-circle-o"
      unicode="&#xE01B;"
      horiz-adv-x="1024" d="M512.1 1048C229.7 1048 0 818.2 0 536C0 253.7000000000001 229.8 24 512.1 24C794.4 24 1024 253.7000000000001 1024 536C1024 818.3 794.4 1048 512.1 1048zM512 152C300.2 152 128 324.1 128 536C128 747.7 300.2 920 512 920C723.7 920 896 747.8 896 536C896 324.2000000000001 723.7 152 512 152zM409.5 729C403.6 734.9 394.2 734.9 388.3 729L319 659.7C313.1 653.8 313.1 644.4 319 638.5L421.5 536L319 433.5C313.1 427.6 313.1 418.2000000000001 319 412.3L388.3 343C394.2 337.1 403.6 337.1 409.5 343L512 445.5L614.5 343C620.4 337.1 629.9 337.1 635.8 342.9L705.1 412.2000000000001C711 418.1 710.9 427.6 705 433.5L602.5 536L705 638.5C710.9 644.4 710.9 653.8 705.1 659.6L635.8 729C629.9 734.9 620.4 734.9 614.5 729.1L512 626.5L409.5 729z" />
    <glyph glyph-name="export"
      unicode="&#xE01C;"
      horiz-adv-x="1024" d="M128 920L896 920L896 686.3C896 677.8 899.4 669.7 905.4 663.7L996.7 572.4C1006.8 562.3 1024 569.5 1024 583.7L1024 1025.3C1024 1031.9 1021.9 1037.3 1017.6 1041.6C1013.3 1045.9 1007.9 1048 1001.3 1048L22.7 1048C16.1 1048 10.7 1045.9 6.4 1041.6C2.1 1037.3 0 1031.9 0 1025.3L0 46.7C0 40.1 2.1 34.7 6.4 30.4C10.7 26.1 16.1 24 22.7 24L463.4 24C477.7 24 484.8 41.2 474.7 51.3L383.4 142.6C377.4 148.6 369.3 152 360.8 152L128 152L128 920zM975.8 411.1L870.9 306.2000000000001L457.9 719.4C452.1 725.2 445.4 728.1 437.9 728.1C430.3 728.1 423.7 725.2 417.9 719.4L328.8 630.3C323 624.5 320.1 617.8 320.1 610.3C320.1 602.7 323 596.1 328.8 590.3L742 177.3L636.9 72.2000000000001C610.5 45.8 619.4 24 656.8 24L956 24C1014.5 24 1024 34.3 1024 92.1L1024 391.3C1023.9 428.6 1002.2 437.5 975.8 411.1L975.8 411.1z" />
    <glyph glyph-name="filter"
      unicode="&#xE01D;"
      horiz-adv-x="951" d="M475.4999414103263 1048C155.5570204103263 1048 28.1991609963263 966.6 28.1991609963263 908.3C28.1991609963263 872 55.8682803103263 853.1 94.8248020103263 808L347.3429734103263 550.8L347.3429734103263 251.3C347.3429734103263 242.9 350.6392944103263 234.9 356.4328284103263 228.9L529.2399634103263 52.1C553.0134304103262 30.3 563.1021714103263 24 571.0932524103263 24C587.4749694103263 24.1 603.0575784103262 35.8 603.0575784103262 55L603.0575784103262 550.9L856.5746344103262 808C866.2638214103263 819.2 922.8007804103262 871 922.8007804103262 908.3C922.9006104103262 968 795.4428624103263 1048 475.4999414103263 1048zM475.0004984103263 824C234.9683914103263 824 139.3750804103263 877.5 139.3750804103263 906.5C139.3750804103263 935.5 234.9683914103263 984 475.0004984103263 984C715.0326054103263 984 810.6259164103262 936.2 810.6259164103262 906.5C810.6259164103262 876.8 715.0326054103263 824 475.0004984103263 824z" />
    <glyph glyph-name="flavor"
      unicode="&#xE01E;"
      horiz-adv-x="1088" d="M0 920L0 920C35.3 920 64 891.3 64 856L64 216C64 180.7000000000001 35.3 152 0 152L0 152L0 920zM512 728L576 728L576 600L512 600L512 728zM640 728L704 728L704 600L640 600L640 728zM513 344L575 344C575.6 344 576 343.6 576 343L576 281C576 280.4 575.6 280 575 280L513 280C512.4 280 512 280.4 512 281L512 343C512 343.6 512.4 344 513 344zM128 984L128 88C128 52.7 156.7 24 192 24L896 24C931.3 24 960 52.7 960 88L960 984C960 1019.3 931.3 1048 896 1048L192 1048C156.7 1048 128 1019.3 128 984zM704 344L640 344L640 280L704 280L704 216L640 216L640 152L576 152L576 216L512 216L512 152L448 152L448 216L384 216L384 280L448 280L448 344L384 344L384 408L448 408L448 472L512 472L512 408L576 408L576 472L640 472L640 408L704 408L704 344zM816 729L768 729L768 552C768 543.2 760.8 536 752 536L336 536C327.2 536 320 543.2 320 552L320 729L272 729C263.2 729 256 736.2 256 745L256 904C256 912.8 263.2 920 272 920L816 920C824.8 920 832 912.8 832 904L832 745C832 736.2 824.8 729 816 729zM384 728L448 728L448 600L384 600L384 728zM1088 920L1088 920L1088 152L1088 152C1052.7 152 1024 180.7000000000001 1024 216L1024 856C1024 891.3 1052.7 920 1088 920z" />
    <glyph glyph-name="folder-close"
      unicode="&#xE01F;"
      horiz-adv-x="1097" d="M1108.6200562494541 152.1L1108.6200562494541 824C1108.6200562494541 824 1108.1200562494541 899.1 1033.5200562494542 899.1C948.1200562494543 899.1 510.8200562494542 899.1 510.8200562494542 899.1L458.0200562494542 981.9C458.0200562494542 981.9 427.4200562494542 1048 362.1200562494542 1048C287.5200562494542 1048 113.7200562494542 1048 63.4200562494542 1048C-21.9799437505458 1048 -11.1799437505458 973.4 -11.1799437505458 973.4L-11.1799437505458 152L1108.6200562494541 152L1108.6200562494541 152.1z" />
    <glyph glyph-name="folder-open"
      unicode="&#xE020;"
      horiz-adv-x="1243" d="M1238.6556069968601 591.4C1226.8556069968602 597.1 1213.45560699686 600.1 1198.3556069968602 600.1L398.5556069968602 600.1C274.3556069968602 600.1 222.5556069968602 518.9 222.5556069968602 518.9L61.4556069968602 301.4L135.8556069968602 559.8C147.8556069968602 591.9 173.1556069968602 619.2 211.4556069968602 641.6C249.8556069968602 663.9 289.9556069968603 674.7 331.6556069968603 674.7L1107.1556069968601 674.7L1107.1556069968601 824C1107.1556069968601 824 1106.7556069968603 899.1 1032.0556069968602 899.1C946.6556069968602 899.1 509.3556069968602 899.1 509.3556069968602 899.1L456.4556069968602 981.9C456.4556069968602 981.9 425.8556069968602 1048 360.5556069968602 1048C286.0556069968602 1048 112.1556069968602 1048 61.9556069968602 1048C-23.2443930031398 1048 -12.6443930031398 973.4 -12.6443930031398 973.4L-12.6443930031398 152L846.7556069968601 152C876.0556069968602 152 907.9556069968602 159.8 942.4556069968602 175.5C976.9556069968602 191.2000000000001 1003.6556069968602 210.5 1022.7556069968603 233L1235.45560699686 518.8C1249.2556069968603 534.3 1256.06052699686 548.9 1256.06052699686 562.7C1256.2556069968603 576.3 1250.3556069968602 585.7 1238.6556069968601 591.4L1238.6556069968601 591.4L1238.6556069968601 591.4z" />
    <glyph glyph-name="globe-route"
      unicode="&#xE021;"
      horiz-adv-x="1306" d="M453.4750000000001 333.3L331.5750000000001 211.2000000000001C321.5750000000001 201.1 304.2750000000001 208.2000000000001 304.2750000000001 222.5L304.2750000000001 280.3L16.2750000000001 280.5C7.4750000000001 280.5 0.2750000000001 287.7000000000001 0.2750000000001 296.5L0.2750000000001 392.5C0.2750000000001 401.3 7.4750000000001 408.5 16.2750000000001 408.5L304.2750000000001 408.3L304.2750000000001 466.2C304.2750000000001 480.4 321.4750000000001 487.6 331.5750000000001 477.5L453.4750000000001 355.9C459.6750000000001 349.7000000000001 459.7750000000001 339.5 453.4750000000001 333.3zM1088.275 566.4C1088.275 566 1088.275 565.6 1088.275 565.2L1088.275 565.2C1088.275 555.3 1087.9750000000001 545.6 1087.275 535.9C1070.775 285.7000000000001 862.575 88 608.2750000000001 88C537.9750000000001 88 471.2750000000001 103.1 410.9750000000001 130.2000000000001C405.8750000000001 132.5 404.7750000000001 139.2000000000001 408.6750000000001 143.1L486.8750000000001 221.3C490.2750000000001 224.7000000000001 495.9750000000001 224.3 498.8750000000001 220.5C512.4750000000001 202.7000000000001 526.8750000000001 187.9 541.6750000000001 176.8C553.075 168.2000000000001 564.6750000000001 161.8 576.2750000000001 157.7000000000001L576.2750000000001 333.2000000000001C576.2750000000001 341.7000000000001 572.8750000000001 349.8 566.8750000000001 355.8L527.9750000000001 394.8C522.9750000000001 399.9 526.575 408.5 533.6750000000001 408.5L576.2750000000001 408.5L576.2750000000001 536.1L193.2750000000001 536.1L193.3750000000001 535.9C193.9750000000001 528.3 194.7750000000001 520.7 195.7750000000001 513.1C196.4750000000001 508.3 192.6750000000001 504 187.8750000000001 504L139.7750000000001 504C135.7750000000001 504 132.3750000000001 507 131.8750000000001 511C129.8750000000001 528.2 128.2750000000001 545.7 128.2750000000001 552L128.2750000000001 565.2C128.2750000000001 828.6 342.7750000000001 1046.6 605.7750000000001 1048C606.575 1048 607.3750000000001 1048 608.2750000000001 1048C608.3750000000001 1048 608.575 1048 608.6750000000001 1048C608.8750000000001 1048 608.9750000000001 1048 609.1750000000001 1048C609.575 1048 609.8750000000001 1048 610.1750000000001 1048C708.4750000000001 1047.6 799.8750000000001 1017.7 875.7750000000001 966.6C882.2750000000001 962.2 879.1750000000001 952 871.2750000000001 952L686.6750000000001 952C684.7750000000001 952 682.9750000000001 952.7 681.575 953.9C679.3750000000001 955.8 677.075 957.5 674.8750000000001 959.2C663.4750000000001 967.8 651.8750000000001 974.2 640.2750000000001 978.3L640.2750000000001 792.4L691.2750000000001 792.4C694.575 792.4 697.575 790.3 698.7750000000001 787.2C704.575 771.8 709.6750000000001 755.6 714.1750000000001 738.5C715.575 733.5 711.6750000000001 728.5 706.4750000000001 728.5L640.2750000000001 728.5L640.2750000000001 600L813.6750000000001 600C813.3750000000001 607.9 812.8750000000001 615.7 812.3750000000001 623.5C812.075 628.1 815.6750000000001 632 820.3750000000001 632L868.4750000000001 632C872.6750000000001 632 876.1750000000001 628.7 876.4750000000001 624.5C876.9750000000001 616.4 877.4750000000001 608.2 877.7750000000001 600L1023.175 600C1022.575 607.7 1021.775 615.3 1020.775 622.9C1020.175 627.7 1023.8750000000002 632 1028.6750000000002 632L1076.6750000000002 632C1080.6750000000002 632 1084.075 629 1084.575 625C1086.875 606.8 1088.075 588.2 1088.275 569.4L1088.275 567.9C1088.275 567.4 1088.275 566.9 1088.275 566.4zM353.7750000000001 728.5L224.3750000000001 728.5C207.1750000000001 687.5 196.7750000000001 644.4 193.4750000000001 600L338.8750000000001 600C340.5750000000001 644.8 345.6750000000001 687.9 353.7750000000001 728.5zM369.5750000000001 792.6C388.0750000000001 854.7 414.1750000000001 908.8 445.4750000000001 951C396.3750000000001 930.1 352.1750000000001 900.2 314.1750000000001 862.2C292.8750000000001 840.8 274.1750000000001 817.6 258.0750000000001 792.6L369.5750000000001 792.6zM576.2750000000001 728.5L543.8750000000001 728.5L419.0750000000001 728.5C410.0750000000001 687.4 404.6750000000001 644.3 402.8750000000001 600L576.2750000000001 600L576.2750000000001 728.5zM576.2750000000001 978.2C564.6750000000001 974.1 553.075 967.7 541.6750000000001 959.1C516.9750000000001 940.5 493.2750000000001 911.8 473.1750000000001 876C459.0750000000001 850.9 446.8750000000001 823 436.6750000000001 792.5L543.8750000000001 792.5L576.2750000000001 792.5L576.2750000000001 978.2zM576.9750000000001 993.3L576.075 993.3L576.075 992.4L576.9750000000001 992.4L576.9750000000001 993.3zM640.2750000000001 408.5L797.6750000000001 408.5C806.575 449.3 811.9750000000001 492 813.6750000000001 536L640.2750000000001 536L640.2750000000001 408.5zM743.3750000000001 260C757.6750000000001 285.3 769.9750000000001 313.6 780.1750000000001 344.5L640.2750000000001 344.5L640.2750000000001 157.8C651.8750000000001 161.9 663.4750000000001 168.3 674.8750000000001 176.9C699.575 195.4 723.2750000000001 224.2000000000001 743.3750000000001 260zM959.275 344.5L847.2750000000001 344.5C828.6750000000001 281.9 802.575 227.5 771.1750000000001 185C820.2750000000001 205.9 864.4750000000001 235.8 902.4750000000003 273.8C924.075 295.5 943.075 319.1 959.275 344.5zM1023.075 536L877.6750000000001 536C875.9750000000001 491.6 870.9750000000001 448.8 862.9750000000001 408.5L992.575 408.5C1009.575 449.2000000000001 1019.775 492 1023.075 536zM1301.075 804.2L1179.075 925.9C1168.9750000000001 936 1151.775 928.8 1151.775 914.6L1151.775 856.7L766.4750000000001 856.4C760.6750000000001 856.4 756.7750000000001 850.3 759.1750000000001 845C773.7750000000001 813.5 785.6750000000001 778.3 794.7750000000001 740C795.1750000000001 738.2 795.575 736.4 795.9750000000001 734.7C796.7750000000001 731.1 800.075 728.5 803.7750000000001 728.5L1151.875 728.5L1151.875 670.7C1151.875 656.4 1169.1750000000002 649.3 1179.1750000000002 659.4L1301.075 781.5C1307.275 787.8 1307.275 798 1301.075 804.2z" />
    <glyph glyph-name="help"
      unicode="&#xE022;"
      horiz-adv-x="1024" d="M512.1 1048C229.7 1048 0 818.2 0 536C0 253.7000000000001 229.8 24 512.1 24C794.4 24 1024 253.7000000000001 1024 536C1024 818.3 794.4 1048 512.1 1048zM512 152C300.2 152 128 324.1 128 536C128 747.7 300.2 920 512 920C723.7 920 896 747.8 896 536C896 324.2000000000001 723.7 152 512 152zM575.3 296.7000000000001L575.3 392.7000000000001C575.3 397.1 573.7 400.7000000000001 570.6 404C567.5 407.1 563.7 408.7000000000001 559.3 408.7000000000001L463.3 408.7000000000001C458.9 408.7000000000001 455.3 407.1 452 404C448.9 400.9 447.3 397.1 447.3 392.7000000000001L447.3 296.7000000000001C447.3 292.3 448.9 288.7000000000001 452 285.4C455.1 282.3 458.9 280.7000000000001 463.3 280.7000000000001L559.3 280.7000000000001C563.7 280.7000000000001 567.3 282.3 570.6 285.4C573.8 288.6 575.3 292.4 575.3 296.7000000000001L575.3 296.7000000000001zM521.3 472C627.5 472 713.7 546 713.7 634.3C713.7 722.6 627.6 794.4 521.3 794.4C366 794.4 334.5 710.3 329.2 640.8C329.2 633.7 335.2 632 343.5 632C351.8 632 440.5 632 445 632C450.5 632 458 632.5 460.8 641.5C460.8 685.4 582.9 690.9 582.9 634.4C582.9 606.1 556.2 577.1 521.3 575C486.4 572.9 447.3 568.2 447.3 526.3C447.3 514.6 447.3 511.2 447.3 494.2C447.3 477.2 456.1 472 472 472C488 471.9 521.3 472 521.3 472L521.3 472z" />
    <glyph glyph-name="history"
      unicode="&#xE023;"
      horiz-adv-x="1024" d="M576.5 488L576.5 776C576.5 784.8 569.3 792 560.5 792L528.5 792C519.7 792 512.5 784.8 512.5 776L512.5 536L336.5 536C327.7 536 320.5 528.8 320.5 520L320.5 488C320.5 479.2 327.7 472 336.5 472L560.5 472C569.3 472 576.5 479.2 576.5 488zM1024 537.3C1024 256 794.9 24 512.4 24C383.8 24 266.1 71.7000000000001 176.1 150.4C162.2 162.6 161.5 184 174.5 197.1L219.7 242.4C231.5 254.2000000000001 250.4 254.9 263.1 244.1C330.2 186.8 417.2 152.1 512.2 152.1C723.8 152 896 324.2000000000001 896 536C896 747.8 723.8 920 512.2 920C406.4 920 310.5 876.9 241 807.5L329.8 718.7C350 698.5 335.7 664 307.2 664L32.5 664C14.8 663.9 0 678.3 0 696L0 970.7C0 999.2 35 1013.5 55.1 993.3L150.6 897.8C242.4 989.6 368.7 1048 508.2 1048C789 1048 1023.3 821.8 1024 537.3z" />
    <glyph glyph-name="home"
      unicode="&#xE024;"
      horiz-adv-x="1024" d="M1024 600.7C1024 606.4 1019.8 611 1015.6 614.4L559.6 1031C546 1042 530 1048 511.4 1048C492.8 1048 476.8 1042 463.2 1031L7.2 614.3C3 610.9 0 606.4 0 600.6C0 594.8 1.4 590 4.8 585.8L39.7 543C43.1 539.2 47.5 536.9 53 536C54 535.9 103 536.1 157.8 536L157.8 191.3C157.8 180.7000000000001 161.7 171.5 169.5 163.7000000000001C177.2 156 186.5 152 197.1 152L447 152L447 408L575 408L575 152.1L825.7 152.1C836.3 152.1 845.5 156 853.3 163.8C861 171.5 865 180.8 865 191.4L865 536C918.6 536 966.9 536 967.9 536L969.8 536C975.3 536.8 979.8 539.1 983.1 542.9L1018.1 585.7C1021.5 590.1 1024 595 1024 600.7z" />
    <glyph glyph-name="import"
      unicode="&#xE025;"
      horiz-adv-x="1024" d="M655.8 731.1L550.9 626.1L137.8 1039.3C132 1045.1 125.3 1048 117.8 1048C110.2 1048 103.6 1045.1 97.8 1039.3L8.7 950.2C2.9 944.4 0 937.7 0 930.2C0 922.6 2.9 916 8.7 910.2L421.9 497.2L316.9 392.2000000000001C290.5 365.8 299.4 344 336.8 344L636 344C694.5 344 704 354.3 704 412.1L704 711.3C703.9 748.6 682.2 757.5 655.8 731.1L655.8 731.1zM896 152L128 152L128 449.7000000000001C128 458.2 124.6 466.3 118.6 472.3L27.3 563.6C17.2 573.8 0 566.6 0 552.4L0 46.7C0 40.1 2.1 34.7 6.4 30.4C10.7 26.1 16.1 24 22.7 24L1001.3 24C1007.9 24 1013.3 26.1 1017.6 30.4C1021.9 34.7 1024 40.1 1024 46.7L1024 1025.3C1024 1031.9 1021.9 1037.3 1017.6 1041.6C1013.3 1045.9 1007.9 1048 1001.3 1048L496.6 1048C482.3 1048 475.2 1030.8 485.3 1020.7L576.6 929.4C582.6 923.4 590.7 920 599.2 920L896 920L896 152z" />
    <glyph glyph-name="in-progress"
      unicode="&#xE026;"
      horiz-adv-x="1024" d="M112.4446211893704 535.60039L16.5382797893704 535.60039C7.5470603093704 535.60039 0.2541822623704 528.107707 0.5538895793704 519.116488C3.8506700693704 414.119024 39.0163285893704 316.913951 96.6600358893704 237.091902C102.4543771893704 229.099707 113.9431581893704 228.100683 120.9363281893704 235.093854L189.7691091893704 303.9266340000001C195.1638411893704 309.321366 195.9630601893704 317.713171 191.7671581893704 324.1069270000001C154.2038411893704 380.7516100000001 131.3261821893704 447.886049 128.4290111893704 520.215415C128.1293041893704 528.807024 121.0362311893704 535.60039 112.4446211893704 535.60039zM96.6600358893704 834.108878C64.0918407893704 789.052878 38.8165236893704 738.502244 22.2327188893704 684.155317C19.1357431893704 673.865366 26.8282310893704 663.575415 37.5177919893704 663.575415L138.9187671893704 663.575415C145.5123281893704 663.575415 151.4065721893704 667.571512 153.8042311893704 673.665561C163.8943771893704 699.640195 176.6818891893704 724.216195 191.8670601893704 747.093854C196.0629631893704 753.387707 195.2637431893704 761.879415 189.8690111893704 767.174244L121.0362311893704 836.007024C113.9431581893704 843.100098 102.3544751893704 842.101073 96.6600358893704 834.108878zM512.9534991893704 1031.0165854L512.9534991893704 935.010341C512.9534991893704 926.518634 519.6469631893704 919.425561 528.1386701893704 919.025951C732.2393531893704 910.534244 895.6797431893704 741.998829 895.6797431893704 535.700293C895.6797431893704 324.007024 723.5478411893704 151.875122 511.9544751893704 151.875122C433.8307671893703 151.875122 361.2016941893704 175.252293 300.4610111893703 215.512976C294.0672551893703 219.708878 285.6754501893704 218.909659 280.2807191893704 213.514927L211.3480361893704 144.682146C204.3548651893704 137.688976 205.3538891893704 126.100293 213.3460851893704 120.405854C297.4639381893703 59.765073 400.6631581893704 24 511.9544751893704 24C794.0789631893704 24 1023.4549951893704 253.575805 1023.4549951893704 535.60039C1023.5548651893704 811.930537 803.5696941893704 1037.8099512 529.4374021893703 1047.00989437C520.4461821893703 1047.300682927 512.9534991893704 1040.00780488 512.9534991893704 1031.0165854z" />
    <glyph glyph-name="info"
      unicode="&#xE027;"
      horiz-adv-x="1024" d="M512.1 1048C229.7 1048 0 818.2 0 536C0 253.7000000000001 229.8 24 512.1 24C794.4 24 1024 253.7000000000001 1024 536C1024 818.3 794.4 1048 512.1 1048zM512 152C300.2 152 128 324.1 128 536C128 747.7 300.2 920 512 920C723.7 920 896 747.8 896 536C896 324.2000000000001 723.7 152 512 152zM592 343L592 583C592 591.8 584.8 599 576 599L432 599C423.2 599 416 591.8 416 583L416 551C416 542.2 423.2 535 432 535L448 535L448 343L416 343C407.2 343 400 335.8 400 327L400 295C400 286.2000000000001 407.2 279 416 279L624 279C632.8 279 640 286.2000000000001 640 295L640 327C640 335.8 632.8 343 624 343L592 343zM592 679L592 759C592 763.4 590.4 767 587.3 770.3C584.2 773.4 580.4 775 576 775L464 775C459.6 775 456 773.4 452.7 770.3C449.6 767.2 448 763.4 448 759L448 679C448 674.6 449.6 671 452.7 667.7C455.8 664.6 459.6 663 464 663L576 663C580.4 663 584 664.6 587.3 667.7C590.5 670.9 592 674.7 592 679L592 679z" />
    <glyph glyph-name="infrastructure"
      unicode="&#xE028;"
      horiz-adv-x="1024" d="M992 344L960 344L960 425C960 451.5 938.5 473 912 473L832 473L832 536L864 536C881.7 536 896 550.3 896 568L896 696C896 713.7 881.7 728 864 728L749.6 728L639.9 837.7C639.9 838.5 640 839.3 640 840L640 1000C640 1026.5 618.5 1048 592 1048L432 1048C405.5 1048 384 1026.5 384 1000L384 840C384 838.8 384.1 837.6 384.1 836.4L275.7 728L160 728C142.3 728 128 713.7 128 696L128 568C128 550.3 142.3 536 160 536L192 536L192 473L112 473C85.5 473 64 451.5 64 425L64 344L32 344C14.3 344 0 329.7000000000001 0 312L0 184C0 166.3 14.3 152 32 152L160 152C177.7 152 192 166.3 192 184L192 312C192 329.7000000000001 177.7 344 160 344L128 344L128 409L320 409L320 344L288 344C270.3 344 256 329.7000000000001 256 312L256 184C256 166.3 270.3 152 288 152L416 152C433.7 152 448 166.3 448 184L448 312C448 329.7000000000001 433.7 344 416 344L384 344L384 425C384 451.5 362.5 473 336 473L256 473L256 536L288 536C305.7 536 320 550.3 320 568L320 681.7L430.3 792C430.9 792 431.4 792 432 792L592 792C593 792 594 792 595 792.1L704 683.1L704 568C704 550.3 718.3 536 736 536L768 536L768 473L688 473C661.5 473 640 451.5 640 425L640 344L608 344C590.3 344 576 329.7000000000001 576 312L576 184C576 166.3 590.3 152 608 152L736 152C753.7 152 768 166.3 768 184L768 312C768 329.7000000000001 753.7 344 736 344L704 344L704 409L896 409L896 344L864 344C846.3 344 832 329.7000000000001 832 312L832 184C832 166.3 846.3 152 864 152L992 152C1009.7 152 1024 166.3 1024 184L1024 312C1024 329.7000000000001 1009.7 344 992 344zM448 984L576 984L576 856L448 856L448 984z" />
    <glyph glyph-name="integration"
      unicode="&#xE029;"
      horiz-adv-x="1024" d="M1024 632C1024 596.7 994.9 568 959.5 568C936.9 568 917 579.8 905.6 597.5C904.6 599.1 905.3 600 903.5 600L901.5 600C898.5 600 896 597.5 896 594.5L896 472C896 436.7000000000001 867.3 408 832 408L710.5 408C707.5 408 705 405.5 705 402.5L704.2 402.8C704.2 400.9 705.2 399.2000000000001 706.7 398.2000000000001C724.4 386.8 736.2 367 736.2 344.3L736.2 344.3C736.2 309 707.6 280 672.2 280C636.8 280 608.2 308.9 608.2 344.3L608.2 344.3C608.2 366.9 620 386.8 637.7 398.2000000000001C639.3 399.2000000000001 640.2 400.9 640.2 402.8L641 402.5C641 405.5 638.5 408 635.5 408L518.5 408C515.2 408 512.5 410.7000000000001 512.5 414L512.5 592.2C512.5 595.4 515.1 598 518.3 598.2C585.9 601.4 640 657.5 640 726C640 795.9 583.7 852.9 514 854C513.2 854 512.5 854.7 512.5 855.5L512.5 855.5C512.5 878.1 506.6 899.3 496.3 917.7C495.7 918.7 496.5 920 497.6 920L698.4 920C701.6 920 704.2 922.8 703.9 926.1C703.7 927.8 702.2 929.3 700.8 930.3C683.2 941.7 671.5 961.5 671.5 984L671.5 984C671.5 1019.3 700.2 1048 735.5 1048L735.5 1048C770.8 1048 799.5 1019.3 799.5 984L799.5 984C799.5 961.4 787.7 941.5 770 930.1C768.1 928.9 767.5 926.6 768.1 924.2C768.7 921.7 771.1 919.9 773.7 919.9L832 919.9C867.3 919.9 896 891.2 896 855.9L896 669.4C896 666.4 898.5 663.9 901.5 663.9L903.5 663.9C905.4 663.9 904.6 664.9 905.6 666.4C917 684.1 936.8 695.9 959.5 695.9C994.9 696 1024 667.3 1024 632zM512 790L512 790C489.3 790 469.4 778.2 458 760.4C457.1 758.9 455.4 758 453.7 758L453.7 758C450.8 758 448.5 760.3 448.5 763.2L448.5 855.5C448.5 890.7 419.7 919.5 384.5 919.5L326.2 919.5C323.1 919.5 320.5 922 320.5 925.2L320.5 925.2C320.5 927.1 320.8 928.2 322.4 929.3C340.6 941.1 351.8 961.6 351.8 983.4C351.8 1019 322.9 1047.9 287.3 1047.9C251.7 1047.9 222.8 1019 222.8 983.4C222.8 961.6 234 941.1 252.2 929.3C253.8 928.3 255.4 927.1 255.4 925.2L255.4 925.2C255.4 922.1 252.9 919.5 249.7 919.5L192.4 919.5C157.2 919.5 128.4 890.7 128.4 855.5L128.4 667.8C128.4 664.6 125.8 662 122.6 662L122.6 662C120.6 662 118.8 663 117.7 664.7C106.4 682.3 86.6 694 64 694L64 694C28.7 694 0 665.3 0 630L0 630C0 594.7 28.7 566 64 566L64 566C86.6 566 106.4 577.7 117.8 595.3C118.9 597 120.7 598 122.7 598L122.7 598C125.9 598 128.5 595.4 128.5 592.2L128.5 407.5C128.5 372.3 157.3 343.5 192.5 343.5L192.5 343.5C194.1 343.5 195.3 345.1 194.9 346.6C192.3 355.5 190.9 364.9 191 374.7000000000001C191.3 427.3 234.2 470.5 286.9 471.1C341.1 471.8 385.2 428 385.2 374C385.2 364.8 383.9 356 381.5 347.5C380.9 345.4 382.4 343.4 384.6 343.4L384.6 343.4C419.8 343.4 448.6 372.2000000000001 448.6 407.4L448.6 688.8C448.6 691.7 450.9 694 453.8 694L453.8 694C455.6 694 457.2 693.1 458.1 691.6C469.5 673.8 489.4 662 512.1 662L512.1 662C547.4 662 576.1 690.7 576.1 726L576.1 726C576 761.3 547.3 790 512 790z" />
    <glyph glyph-name="key"
      unicode="&#xE02A;"
      horiz-adv-x="1024" d="M704 1048C527.3 1048 384 904.7 384 728C384 689.4 390.8 652.4 403.4 618.1L0 223.9L0 24L192 24L192 152L320 152L320 280L448 280L597 426C597 426 596.9 426.1 596.8 426.4C630.3 414.5 666.4 408 704 408C880.7 408 1024 551.3 1024 728C1024 904.7 880.7 1048 704 1048zM802 728C749 728 706 771 706 824C706 877 749 920 802 920C855 920 898 877 898 824C898 771 855 728 802 728z" />
    <glyph glyph-name="locked"
      unicode="&#xE02B;"
      horiz-adv-x="1024" d="M960 600L832 600C832 651.1 832 699.9 832 728C832 904.7 688.7 1048 512 1048C335.3 1048 192 904.7 192 728C192 682.5 192 639.2 192 600L64 600C28.7 600 0 571.3 0 536L0 88C0 52.7 28.7 24 64 24L960 24C995.3 24 1024 52.7 1024 88L1024 536C1024 571.3 995.3 600 960 600zM320 728C320 834 406 920 512 920C618 920 704 834 704 728C704 623.9 704 600 704 600L320 600C320 600 320 622 320 728zM896 232C896 205.5 874.5 184 848 184L368 184C341.5 184 320 205.5 320 232L320 232C320 258.5 341.5 280 368 280L848 280C874.5 280 896 258.5 896 232L896 232zM896 424C896 397.5 874.5 376 848 376L368 376C341.5 376 320 397.5 320 424L320 424C320 450.5 341.5 472 368 472L848 472C874.5 472 896 450.5 896 424L896 424z" />
    <glyph glyph-name="maintenance"
      unicode="&#xE02C;"
      horiz-adv-x="1024" d="M983.1107967388162 945.4L958.6107967388162 962.8C901.1107967388162 1012.1 812.4107967388161 1017 763.1107967388161 959.6L557.0107967388161 720.7L610.3107967388161 676.4L804.7107967388162 889.6C812.4107967388161 898.7 835.0107967388161 895.2 843.9107967388161 887.3C852.8107967388161 879.4 860.8107967388161 861 853.1107967388161 851.9L655.4107967388161 637.2L696.7107967388162 602.2L708.2107967388162 614.8L891.9107967388161 818.4C899.6107967388161 827.5 917.6107967388162 824 926.6107967388162 816.1C935.6107967388162 808.2 943.5107967388162 789.8 935.810796738816 780.7L744.9107967388161 561.3L796.3107967388161 517.8L988.1107967388162 743C1037.4107967388163 800.4 1036.210796738816 903.4 982.6107967388162 945.4L983.1107967388162 945.4zM1001.910796738816 210.6L483.8107967388161 670C502.9107967388161 705.9 513.8107967388161 746.9 513.8107967388161 790.5C513.8107967388161 932.4 398.8107967388161 1047.4 256.9107967388161 1047.4C231.0107967388161 1047.4 205.9107967388161 1043.5 182.3107967388161 1036.4L330.7107967388161 888C352.9107967388161 865.8 352.9107967388161 829.5 330.7107967388161 807.3L240.2107967388161 716.8C218.0107967388161 694.6 181.7107967388161 694.6 159.5107967388161 716.8L11.0107967388161 865.1C3.8107967388161 841.5 0.0107967388161 816.4 0.0107967388161 790.5C0.0107967388161 648.6 115.0107967388161 533.6 256.9107967388161 533.6C300.4107967388161 533.6 341.5107967388161 544.4 377.4107967388161 563.6L836.8107967388161 45.5C857.3107967388161 21.7 892.1107967388161 20.3 914.310796738816 42.5L1004.810796738816 133C1027.0107967388162 155.1 1025.6107967388161 190 1001.910796738816 210.6L1001.910796738816 210.6L1001.910796738816 210.6zM221.9107967388161 246.7000000000001L302.5107967388161 246.6L407.0107967388161 385.5L481.5107967388161 314.3L365.9107967388161 192.8L366.8107967388161 111L224.5107967388161 26.7L147.7107967388161 81.6L221.9107967388161 246.7000000000001L221.9107967388161 246.7000000000001z" />
    <glyph glyph-name="memory"
      unicode="&#xE02D;"
      horiz-adv-x="960" d="M128 408L64 408L64 536L128 536L128 408zM256 408L190 408L190 536L256 536L256 408zM256 680C256 671.2 248.8 664 240 664L144 664C135.2 664 128 671.2 128 680L128 904C128 912.8 135.2 920 144 920L240 920C248.8 920 256 912.8 256 904L256 680zM320 536L384 536L384 375.6C384 357.9 398.3 344 416 344L928 344C945.7 344 960 357.9 960 375.6L960 733.5C922.7 746.7 896 782.2 896 824C896 865.8 922.7 901.4 960 914.5L960 1015.6C960 1033.3 945.7 1047.6 928 1047.6L32 1047.6C14.3 1047.6 0 1033.3 0 1015.6L0 914.5C37.3 901.3 64 865.8 64 824C64 782.2 37.3 746.6 0 733.5L0 375.6C0 357.9 14.3 344 32 344L288 344C305.7 344 320 357.9 320 375.6L320 536zM432 664L336 664C327.2 664 320 671.2 320 680L320 904C320 912.8 327.2 920 336 920L432 920C440.8 920 448 912.8 448 904L448 680C448 671.2 440.8 664 432 664zM512 408L448 408L448 536L512 536L512 408zM640 408L576 408L576 536L640 536L640 408zM640 680C640 671.2 632.8 664 624 664L528 664C519.2 664 512 671.2 512 680L512 904C512 912.8 519.2 920 528 920L624 920C632.8 920 640 912.8 640 904L640 680zM768 408L704 408L704 536L768 536L768 408zM816 664L720 664C711.2 664 704 671.2 704 680L704 904C704 912.8 711.2 920 720 920L816 920C824.8 920 832 912.8 832 904L832 680C832 671.2 824.8 664 816 664zM896 408L832 408L832 536L896 536L896 408z" />
    <glyph glyph-name="messages"
      unicode="&#xE02E;"
      horiz-adv-x="951" d="M672.9 675L683.1 695.6C683.1 695.6 718.8000000000001 775.7 637.5 800.3C562 823 284.2000000000001 906.8 245.2 918.6L252.4000000000001 974.6C257 1009.9 233.2 1047.5 197.8 1047.5C162.4 1047.5 128.9 1018.8 124.4 983.5L0.1 23.5L129.2 23.5L179.3 410L392.5 471.6L388.8 457.7C388.8 457.7 385.2000000000001 372.5 492.8 404.7000000000001C549.6 421.7000000000001 950.9 591.4 950.9 591.4L672.9 675L672.9 675z" />
    <glyph glyph-name="middleware"
      unicode="&#xE02F;"
      horiz-adv-x="1024" d="M512 792C653.4 792 768 677.4 768 536C768 394.6 653.4 280 512 280C370.6 280 256 394.6 256 536C256 677.4 370.6 792 512 792zM7.1 621.2C20.5 701.4 52.6 775.4 98.8 838.3C103.5 844.7 102.8 853.5 97.2 859.1L4.7 951.5C1.7 954.5 0 958.6 0 962.8L0 1032C0 1040.8 7.2 1048 16 1048L82.6 1048C86.8 1048 90.9 1046.3 93.9 1043.3L187.4 949.8C193 944.2 201.8 943.5 208.2 948.2C271.9 995.2 346.9 1027.8 428.3 1041.2C438.1 1042.8 446.9 1035.3 446.9 1025.4L446.9 927.3C446.9 919.7 441.5 913.2 434.1 911.6C285.2 881 167.7 764 136.3 615.2C134.7 607.8 128.2 602.5 120.6 602.5L22.8 602.5C12.9 602.5 5.4 611.4 7.1 621.2zM574.5 928.2L574.5 1026.2C574.5 1036.1 583.3 1043.6 593.1 1042C675 1028.9 750.3 996.4 814.4 949.3C820.8 944.6 829.6 945.3 835.2 950.9L927.5 1043.3C930.5 1046.3 934.6 1048 938.8 1048L1008 1048C1016.8 1048 1024 1040.8 1024 1032L1024 965.4C1024 961.2 1022.3 957.1 1019.3 954.1L925.7 860.5C920.1 854.9 919.4 846.1 924.1 839.7C970.6 776.5 1002.9 702.3 1016.4 621.7C1018 611.9 1010.5 603 1000.6 603L902.8 603C895.2 603 888.7 608.3 887.1 615.7C855.7 765.1 737.3 882.5 587.4 912.5C579.9 914 574.5 920.6 574.5 928.2zM447.5 144.2000000000001L447.5 47.1C447.5 37.2 438.6 29.7 428.9 31.3C348.1 44.6 273.6 76.8 210.2 123.2000000000001C203.8 127.9 195 127.2000000000001 189.4 121.6L96.5 28.7C93.5 25.7 89.4 24 85.2 24L16 24C7.2 24 0 31.2 0 40L0 106.6C0 110.8 1.7 114.9 4.7 117.9L98.7 211.9C104.3 217.5 105 226.3 100.3 232.7000000000001C52.6 297.4 19.7 373.6 6.7 456.4C5.2 466.1 12.6 474.9 22.5 474.9L119.9 474.9C127.6 474.9 134.1 469.5 135.6 461.9C165.2 310.5 283.8 190.9 434.7 159.9C442.2 158.4 447.5 151.8 447.5 144.2000000000001zM1017.7 457C1004.8 374.5 972.1 298.6 924.8 234.2000000000001C920.1 227.8 920.8 219 926.4 213.4L1019.3 120.5C1022.3 117.5 1024 113.4 1024 109.2000000000001L1024 40C1024 31.2 1016.8 24 1008 24L941.4 24C937.2 24 933.1 25.7 930.1 28.7L835.9 122.9C830.3 128.5 821.5 129.2000000000001 815.1 124.5C751 77.3 675.5 44.7 593.5 31.6C583.8 30 574.9 37.5 574.9 47.4L574.9 144.4C574.9 152 580.3 158.6 587.8 160.1C739.7 190.5 859.1 310.5 888.8 462.6C890.3 470.1 896.8 475.6 904.5 475.6L1001.9 475.6C1011.7 475.6 1019.2 466.8 1017.7 457z" />
    <glyph glyph-name="migration"
      unicode="&#xE030;"
      horiz-adv-x="1024" d="M312 472L200 472C195.6 472 192 475.6 192 480L192 528C192 532.4 195.6 536 200 536L312 536C316.4 536 320 532.4 320 528L320 480C320 475.6 316.4 472 312 472zM128 480L128 528C128 532.4 124.4 536 120 536L64 536L64 592C64 596.4 60.4 600 56 600L8 600C3.6 600 0 596.4 0 592L0 536C0 500.7 28.7 472 64 472L120 472C124.4 472 128 475.6 128 480zM64 672L64 848C64 852.4 60.4 856 56 856L8 856C3.6 856 0 852.4 0 848L0 672C0 667.6 3.6 664 8 664L56 664C60.4 664 64 667.6 64 672zM64 928L64 984L120 984C124.4 984 128 987.6 128 992L128 1040C128 1044.4 124.4 1048 120 1048L64 1048C28.7 1048 0 1019.3 0 984L0 928C0 923.6 3.6 920 8 920L56 920C60.4 920 64 923.6 64 928zM384 992L384 1040C384 1044.4 380.4 1048 376 1048L200 1048C195.6 1048 192 1044.4 192 1040L192 992C192 987.6 195.6 984 200 984L376 984C380.4 984 384 987.6 384 992zM576 928L576 984C576 1019.3 547.3 1048 512 1048L456 1048C451.6 1048 448 1044.4 448 1040L448 992C448 987.6 451.6 984 456 984L512 984L512 928C512 923.6 515.6 920 520 920L568 920C572.4 920 576 923.6 576 928zM576 736L576 848C576 852.4 572.4 856 568 856L520 856C515.6 856 512 852.4 512 848L512 736C512 731.6 515.6 728 520 728L568 728C572.4 728 576 731.6 576 736zM960 664L584.9 664C577.8 664 574.2 655.4 579.2 650.3L627.2 602.3C628.7 600.8 630.7 600 632.9 600L960 600L960 600L960 88L960 88L448 88L448 88L448 415.1C448 417.2000000000001 447.2 419.3 445.7 420.8L397.7 468.8C392.7 473.8 384 470.3 384 463.1L384 88C384 52.7 412.7 24 448 24L960 24C995.3 24 1024 52.7 1024 88L1024 600C1024 635.3 995.3 664 960 664zM702.1 435.8L268.6 869.1C243.8 893.9 203.5 893.9 178.7 869.1L178.7 869.1C153.9 844.3 153.9 804 178.7 779.2L612.1 345.7000000000001L519.7 253.6C505.8 239.8 515.6 216 535.2 216L799.4 216C817.4 216 832 230.6 832 248.6L832 512.9C832 532.5 808.3 542.3 794.4 528.4L702.1 435.8z" />
    <glyph glyph-name="monitoring"
      unicode="&#xE031;"
      horiz-adv-x="1088" d="M1088 1048L0 1048L0 280L448 280L448 216L256 216L256 152L832 152L832 216L640 216L640 280L1088 280L1088 1048zM128 920L960 920L960 408L128 408L128 920zM240 472C229.6 472 219.2 475.3 210.4 482.3C189.6 498.7 185.9 528.9 202.3 549.7L378.3 773.7C394.2 793.9 423.1 798 443.9 783.1L633.4 647.8L810.7 840.6C828.6 860.1 859 861.4 878.5 843.4C898 825.5 899.3 795.1 881.3 775.6L675.3 551.6C658.9 533.8 631.8 531 612.1 545L425.4 678.3L277.7 490.3C268.3 478.3 254.2 472 240 472z" />
    <glyph glyph-name="network"
      unicode="&#xE032;"
      horiz-adv-x="1088" d="M1024 1048L64 1048L64 856L1024 856L1024 1048zM960.5 920L704 920L704 984L960.5 984L960.5 920zM1024 472L960 472L960 600C960 635.3 931.3 664 896 664L574 664L574 792L510 792L510 664L192 664C156.7 664 128 635.3 128 600L128 472L64 472C28.7 472 0 443.3 0 408L0 216C0 180.7000000000001 28.7 152 64 152L256 152C291.3 152 320 180.7000000000001 320 216L320 408C320 443.3 291.3 472 256 472L192 472L192 600L510 600L510 472L447 472C411.7 472 383 443.3 383 408L383 216C383 180.7000000000001 411.7 152 447 152L639 152C674.3 152 703 180.7000000000001 703 216L703 408C703 443.3 674.3 472 639 472L574 472L574 600L896 600L896 472L832 472C796.7 472 768 443.3 768 408L768 216C768 180.7000000000001 796.7 152 832 152L1024 152C1059.3 152 1088 180.7000000000001 1088 216L1088 408C1088 443.3 1059.3 472 1024 472z" />
    <glyph glyph-name="off"
      unicode="&#xE033;"
      horiz-adv-x="1024" d="M512 1048C229.2 1048 0 818.8 0 536C0 253.2000000000001 229.2 24 512 24C794.8 24 1024 253.2000000000001 1024 536C1024 818.8 794.8 1048 512 1048zM512 152C299.9 152 128 323.9 128 536C128 748.1 299.9 920 512 920C724.1 920 896 748.1 896 536C896 323.9 724.1 152 512 152zM512 760C477 760 448 731.3 448 696L448 376C448 340.7000000000001 476.7 312 512 312C547.3 312 576 340.7000000000001 576 376L576 696C576 731.3 547 760 512 760z" />
    <glyph glyph-name="ok"
      unicode="&#xE034;"
      horiz-adv-x="1024" d="M512.1 24C229.7 24 0 253.7000000000001 0 536C0 818.3 229.7 1048 512.1 1048C794.3 1048 1024 818.3 1024 536C1024 253.7000000000001 794.3 24 512.1 24L512.1 24zM512.1 920.1C300.3 920.1 128.1 747.8 128.1 536.1C128.1 324.2000000000001 300.3 152.1 512.1 152.1C723.8 152.1 896.1 324.3 896.1 536.1C896 747.8 723.8 920.1 512.1 920.1L512.1 920.1zM668.3 686.6L465.1 483.4L352.2 596.3C339.7 608.8 319.5 608.8 307 596.3L261.8 551.1C249.3 538.6 249.3 518.4 261.8 505.9L442.4 325.3C454.9 312.8 475.1 312.8 487.6 325.3L758.6 596.3C771.1 608.8 771.1 629 758.6 641.5L713.4 686.7C701 699.1 680.8 699.1 668.3 686.6z" />
    <glyph glyph-name="on"
      unicode="&#xE035;"
      horiz-adv-x="1024" d="M512.001828937516 1048C477.0018289375161 1048 448.0018289375161 1019.3 448.0018289375161 984L448.0018289375161 664C448.0018289375161 628.7 476.701828937516 600 512.001828937516 600C547.301828937516 600 576.001828937516 628.7 576.001828937516 664L576.001828937516 984C576.001828937516 1019.3 547.001828937516 1048 512.001828937516 1048zM727.6018289375161 855.6L727.6018289375161 855.6C705.801828937516 829.8 707.801828937516 791.4 732.301828937516 768.1C734.301828937516 766.2 736.301828937516 764.3 738.2018289375161 762.3C767.6018289375161 732.9 790.7018289375161 698.6 806.801828937516 660.5C823.6018289375161 621.2 832.001828937516 579.3 832.001828937516 536C832.001828937516 492.7 823.6018289375161 450.8 806.901828937516 411.5C790.801828937516 373.4 767.7018289375161 339.2000000000001 738.301828937516 309.7000000000001C708.901828937516 280.2000000000001 674.6018289375161 257.2000000000001 636.501828937516 241.1C597.2018289375161 224.4 555.301828937516 216 512.001828937516 216C468.701828937516 216 426.801828937516 224.4 387.5018289375161 241.1C349.4018289375161 257.2000000000001 315.201828937516 280.3 285.701828937516 309.7000000000001C256.201828937516 339.1 233.201828937516 373.4 217.101828937516 411.5C200.401828937516 450.8 192.001828937516 492.7 192.001828937516 536C192.001828937516 579.3 200.401828937516 621.2 217.101828937516 660.5C233.201828937516 698.6 256.301828937516 732.8 285.701828937516 762.3C287.701828937516 764.3 289.601828937516 766.2 291.601828937516 768.1C316.101828937516 791.4 318.101828937516 829.8 296.301828937516 855.6L296.301828937516 855.6C272.5018289375161 883.8 229.8018289375161 886 203.101828937516 860.5C117.701828937516 779.2 64.401828937516 664.5 63.999995209926 537.3C63.301828937516 289.1 263.101828937516 88.4 511.301828937516 87.999403C759.001828937516 87.6 960.001828937516 288.3 960.001828937516 536C960.001828937516 663.9 906.401828937516 779.2 820.501828937516 860.9C793.901828937516 886.2 751.301828937516 883.7 727.6018289375161 855.6z" />
    <glyph glyph-name="optimize"
      unicode="&#xE036;"
      horiz-adv-x="1024" d="M245.1875 867.3L133.1875 979.3C130.1875 982.3 126.0875 984 121.8875 984L80.4875 984C71.6875 984 64.4875 976.8 64.4875 968L64.4875 926.6C64.4875 922.4 66.1875 918.3 69.1875 915.3L181.1875 803.3C187.3875 797.1 197.5875 797.1 203.7875 803.3L245.1875 844.7C251.3875 850.9 251.3875 861.1 245.1875 867.3zM336.4875 1048L368.4875 1048C377.2875 1048 384.4875 1040.8 384.4875 1032L384.4875 936C384.4875 927.2 377.2875 920 368.4875 920L336.4875 920C327.6875 920 320.4875 927.2 320.4875 936L320.4875 1032C320.4875 1040.8 327.6875 1048 336.4875 1048zM592.4875 728L688.4875 728C697.2874999999999 728 704.4875 720.8 704.4875 712L704.4875 680C704.4875 671.2 697.2874999999999 664 688.4875 664L592.4875 664C583.6875 664 576.4875 671.2 576.4875 680L576.4875 712C576.4875 720.8 583.6875 728 592.4875 728zM640.4875 926.6L640.4875 968C640.4875 976.8 633.2874999999999 984 624.4875 984L583.0875 984C578.8874999999999 984 574.7874999999999 982.3 571.7874999999999 979.3L459.7875 867.3C453.5875 861.1 453.5875 850.9 459.7875 844.7L501.1874999999999 803.3C507.3874999999999 797.1 517.5875 797.1 523.7874999999999 803.3L635.7874999999999 915.3C638.7874999999999 918.3 640.4875 922.4 640.4875 926.6zM16.4875 728L112.4875 728C121.2875 728 128.4875 720.8 128.4875 712L128.4875 680C128.4875 671.2 121.2875 664 112.4875 664L16.4875 664C7.6875 664 0.4875 671.2 0.4875 680L0.4875 712C0.4875 720.8 7.6875 728 16.4875 728zM336.4875 472L368.4875 472C377.2875 472 384.4875 464.8 384.4875 456L384.4875 360C384.4875 351.2000000000001 377.2875 344 368.4875 344L336.4875 344C327.6875 344 320.4875 351.2000000000001 320.4875 360L320.4875 456C320.4875 464.8 327.6875 472 336.4875 472zM64.4875 465.4L64.4875 424C64.4875 415.2000000000001 71.6875 408 80.4875 408L121.8875 408C126.0875 408 130.1875 409.7000000000001 133.1875 412.7000000000001L245.1875 524.7C251.3875 530.9 251.3875 541.1 245.1875 547.3L203.7875 588.7C197.5875 594.9 187.3875 594.9 181.1875 588.7L69.1875 476.7C66.1875 473.7 64.4875 469.6 64.4875 465.4zM1009.4875 167L374.3875 802.1C355.6875 820.8 325.1875 820.8 306.4875 802.1L246.3875 742C227.6875 723.3 227.6875 692.8 246.3875 674.1L881.4875 39C900.1875 20.3 930.6875 20.3 949.3875 39L1009.4875 99.1C1028.1875 117.8 1028.1875 148.3 1009.4875 167zM480.4875 504L288.4875 696L352.4875 760L544.4875 568L480.4875 504z" />
    <glyph glyph-name="orders"
      unicode="&#xE037;"
      horiz-adv-x="1024" d="M832 920C832.1 919.9 832 152.2000000000001 832 152.2000000000001C831.9 152.1 831.8 152 831.8 152L192 152L192 919.7C192.1 919.8 192.1 919.9 192.2 919.9L64 920L64 152C64 81.7000000000001 121.6 24 192 24L832 24C902.4 24 960 81.7000000000001 960 152L960 920L832 920zM640 920L640 985C640 1020.3 611.3 1048 576 1048L450 1048C414.7 1048 384 1020.3 384 985L384 920L256 920L256 792L768 792L768 920L640 920zM576 920L448 920L448 984L576 984L576 920zM668.3 686.6L465.1 483.4L352.2 596.3C339.7 608.8 319.5 608.8 307 596.3L261.8 551.1C249.3 538.6 249.3 518.4 261.8 505.9L442.4 325.3C454.9 312.8 475.1 312.8 487.6 325.3L758.6 596.3C771.1 608.8 771.1 629 758.6 641.5L713.4 686.7C701 699.1 680.8 699.1 668.3 686.6z" />
    <glyph glyph-name="paused"
      unicode="&#xE038;"
      horiz-adv-x="1024" d="M512.1 24C229.7 24 0 253.7000000000001 0 536C0 818.3 229.7 1048 512.1 1048C794.3 1048 1024 818.3 1024 536C1024 253.7000000000001 794.3 24 512.1 24L512.1 24zM512.1 920.1C300.3 920.1 128.1 747.8 128.1 536.1C128.1 324.2000000000001 300.3 152.1 512.1 152.1C723.8 152.1 896.1 324.3 896.1 536.1C896 747.8 723.8 920.1 512.1 920.1L512.1 920.1zM384 760C349 760 320 731.3 320 696L320 376C320 340.7000000000001 348.7 312 384 312C419.3 312 448 340.7000000000001 448 376L448 696C448 731.3 419 760 384 760zM640 760C605 760 576 731.3 576 696L576 376C576 340.7000000000001 604.7 312 640 312C675.3 312 704 340.7000000000001 704 376L704 696C704 731.3 675 760 640 760z" />
    <glyph glyph-name="pending"
      unicode="&#xE039;"
      horiz-adv-x="1024" d="M512.1 1048C229.7 1048 0 818.3 0 536C0 253.7000000000001 229.7 24 512.1 24C794.3 24 1024 253.7000000000001 1024 536C1024 818.3 794.3 1048 512.1 1048zM512.1 152.1C300.3 152.1 128.1 324.2000000000001 128.1 536.1C128.1 747.8 300.3 920.1 512.1 920.1C723.8 920.1 896 747.8 896.1 536.1C896.1 324.3 723.8 152.1 512.1 152.1zM704 760L704 776C704 784.8 696.8 792 688 792L336 792C327.2 792 320 784.8 320 776L320 760C320 601 480 599 480 536C480 473 320 473 320 312L320 296C320 287.2000000000001 327.2 280 336 280L688 280C696.8 280 704 287.2000000000001 704 296L704 312C704 472 544 471 544 536C544 601 704 600 704 760zM603.9 344L420.3 344C417.3 344 418.2 353 419.4 361.2000000000001C426.8 413.5 480.1 430.6 495.2 435.7000000000001C512.3 441.4 512.3 441.4 528.9 435.7000000000001C544 430.4 597.6 412.6 604.8 361C605.9 352.8 606.9 344 603.9 344z" />
    <glyph glyph-name="pf-icon-ansible-tower"
      unicode="&#xE03A;"
      horiz-adv-x="1024" d="M1024 536C1024 253.2571430000001 794.742857 24 512 24C229.257143 24 0 253.2571430000001 0 536C0 818.742857 229.257143 1048 512 1048C794.742857 1048 1024 818.742857 1024 536zM755.885714 332.8L551.771429 823.314286C546.057143 837.485714 534.4 844.8 520.228571 844.8C506.057143 844.8 493.485714 837.257143 487.771429 823.314286L264.228571 285.2571430000001L340.571429 285.2571430000001L429.028571 506.9714289999999L693.485714 293.714286C704 285.0285710000001 711.542857 281.1428570000001 721.828571 281.1428570000001C741.714286 281.1428570000001 759.085714 296.228571 759.085714 317.714286C759.314286 321.3714290000001 758.4 326.857143 755.885714 332.8zM520.685714 735.314286L653.257143 408L453.257143 565.4857139999999L520.685714 735.314286z" />
    <glyph glyph-name="pf-icon-openshift"
      unicode="&#xE03B;"
      horiz-adv-x="1024" d="M959.470565 545.9659369999999C956.231635 610.2462290000001 938.292946 672.284185 910.637472 729.8374699999999L1070.092455 788.1382C1057.635035 813.800487 1043.433575 838.217032 1026.740635 861.636983L952.245258 834.978102C903.163019 903.493917 835.6437980000001 962.292944 753.4248200000001 999.9143552C498.047691 1119.5055961 192.342581 1007.8871046 73.249637 752.509976C34.3824842 670.041849 19.6827275 581.843309 27.6554769 495.887105L99.161073 521.549392C101.403409 493.644769 105.88808 466.7367400000001 113.362533 440.077859L284.0292 502.364964C278.5479340000001 530.518735 276.3055990000001 560.6656929999999 278.5479340000001 589.56691L207.540635 564.153771C211.0287130000001 602.0243310000001 219.998056 639.8948909999999 237.438445 675.5231140000001C312.182971 844.196594 509.508518 916.449635 676.6871070000001 838.46618C713.5610730000001 820.776642 745.701219 797.356691 773.605842 769.452068L848.101219 796.360097C868.531389 775.43163 884.975185 751.513382 899.176645 726.3493920000001L739.721657 667.7995129999999C771.114358 610.744526 786.56156 546.215085 780.831146 480.6890509999999L872.517764 513.825791L866.7873500000001 511.583455C863.299272 472.716302 854.329929 433.6 836.640392 396.7260340000001C758.656937 230.544039 560.085647 158.290998 393.903652 236.025304C357.0296860000001 253.714842 323.643798 277.134793 296.9849170000001 305.039416L211.277861 274.145012C167.1785910000001 321.981509 136.284187 380.531387 124.075915 443.565937L-46.092455 381.278832C-30.6452531 318.991727 -3.7372239 260.9401460000001 34.1333358 208.36983L119.591243 239.264234C168.673482 170.748418 236.1927030000001 111.949392 318.4116810000001 74.327981C573.78881 -45.0141100000001 879.244771 66.355231 998.586865 321.981509C1037.454015 404.449635 1050.908035 492.648175 1044.181025 577.358637L959.470565 545.9659369999999z" />
    <glyph glyph-name="pf-icon-openstack"
      unicode="&#xE03C;"
      horiz-adv-x="1024" d="M0 728L0 952C0 1005 43 1048 96 1048L928 1048C981 1048 1024 1005 1024 952L1024 728L768 728L768 744C768 770.5 746.5 792 720 792L304 792C277.5 792 256 770.5 256 744L256 728L0 728zM1024 664L768 664L768 408L1024 408L1024 664zM0 408L256 408L256 664L0 664L0 408zM768 344L768 328C768 301.5 746.5 280 720 280L304 280C277.5 280 256 301.5 256 328L256 344L0 344L0 120C0 67 43 24 96 24L928 24C981 24 1024 67 1024 120L1024 344L768 344z" />
    <glyph glyph-name="pficon-dragdrop"
      unicode="&#xE03D;"
      horiz-adv-x="1024" d="M479.5036594997877 440C479.5036594997877 404.7000000000001 450.8036594997877 376 415.5036594997877 376C380.2036594997877 376 351.5036594997877 404.7000000000001 351.5036594997877 440C351.5036594997877 475.3 380.2036594997877 504 415.5036594997877 504C450.8036594997877 504 479.5036594997877 475.4 479.5036594997877 440zM671.5036594997878 632C671.5036594997878 596.7 642.8036594997877 568 607.5036594997878 568C572.2036594997878 568 543.5036594997878 596.7 543.5036594997878 632C543.5036594997878 667.3 572.2036594997878 696 607.5036594997878 696C642.8036594997877 696 671.5036594997878 667.3 671.5036594997878 632zM671.5036594997878 440C671.5036594997878 404.7000000000001 642.8036594997877 376 607.5036594997878 376C572.2036594997878 376 543.5036594997878 404.7000000000001 543.5036594997878 440C543.5036594997878 475.3 572.2036594997878 504 607.5036594997878 504C642.9036594997878 503.9 671.5036594997878 475.3 671.5036594997878 440zM479.5036594997877 632C479.5036594997877 596.7 450.8036594997877 568 415.5036594997877 568C380.2036594997877 568 351.5036594997877 596.7 351.5036594997877 632C351.5036594997877 667.3 380.2036594997877 696 415.5036594997877 696C450.8036594997877 696 479.5036594997877 667.3 479.5036594997877 632zM486.3505714997877 35.6C492.7523714997877 27.9 501.8549304997877 24 510.8574614997877 24C519.9600214997878 24 528.9625524997878 27.8 535.3643524997877 35.5L695.1092664997877 226.1C713.8145254997878 246.8 699.2104194997878 280 671.4026014997878 280L351.6126884997878 280C323.9048974997877 280 309.2007634997878 246.9 327.8059944997878 226.2000000000001L486.3505714997877 35.6zM327.8257704997877 845.798462C309.2263414997878 825.099054 323.8258934997877 792 351.6250404997877 792L671.4152294997878 792C699.2143764997878 792 713.8139284997877 825.199051 695.1145024997878 845.898459L535.4194014997878 1036.4930104C529.2195914997877 1043.99279603 520.4198614997878 1047.792687402 511.5201344997877 1047.99268168446C502.2204204997877 1048.192675967 492.9207054997877 1044.29278746 486.4209054997877 1036.3930133L327.8257704997877 845.798462zM1011.9036594997878 510.806079C1019.6036594997878 517.206212 1023.5036594997878 526.306401 1023.5036594997878 535.306588C1023.5036594997878 544.406776 1019.7036594997878 553.406963 1012.0036594997878 559.807096L821.4036594997878 719.610411C800.7036594997878 738.310799 767.5036594997878 723.7104959999999 767.5036594997878 695.909919L767.5036594997878 376.1032850000001C767.5036594997878 348.40271 800.6036594997878 333.702405 821.3036594997877 352.302791L1011.9036594997878 510.806079zM202.6978784997877 352.311526C223.3972864997877 333.712097 256.4963404997877 348.311649 256.4963404997877 376.1107960000001L256.4963404997877 695.900985C256.4963404997877 723.7001319999999 223.2972894997877 738.2996840000001 202.5978814997877 719.600257L12.0033300997877 559.9051569999999C4.5035444697877 553.7053470000001 0.7036530997877 544.905617 0.5036588157877 536.00589C0.3036645327877 526.706176 4.2035530397877 517.406461 12.1033271997877 510.90666L202.6978784997877 352.311526z" />
    <glyph glyph-name="pficon-history"
      unicode="&#xE03E;"
      horiz-adv-x="1024" d="M1024 537.3C1024 251 794.9 24 512.3 24C383.7 24 266 71.7000000000001 176 150.4C162.1 162.6 161.4 184 174.4 197.1L219.6 242.4C231.4 254.2000000000001 250.3 254.9 263 244.1C330.1 186.8 417.1 152 512.1 152C723.8 151.9 896 324.2000000000001 896 536C896 747.8 723.6 920 512 920C406.2 920 310.5 876.9 241 807.5L329.8 718.7C350 698.5 335.7 664 307.2 664L32.5 664C14.8 663.9 0 678.3 0 696L0 970.7C0 999.2 35 1013.5 55.1 993.3L150.6 897.8C242.4 989.6 368.7 1048 508.2 1048C789 1048 1024 821.8 1024 537.3z" />
    <glyph glyph-name="pficon-network-range"
      unicode="&#xE03F;"
      horiz-adv-x="958" d="M511.8350904205624 755.6L438.3350904205625 755.6L438.3350904205625 609.8L511.8350904205624 609.8C552.0350904205625 609.8 584.7350904205625 642.5 584.7350904205625 682.7C584.7350904205625 722.9 552.0350904205625 755.6 511.8350904205624 755.6L511.8350904205624 755.6zM736.2350904205625 439C780.3350904205624 501.9 806.2350904205625 578.4 806.2350904205625 661C806.2350904205625 874.8 617.0350904205625 1048 403.3350904205625 1048C189.6350904205624 1048 0.3350904205624 874.8 0.3350904205624 661.1C0.3350904205624 578.5 26.2350904205624 501.9 70.3350904205624 439.1L70.7350904205624 438.6C71.4350904205625 437.6 72.1350904205624 436.6 72.9350904205625 435.6L356.7350904205624 59.9C380.3350904205625 19.4000000000001 403.9350904205624 24.4 403.9350904205624 24.4C430.2350904205624 24.4 451.0350904205624 60.1 451.0350904205624 60.1L733.6350904205625 435.6C734.5350904205625 436.6 735.3350904205624 437.8 736.2350904205625 439L736.2350904205625 439zM292.0350904205625 388.5L220.0350904205624 388.5L220.0350904205624 828.8L292.0350904205625 828.8L292.0350904205625 388.5L292.0350904205625 388.5zM521.0350904205625 536.6L438.4350904205624 536.6L438.4350904205624 390.8L366.4350904205624 390.8L366.4350904205624 828.8L521.0350904205625 828.8C601.6350904205625 828.8 662.5350904205625 763.3 662.5350904205625 682.7C662.5350904205625 602.1 601.5350904205625 536.6 521.0350904205625 536.6L521.0350904205625 536.6zM957.3350904205624 637L957.3350904205624 637C957.9350904205623 747.5 920.0350904205624 835.5 864.5350904205625 901.5C853.9350904205625 914.2 843.0350904205625 926.3 832.0350904205625 938.5C822.1350904205625 949.4 813.8350904205624 956.6 806.8350904205624 961.4C801.9350904205625 967.3 794.6350904205625 971.1 786.3350904205624 971.1C771.7350904205625 971.1 759.8350904205624 959.2 759.8350904205624 944.6C759.8350904205624 937.8 762.4350904205625 931.6 766.6350904205625 926.9C768.2350904205625 924.3 770.2350904205625 921.8 772.2350904205625 919.5C775.4350904205625 915.9 778.8350904205624 912.6 781.9350904205625 909.9C781.9350904205625 909.9 806.9350904205625 882 823.3350904205624 859.4C859.8350904205624 801.4 879.4350904205625 734.1 879.4350904205625 661.1C879.4350904205625 578.5 865.5350904205625 519.4 821.4350904205625 456.5C820.6350904205625 455.3 819.7350904205625 454.1 818.8350904205624 452.9L524.2350904205625 60C524.2350904205625 60 521.5350904205625 55.3 516.7350904205625 49.3C537.8350904205624 20.0999999999999 573.1350904205625 24.2 573.1350904205625 24.2C613.6350904205625 24.00291 633.9350904205625 59.9 633.9350904205625 59.9L912.5350904205624 438.4C913.4350904205623 439.6 914.2350904205626 440.8 915.1350904205626 442C965.2350904205626 518.6 957.0350904205624 579.1 957.3350904205624 637L957.3350904205624 637z" />
    <glyph glyph-name="pficon-on-running"
      unicode="&#xE040;"
      horiz-adv-x="1024" d="M716.3 565.1C710 552.8 575.5 368.5 493.7 265.6C478 247.8 463.4 253.8 457.3 257.7000000000001C443.9 266.6 443.1 276.3 451 303C458.9 329.7000000000001 494.1 472 494.1 472L341.3 472C328.2 471.8 312.2 471.8 307.1 484.2C302.2 496 306.9 506.8 314.4 517.2C370 594.5 508.1 783.1 508.1 783.1C508.1 783.1 527.2 808.3 541.4 809.7C554.4 811 562.9 807.5 567 798.4C572.1 787.8 570.4 775.1 566.8 761.1C563.5 748 526.4 600 526.4 600L695.3 600C702.6 600 711.5 598.6 717.4 591C723.3 583.4 719.5 571 716.3 565.1zM512.1 1048C229.7 1048 0 818.3 0 536C0 253.7000000000001 229.7 24 512.1 24C794.3 24 1024 253.7000000000001 1024 536C1024 818.3 794.3 1048 512.1 1048zM512.1 152.1C300.3 152.1 128.1 324.2000000000001 128.1 536.1C128.1 747.8 300.3 920.1 512.1 920.1C723.8 920.1 896 747.8 896.1 536.1C896.1 324.3 723.8 152.1 512.1 152.1z" />
    </font>
</defs>
</svg>
