<?xml version="1.0" standalone="no"?>
<!DOCTYPE svg PUBLIC "-//W3C//DTD SVG 1.1//EN" "http://www.w3.org/Graphics/SVG/1.1/DTD/svg11.dtd" >
<svg xmlns="http://www.w3.org/2000/svg">
<defs>
  <font id="pficon" horiz-adv-x="1306">
    <font-face font-family="pficon"
      units-per-em="1024" ascent="1024"
      descent="0" />
    <missing-glyph horiz-adv-x="0" />
    <glyph glyph-name="add-circle-o"
      unicode="&#xE001;"
      horiz-adv-x="1024" d="M576 720.9999C576 729.2999 569.3 735.9999 561 735.9999L463 735.9999C454.7 735.9999 448 729.2999 448 720.9999L448 575.9999L303 575.9999C294.7 575.9999 288 569.2999 288 560.9999L288 462.9999C288 454.6999 294.7 447.9999000000001 303 447.9999000000001L448 447.9999000000001L448 303.1009C448 294.7999 454.7 287.9999000000001 463 287.9999000000001L561 287.9999000000001C569.3 287.9999000000001 576 294.7999 576 303.1009L576 447.9999000000001L721 447.9999000000001C729.3 447.9999000000001 736 454.6009 736 462.8999L736 560.8999C736 569.1999000000001 729.3 575.9999 721 575.9999L576 575.9999L576 720.9999zM512 127.9999C300.2 127.9999 128 300.1009 128 511.9999C128 723.6999000000001 300.2 895.9999 512 895.9999C723.7 895.9999 896 723.7999 896 511.9999C896 300.1999 723.7 127.9999 512 127.9999L512 127.9999zM512.1 1023.9999C229.7 1023.9999 0 794.1999000000001 0 511.9999C0 229.6999 229.8 -0.0001 512.1 -0.0001C794.4 -0.0001 1024 229.6999 1024 511.9999C1024 794.2999 794.4 1023.9999 512.1 1023.9999L512.1 1023.9999z" />
    <glyph glyph-name="ansible-tower"
      unicode="&#xE002;"
      horiz-adv-x="1024" d="M520.6855 711.3145L653.2565 384.0005L453.2575 541.4855L520.6855 711.3145zM755.8855 308.7995L551.7715 799.3145C546.0565 813.4855 534.4005 820.7995 520.2285 820.7995C506.0575 820.7995 493.4855 813.2574999999999 487.7715 799.3145L264.2285 261.2565L340.5715 261.2565L429.0285 482.9715L693.4855 269.7135C703.9995 261.0285 711.5425 257.1425000000001 721.8285 257.1425000000001C741.7135 257.1425000000001 759.0855 272.2285000000001 759.0855 293.7135C759.3145 297.3715 758.4005 302.8575 755.8855 308.7995L755.8855 308.7995zM1023.9995 512.0005C1023.9995 229.2565 794.7435 0.0005 511.9995 0.0005C229.2575 0.0005 -0.0005 229.2565 -0.0005 512.0005C-0.0005 794.7425000000001 229.2575 1024.0005 511.9995 1024.0005C794.7435 1024.0005 1023.9995 794.7425000000001 1023.9995 512.0005L1023.9995 512.0005z" />
    <glyph glyph-name="applications"
      unicode="&#xE003;"
      horiz-adv-x="1024" d="M960 64L256 64L256 256L760.5 256C800.8 256 832 287.5 832 327.7000000000001L832 448L960 448L960 64zM64 320L768 320L768 768L64 768L64 320zM640 832L704 832L704 896L640 896L640 832zM832 576L896 576L896 640L832 640L832 576zM951.9 704L832 704L832 889C832 929.1 800.7 960 760.5 960L71.1 960C30.9 959.9 0 929.1 0 889L0 327.1C0 286.9 30.9 256 71.1 256L192 256L192 71.8C192 31.5 223.4 0 263.7 0L952 0C992.3 0 1024 31.5 1024 71.8L1024 633C1023.9 673.1 992.1 704 951.9 704L951.9 704z" />
    <glyph glyph-name="arrow"
      unicode="&#xE004;"
      horiz-adv-x="1070" d="M832 256L832 128L128 128L128 767.6L224 767.6L352 896L36.6 896C14.6 896 0 881.3 0 859.4L0 36.6C0 14.6 14.6 0 36.6 0L930.7 0C945.3 0 960 14.6 960 36.6L960 384L832 256zM638.3 804.6L704.1 804.6L704.1 1024L1070 694.8L704.2 365.7000000000001L704.2 585.1L674.9 585.1C448.1 570.5 353 373 411.6 248.7000000000001C353.1 292.6 279.9 314.5 265.3 453.5C243.3 672.9 418.9 804.6 638.3 804.6L638.3 804.6z" />
    <glyph glyph-name="asleep"
      unicode="&#xE005;"
      horiz-adv-x="1024" d="M512 896C300.2 896 128 723.7 128 512C128 300.1 300.2 128 512 128C723.7 128 896 300.2000000000001 896 512C896 723.8 723.7 896 512 896M512.1 0C229.8 0 0 229.7000000000001 0 512C0 794.2 229.7 1024 512.1 1024C794.4 1024 1024 794.3 1024 512C1024 229.7000000000001 794.4 0 512.1 0M744.1 404.8C723.2 359.7000000000001 691.8 323.7000000000001 649.7 296.7000000000001C607.6 269.7000000000001 561.7 256.2000000000001 512 256.2000000000001C477.4 256.2000000000001 444.2 263 412.8 276.6C381.4 290.2000000000001 354 308.3 331 331.3C308 354.3 289.9 381.4 276.3 412.9C262.7 444.4 256 477.5 256 512.1C256 546.1 262.4 578.6 275.2 609.6C288 640.6 305.3 667.4 327.2 690.1C349.1 712.7 375.3 731 405.7 744.9C436.1 758.8 468.4 766.4 502.3 767.8C512 768.2 523.3 761.7 527.1 752.6C531.1 743.5 531.7 733.2 524.3 726.3C505.1 709 488.3 688.8 478.2 665.8C468.1 642.8 460.8 620.8 460.8 595.3C460.8 562.4 466.7 534.4 482.9 506.6C499.1 478.9 521.1 456.8 548.9 440.6C576.6 424.4 607 416.3 639.9 416.3C666.1 416.3 691.4 421.9 715.8 433.3C724.9 437.3 732.9 435.9 739.8 429C742.8 426 744.8 422.1 745.6 417.7000000000001C746.4 413.2000000000001 745.9 409 744.1 404.8" />
    <glyph glyph-name="attention-bell"
      unicode="&#xE006;"
      horiz-adv-x="896" d="M475.001 832.001L421.001 832.001C400.566 832.001 384.001 815.437 384.001 795.001L384.001 485.001C384.001 464.566 400.566 448.001 421.001 448.001L475.001 448.001C495.436 448.001 512.001 464.566 512.001 485.001L512.001 795.001C512.001 815.437 495.436 832.001 475.001 832.001L475.001 832.001zM448.001 384.001C412.655 384.001 384.001 355.347 384.001 320.001C384.001 284.654 412.655 256 448.001 256C483.348 256 512.001 284.654 512.001 320.001C512.001 355.347 483.348 384.001 448.001 384.001L448.001 384.001zM448 1024C465.334 1024 480.334 1017.667 493 1005C505.667 992.333 512 977.333 512 960L512 918L514.235 917.554C587.892 902.611 648.48 866.76 696 810C744 752.6669999999999 768 685.3330000000001 768 608C768 524 780 455.333 804 402C818.666 371.333 841.333 340 872 308C874.666 304 876.666 301.334 878 300C890 286.6670000000001 896 271.6670000000001 896 255C896 238.334 890 223.667 878 211C866 198.334 850.666 192 832 192L63.302 192C44.951 192.159 29.85 198.492 18 211C6 223.667 0 238.334 0 255C0 271.6670000000001 6 286.6670000000001 18 300L24 308L25.055 309.1040000000001C55.187 340.721 77.502 371.6860000000001 92 402C116 455.3339999999999 128 524 128 608C128 685.3330000000001 152 752.6669999999999 200 810C248 867.333 309.3330000000001 903.333 384 918L384 960L384.003 960.692C384.17 977.733 390.502 992.502 403 1005C415.667 1017.667 430.667 1024 448 1024L448 1024zM576 128L575.996 126.922C575.745 91.395 563.08 61.42 538 37C512.667 12.3339999999999 482.667 0 448 0C413.3330000000001 0 383.3330000000001 12.3339999999999 358 37C332.666 61.667 320 92 320 128L576 128z" />
    <glyph glyph-name="automation"
      unicode="&#xE007;"
      horiz-adv-x="1024" d="M768 768.0001L768 766.6001C765.2 767.2001 762.2 767.4001000000001 759.2 767.4001000000001C704.8 768.2001 652.6 752.4001000000001 607.8 721.6001C584.2 705.2001 578.2 673.0001 594.6 649.2001C604.6 634.6001 621 626.8000999999999 637.4 626.8000999999999C647.6 626.8000999999999 657.8 629.8000999999999 666.8 636.0001C693.6 654.4001000000001 725 664.0001 757.6 663.4001000000001C761.2 663.4001000000001 764.6 663.6001 768 664.2001L768 663.8000999999999C851.8 663.8000999999999 920 595.6001 920 511.9001C920 450.9001 883.8 398.1001 832 374.0001L832 263.8001000000001C942.4 292.2001 1024 392.4001 1024 511.7001C1024 653.4001000000001 909.4 768.0001 768 768.0001M746.6 572.0001C731.4 578.2001 718.4 575.6001 707.8 564.2001L635.2 492.2001L619.2 476.2001L367.6 731.1001C329 763.1001 304.6 768.0001 256 768.0001C114.6 768.0001 0 652.5001 0 511.2001C0 369.9001 114.6 256.0001 256 256.0001C304 256.0001 344.2 273.1001 380 301.1001L379.4 301.5001L384.8 305.1001C408.2 321.7001 413.6 354.3001000000001 397 377.7001C380.4 401.1001 347.8 406.5001 324.4 389.9001C301.2 373.3001000000001 274.2 363.7001 245.8 361.5001C163.2 362.6001 104 428.2001 104 511.2001C104 593.6001 165.8 660.7001 247.6 663.1001L248.2 663.1001L252.2 663.1001C253 662.9001000000001 253.8 663.1001 254.4 662.9001000000001L254.8 662.9001000000001C269.4 663.1001 292.6 657.7001 312.6 641.7001L546.6 403.4001L458.8 315.6001C447.4 304.4001 444.8 291.8001000000001 451 277.2001C457.2 262.4001 468.2 256.0001 483.8 256.0001L732.6 256.0001C742.2 256.0001 750.6 258.6001 757.6 265.6001C764.6 272.6001 768.2 281.0001 768.2 290.6001L768.2 539.2001C768.2 554.8000999999999 761 565.8000999999999 746.6 572.0001" />
    <glyph glyph-name="bell"
      unicode="&#xE008;"
      horiz-adv-x="896" d="M448 1024C465.334 1024 480.334 1017.667 493 1005C505.667 992.333 512 977.333 512 960L512 918L514.235 917.554C587.892 902.611 648.48 866.76 696 810C744 752.6669999999999 768 685.3330000000001 768 608C768 524 780 455.333 804 402C818.666 371.333 841.333 340 872 308C874.666 304 876.666 301.334 878 300C890 286.6670000000001 896 271.6670000000001 896 255C896 238.334 890 223.667 878 211C866 198.334 850.666 192 832 192L63.302 192C44.951 192.159 29.85 198.492 18 211C6 223.667 0 238.334 0 255C0 271.6670000000001 6 286.6670000000001 18 300L24 308L25.055 309.1040000000001C55.187 340.721 77.502 371.6860000000001 92 402C116 455.3339999999999 128 524 128 608C128 685.3330000000001 152 752.6669999999999 200 810C248 867.333 309.3330000000001 903.333 384 918L384 960L384.003 960.692C384.17 977.733 390.502 992.502 403 1005C415.667 1017.667 430.667 1024 448 1024L448 1024zM576 128L575.996 126.922C575.745 91.395 563.08 61.42 538 37C512.667 12.3339999999999 482.667 0 448 0C413.3330000000001 0 383.3330000000001 12.3339999999999 358 37C332.666 61.667 320 92 320 128L576 128z" />
    <glyph glyph-name="blueprint"
      unicode="&#xE009;"
      horiz-adv-x="1024" d="M0 256.7002L0 384.0002L64 384.0002L64 271.7002C64 263.4002000000001 70.7 256.7002 79 256.7002L128 255.9002000000001L128 191.9002000000001L64 192.7002C28.7 192.7002 0 221.4002000000001 0 256.7002L0 256.7002zM64 1024.0002L191.3 1024.0002L191.3 960.0002L79 960.0002C70.7 960.0002 64 953.3002 64 945.0002L64 832.0002L0 832.0002L0 960.0002C0 995.3002 28.7 1024.0002 64 1024.0002L64 1024.0002zM0 640.0002L64 640.0002L64 768.0002L0 768.0002L0 640.0002zM0 448.0002L64 448.0002L64 576.0002L0 576.0002L0 448.0002zM832 959.3002L832 896.0002L768 896.0002L768 944.3002C768 952.6002 761.3 959.3002 753 959.3002L640 959.3002L640 1023.3002L768 1023.3002C803.3 1023.3002 832 994.6002 832 959.3002L832 959.3002zM448 959.3002L576 959.3002L576 1023.3002L448 1023.3002L448 959.3002zM256 959.3002L384 959.3002L384 1023.3002L256 1023.3002L256 959.3002zM960 79.0002C960 70.7002 953.3 64.0002 945 64.0002L271 64.0002C262.7 64.0002 256 70.7002 256 79.0002L256 753.0002C256 761.3002 262.7 768.0002 271 768.0002L945 768.0002C953.3 768.0002 960 761.3002 960 753.0002L960 79.0002zM960 832.0002L256 832.0002C220.7 832.0002 192 803.3002 192 768.0002L192 64.0002C192 28.7002 220.7 0.0001999999999 256 0.0001999999999L960 0.0001999999999C995.3 0.0001999999999 1024 28.7002 1024 64.0002L1024 768.0002C1024 803.3002 995.3 832.0002 960 832.0002L960 832.0002z" />
    <glyph glyph-name="build"
      unicode="&#xE00A;"
      horiz-adv-x="1024" d="M995.3758 852.53L540.5198 1018.83C521.7378 1025.73 501.0588 1025.73 482.2768 1018.83L27.6208 852.63C11.0368 846.63 -0.0522 830.73 0.0461424852 813.03L0.1478 775.03C0.2478 756.9300000000001 11.6368 740.8299999999999 28.6198 734.73L85.1648 714.53C105.9438 707.03 127.9228 722.53 127.9228 744.63L127.9228 789.4300000000001L511.6478 929.03L895.1738 788.83L895.1738 728.63C895.1738 714.3299999999999 909.3588 704.3299999999999 922.8468 709.13L994.4768 734.73C1011.5608 740.8299999999999 1022.9488 757.03 1022.9488 775.23L1022.9488 813.13C1022.9488 830.73 1011.9598 846.4300000000001 995.3758 852.53M533.6268 677.63L510.4488 670.63L489.5698 675.9300000000001C468.8898 682.73 447.7108 667.23 447.7108 645.53L447.7108 606.4300000000001C447.7108 592.9300000000001 456.2018 580.8299999999999 468.8898 576.3299999999999L499.5598 565.8299999999999C507.6518 562.9300000000001 515.8438 563.53 522.9378 566.53L554.3068 578.13C566.9938 582.63 575.4858 594.73 575.4858 608.23L575.4858 647.23C575.4858 669.03 554.3068 684.4300000000001 533.6268 677.63M351.7048 664.13L351.7048 705.23C351.7048 719.03 342.8128 731.3299999999999 329.6258000000001 735.63L265.6888 756.53C245.0088 763.3299999999999 223.8288 747.8299999999999 223.8288 726.13L223.8288 687.03C223.8288 673.53 232.3208 661.4300000000001 245.0088 656.9300000000001L308.9458 633.9300000000001C329.7258 626.4300000000001 351.7048 641.9300000000001 351.7048 664.13M990.2808 581.03L856.3118 629.3299999999999C852.8148 630.63 849.0188 630.63 845.5218 629.3299999999999L798.0678 612.4300000000001C783.8828 607.4300000000001 783.8828 587.3299999999999 798.0678 582.3299999999999L913.1558 541.03L511.5488 377.23L109.4408 541.23L223.8288 582.23C237.9158 587.3299999999999 237.9158 607.3299999999999 223.8288 612.3299999999999L176.5758 629.23C173.0788 630.4300000000001 169.2828 630.4300000000001 165.7858 629.23L33.1158 581.63C12.9348 574.4300000000001 -0.2522 555.23 0.0478 533.9300000000001L0.0478 520.9300000000001C-0.8512 500.33 11.0368 481.23 29.9178 473.03L476.3828 276.73C498.0618 267.23 522.7368 267.13 544.5168 276.63L802.5638 389.53L993.3778 473.13C1012.0598 481.33 1023.9478 500.23 1022.9488 520.73L1022.9488 533.63C1023.4478 554.8299999999999 1010.2618 573.9300000000001 990.2808 581.03M994.5758 352.03L915.6528 380.23C911.8568 381.63 907.5618 381.43 903.8648 379.8300000000001L861.3068 361.23C848.0198 355.43 848.7188 336.43 862.3058 331.53L910.9578 314.03L510.3498 107.83L111.2388 314.13L152.3988 328.93C165.7858 333.73 166.6848 352.43 153.7978 358.43L112.8378 377.63C109.0418 379.43 104.6458 379.63 100.6488 378.23L27.9198 352.13C11.3368 346.13 0.2478 330.43 0.1478 312.73L0.0478 293.93C0.0478 278.63 8.4388 264.43 21.8268 257.13L470.6888 10.53C496.0638 -3.47 526.8328 -3.47 552.3088 10.53L1001.2708 257.13C1014.6568 264.43 1023.0488 278.63 1023.0488 293.93L1023.0488 311.53C1023.0488 329.73 1011.6598 345.93 994.5758 352.03M799.2678 687.53L799.2678 726.53C799.2678 748.3299999999999 778.0878 763.73 757.4078 756.9300000000001L693.4708 736.03C680.2828 731.73 671.3928 719.4300000000001 671.3928 705.63L671.3928 664.63C671.3928 642.53 693.2708 627.03 714.1498 634.53L778.0878 657.3299999999999C790.7748 661.9300000000001 799.2678 673.9300000000001 799.2678 687.53" />
    <glyph glyph-name="builder-image"
      unicode="&#xE00B;"
      horiz-adv-x="1024" d="M903.7002 786.3581L511.5002 645.5951L119.9002 786.0581L512.2002 929.0191L903.7002 786.3581zM126.8002 304.3281L285.1002 361.0731L445.6002 290.6421000000001L445.6002 129.5991L126.8002 304.3281zM96.0002 694.6481L225.2002 648.2931L96.0002 601.9381000000001L96.0002 694.6481zM199.9002 398.6371000000001L96.0002 361.2731L96.0002 444.0921L199.9002 398.6371000000001zM445.5002 569.2701L445.5002 404.6311L111.9002 539.7981L319.9002 614.4261L445.5002 569.2701zM738.3002 361.2731L897.0002 304.4291L573.5992 127.0021000000001L573.5992 288.8441000000001L738.3002 361.2731zM798.0002 648.4920999999999L928.0002 695.0471L928.0002 601.8380999999999L798.0002 648.4920999999999zM928.0002 444.5921L928.0002 361.1731L823.4002 398.6371000000001L928.0002 444.5921zM703.2002 614.5251000000001L911.3002 539.8991L573.5992 402.8321L573.5992 567.9711L703.2002 614.5251000000001zM1024.0002 784.3601C1023.4002 819.9250999999999 1001.0002 851.3941 967.5002 863.6821C825.5002 915.4321 683.5002 967.0811 541.5002 1018.8311C522.5002 1025.7241 501.6002 1025.7241 482.5002 1018.8311L56.5002 863.5831000000001C23.1002 851.2951 0.7002 819.8251 0.0002 784.3601L0.0002 330.4031L0.1002 330.4031C1.2002 299.4341 18.9002 259.7731 44.6002 244.9861L470.6002 11.5151C496.4002 -2.5708999999999 527.5992 -2.5708999999999 553.4002 11.5151C639.5992 58.7691 841.7002 169.4601 979.4002 244.9861C1006.0992 259.5721 1022.9002 299.3331 1024.0002 330.4031L1024.0002 784.3601z" />
    <glyph glyph-name="bundle"
      unicode="&#xE00C;"
      horiz-adv-x="1024" d="M314.122546 795.4909L317.527 513.6909L650.827 439.9909C661.728 437.5909000000001 673.127 439.4909 682.627 445.2909L831.027 536.1909L835.527 805.8909C835.928 827.5909 820.027 846.1909 798.627 849.2909L504.728 891.6909L343.427 836.7909C325.728 830.7909 313.927 814.0909 314.122546 795.4909L314.122546 795.4909zM986.127 934.3909L722.327 966.5909L577.027 916.2909L860.127 877.0909C881.728 874.0909 897.728 855.3909 897.327 833.5909L892.728 573.9909L1017.827 650.5908999999999L1023.928 890.4909C1024.627 912.6909 1008.228 931.6909 986.127 934.3909L986.127 934.3909zM317.327 432.0909000000001L321.228 119.1909000000001L638.728 23.8909C653.228 19.5909 668.827 23.0909 680.027 33.1909000000001L823.827 163.3909L828.728 456.1909000000001L681.327 359.7909C671.428 353.2909 659.327 351.1909000000001 647.827 353.8909L317.327 432.0909000000001zM272.228 848.0909C326.627 865.9909 381.027 883.7909 435.427 901.6909L199.327 935.7909L31.127 886.8909C12.127 881.2909 -0.673 863.6909 0.027 843.9909L9.127 581.7909L246.127 529.3909L242.527 806.5909C242.327 825.3909 254.327 842.1909 272.228 848.0909L272.228 848.0909zM508.827 925.7909C559.127 942.2909 609.327 958.7909 659.627 975.2909L438.228 1001.6909C432.527 1002.3909 426.627 1001.8909 421.127 1000.2909L276.027 958.0909L508.827 925.7909zM10.728 504.5909L19.927 240.0909000000001C20.527 221.5909 32.927 205.5909 50.627 200.2909L253.027 139.5909L247.728 448.4909L10.728 504.5909zM890.428 496.4909L1016.327 578.7909L1010.127 350.0909000000001C1009.827 338.2909 1004.728 327.1909000000001 995.928 319.2909L885.527 219.2909L890.428 496.4909z" />
    <glyph glyph-name="catalog"
      unicode="&#xE00D;"
      horiz-adv-x="1088" d="M576 864C687.3 935.4 874.6 992 960 992L960 224C898.8 240.9 738 263.5 576 160L576 864zM1024 928C1088 928 1088 861.2 1088 861.2L1088 96C1088 32 985.7 34.1 985.7 34.1C863.1 219.3 576 32 576 32L576 98.6C863 295.3 1024 96 1024 96L1024 928zM128 224L128 992C212.9 992 400.6 935.7 512 864L512 160C352 263.5 189.3 240.8 128 224L128 224zM512 98.6L512 32C512 32 227.9 218.2000000000001 102.5 34.1C102.5 34.1 0 32 0 96L0 861.2C0 861.2 0 928 64 928L64 96C64 96.1 226 295.3 512 98.6L512 98.6z" />
    <glyph glyph-name="chat"
      unicode="&#xE00E;"
      horiz-adv-x="1024" d="M383.7998 448.3999C379.9998 262.9999000000001 255.9998 255.9999000000001 255.9998 255.9999000000001L255.9998 448.0999000000001L127.9998 448.0999000000001L127.9998 831.9999L767.9998 831.9999L767.9998 448.0999000000001L383.7998 448.3999zM895.9998 639.9999L895.9998 900.0999C894.4008 947.0999 879.6998 959.9999 845.1998 959.9999L63.9998 959.9999C7.6998 959.9999 -0.0002 954.6999 -0.0002 900.0999L-0.0002 389.3999C-0.0002 318.2999 -0.0002 321.4999000000001 64.6998 319.9999000000001L127.9998 319.9999000000001L127.9998 163.2999C127.9998 139.4999 141.5998 127.9999 158.7998 127.9999C298.8998000000001 127.9999 400.1998 129.1999 479.9998 319.9999000000001L511.8998 319.9999000000001L511.8998 255.9999000000001C512.1998 191.2999 511.9998 191.7999 573.7998 191.9999L767.9998 191.9999C798.2998 90.6999 859.5998 63.9999 927.9008 63.9999C927.9008 63.9999 959.9998 64.5999000000001 959.9998 75.0999000000001L959.9998 191.9999C1019.2998 191.8999 1023.4998 191.2999 1023.9998 255.8999L1023.9998 572.5998999999999C1023.9998 631.0998999999999 1023.9008 639.4999 964.1998 639.9999L895.9998 639.9999z" />
    <glyph glyph-name="close"
      unicode="&#xE00F;"
      horiz-adv-x="730" d="M724.499315 256.242655L468.242169 512.499501L724.499315 768.756347C728.196254 772.454281 730.096195 776.751881 730 781.5502C730 786.3465209999999 727.997365 790.6441199999999 724.299427 794.441998L646.542773 872.298505C642.743891 876.0963830000001 638.446287 878 633.64996 878C628.852635 878 624.55503 876.196327 620.857092 872.499393L364.5 616.142602L108.241857 872.499393C104.544917 876.196327 100.246314 878.095267 95.4499876 878C90.6526619 877.8953779999999 86.3550577 875.997438 82.5571748 872.298505L4.7005771 794.542942C0.902694281 790.744064 -1 786.446465 -1 781.649145C-1 776.851825 0.801750553 772.5552250000001 4.50068853 768.856291L260.857779 512.499501L4.50068853 256.242655C0.801750553 252.545721 -1.09619141 248.247122 -1 244.2493550000001C-0.896302843 239.452035 1.00263857 235.1544360000001 4.7005771 231.3575570000001L82.4572306 152.7004980000001C86.2541139 148.9036190000001 90.5527176 147 95.3500433 147C100.147369 147 104.444973 148.802675 108.142912 152.5006090000001L364.400058 408.7584550000001L620.657203 152.5006090000001C624.355142 148.802675 628.652746 146.904735 633.449072 147C638.246398 147 642.545002 149.002563 646.342885 152.7004980000001L724.099538 230.45706C727.896421 234.2549380000001 729.796362 238.553537 729.796362 243.350857C730.096195 248.247122 728.196254 252.545721 724.499315 256.242655" />
    <glyph glyph-name="cloud-security"
      unicode="&#xE010;"
      horiz-adv-x="1024" d="M512 638.299726C494.3 638.299726 479.2 631.999726 466.7 619.499726C454.3 607.0997259999999 448 591.899726 448 574.299726L448 511.999726L576 511.999726L576 574.299726C576 591.999726 569.7 607.0997259999999 557.2 619.5997259999999C544.9 632.0997259999999 529.7 638.299726 512 638.299726L512 638.299726zM703.9 288.999726C703.9 280.0997260000001 700.7 272.5997260000001 694.5 266.1997260000001C688.3 259.999726 680.7 255.999726 671.8 255.999726L352.1 255.999726C343.2 255.999726 335.7 259.999726 329.4 266.1997260000001C323.2 272.399726 320 279.999726 320 288.999726L320 481.499726C320 490.399726 323.2 497.899726 329.4 504.299726C335.6 510.499726 343.2 512.5997259999999 352.1 512.5997259999999L383.8 512.5997259999999L383.8 575.5997259999999C383.8 610.899726 396.4 640.799726 421.6 666.0997259999999C446.8 691.399726 476.9 703.999726 512 703.999726C547.1 703.999726 577.3 691.399726 602.5 666.0997259999999C627.7 640.799726 640.1 610.799726 640.1 575.5997259999999L640.1 512.5997259999999L672 512.5997259999999C680.9 512.5997259999999 688.4 510.399726 694.7 504.1997260000001C701 497.999726 704.1 490.399726 704.1 481.399726L703.9 288.999726zM979.2 467.899726C949.3 505.799726 911.4 530.299726 865.5 541.199726C880 564.0997259999999 887.3 589.199726 887.3 616.499726C887.3 655.199726 874.1 688.0997259999999 847.2 715.299726C821 742.5997259999999 788.7 756.299726 751 756.299726C716.9 756.299726 687.4 744.899726 662.5 722.399726C641.6 774.299726 608.1 815.899726 562.4 847.999726C516.7 880.099726 465.8 896 409.7 896C334.4 896.099726 270 868.799726 216.6 814.299726C163.2 759.799726 136.6 693.799726 136.6 616.799726C136.6 611.399726 137 603.499726 137.7 593.299726C96.5 573.699726 63.2 543.999726 37.9 503.999726C12.6 464.1997260000001 0 420.299726 0 372.399726C0 305.1997260000001 23.5 247.5997260000001 70.2 199.799726C116.9 151.999726 173.2 128.000726 238.9 128.000726L819.2 128.000726C875.7 128.000726 923.9 148.599726 964.1 189.299726C1004.2 230.299726 1024 279.5997260000001 1024 337.499726C1024 386.499726 1009.1 429.999726 979.2 467.899726L979.2 467.899726z" />
    <glyph glyph-name="cloud-tenant"
      unicode="&#xE011;"
      horiz-adv-x="1024" d="M562.4004 847.999C516.7004 880.0989999999999 465.7994 895.999274 409.7004 895.999274C334.4004 896.099 270.0004 868.799 216.6004 814.299C176.2994 773.0989999999999 151.2004 725.399 141.4004 671.299L520.0004 375.299C532.7994 365.299 551.5994 372.999 553.7004 388.999L609.9004 806.399C596.0004 821.6990000000001 580.0994 835.5989999999999 562.4004 847.999M979.2004 467.899C949.2994 505.799 911.4004 530.299 865.5004 541.1990000000001C880.0004 564.0989999999999 887.2994 589.1990000000001 887.2994 616.499C887.2994 655.1990000000001 874.0994 688.0989999999999 847.2004 715.299C821.0004 742.5989999999999 788.7004 756.299 751.0004 756.299C717.2994 756.299 688.0994 745.0989999999999 663.2994 723.0989999999999L607.2004 305.999C602.9004 273.799 565.2994 258.499 539.7004 278.499L137.5004 593.0989999999999C96.4004 573.499 63.2004 543.799 37.9004 503.899C12.6004 464.199 0.0004 420.299 0.0004 372.399C0.0004 305.199 23.5004 247.5990000000001 70.2004 199.799C116.9004 151.999 173.2004 127.999 238.9004 127.999L819.2004 127.999C875.7004 127.999 923.9004 148.5990000000001 964.0994 189.299C1004.2004 230.299 1024.0004 279.5990000000001 1024.0004 337.499C1024.0004 386.499 1009.0994 429.999 979.2004 467.899" />
    <glyph glyph-name="cluster"
      unicode="&#xE012;"
      horiz-adv-x="1024" d="M896 319.9999860000001L960 319.9999860000001L960 383.9999860000001L896 383.9999860000001L896 319.9999860000001zM448 319.9999860000001L512 319.9999860000001L512 383.9999860000001L448 383.9999860000001L448 319.9999860000001zM320 319.9999860000001L384 319.9999860000001L384 383.9999860000001L320 383.9999860000001L320 319.9999860000001zM192 319.9999860000001L256 319.9999860000001L256 383.9999860000001L192 383.9999860000001L192 319.9999860000001zM64 319.9999860000001L128 319.9999860000001L128 383.9999860000001L64 383.9999860000001L64 319.9999860000001zM987.4 447.9999860000001L36.6 447.9999860000001C26.6 447.9999860000001 18.2 444.399986 10.9 437.099986C3.6 429.799986 0 421.199986 0 411.399986L0 292.699986C0 282.699986 3.6 274.299986 10.7 266.899986C18 259.599986 26.4 255.9999860000001 36.4 255.9999860000001L987.4 255.9999860000001C997.4 255.9999860000001 1005.8 259.599986 1013.1 266.899986C1020.4 274.199986 1024 282.599986 1024 292.599986L1024 411.399986C1024 421.399986 1020.4 429.799986 1013.1 437.099986C1005.8 444.399986 997.2 447.9999860000001 987.4 447.9999860000001L987.4 447.9999860000001zM896 575.999986L960 575.999986L960 639.999986L896 639.999986L896 575.999986zM448 575.999986L512 575.999986L512 639.999986L448 639.999986L448 575.999986zM320 575.999986L384 575.999986L384 639.999986L320 639.999986L320 575.999986zM192 575.999986L256 575.999986L256 639.999986L192 639.999986L192 575.999986zM64 575.999986L128 575.999986L128 639.999986L64 639.999986L64 575.999986zM987.4 703.999986L36.6 703.999986C26.6 703.999986 18.2 700.399986 10.9 693.099986C3.6 685.799986 0 677.1999860000001 0 667.399986L0 548.6999860000001C0 538.6999860000001 3.6 530.299986 10.7 522.899986C18 515.599986 26.4 511.999986 36.4 511.999986L987.4 511.999986C997.4 511.999986 1005.8 515.599986 1013.1 522.899986C1020.4 530.1999860000001 1024 538.599986 1024 548.599986L1024 667.399986C1024 677.399986 1020.4 685.799986 1013.1 693.099986C1005.8 700.399986 997.2 703.999986 987.4 703.999986L987.4 703.999986zM0 778.8019859999999C0 788.000986 1.2 789.300986 9.599 797.499986C9.599 797.499986 151.085 937.6769856 161.584 949.9749856C172.083 962.3729856 185.482 959.7729856 185.482 959.7729856L840.618 959.7729856C840.618 959.7729856 852.417 961.1729856 863.115 949.5749856C873.614 937.9769856 1013.501 797.598986 1013.501 797.598986C1021.9 789.2009860000001 1024 787.900986 1024 778.8019859999999C1024 769.203986 1012.301 768.0039859999999 1000.702 768.0039859999999L22.098 768.0039859999999C10.799 767.903986 0 769.603986 0 778.8019859999999L0 778.8019859999999zM896 63.999986L960 63.999986L960 127.999986L896 127.999986L896 63.999986zM448 63.999986L512 63.999986L512 127.999986L448 127.999986L448 63.999986zM320 63.999986L384 63.999986L384 127.999986L320 127.999986L320 63.999986zM192 63.999986L256 63.999986L256 127.999986L192 127.999986L192 63.999986zM64 63.999986L128 63.999986L128 127.999986L64 127.999986L64 63.999986zM987.4 191.999986L36.6 191.999986C26.6 191.999986 18.2 188.399986 10.9 181.099986C3.6 173.799986 0 165.199986 0 155.399986L0 36.699986C0 26.699986 3.6 18.29999 10.7 10.89999C18 3.59999 26.4 -0.00001 36.4 -0.00001L987.4 -0.00001C997.4 -0.00001 1005.8 3.59999 1013.1 10.89999C1020.4 18.19999 1024 26.5999859999999 1024 36.5999859999999L1024 155.399986C1024 165.399986 1020.4 173.799986 1013.1 181.099986C1005.8 188.399986 997.2 191.999986 987.4 191.999986L987.4 191.999986z" />
    <glyph glyph-name="connected"
      unicode="&#xE013;"
      horiz-adv-x="1024" d="M164.2002 163.4623C149.2002 163.4623 134.3002 169.5623000000001 123.8002 181.6623C44.0002 273.2623 0.0002 390.8613000000001 0.0002 512.4623C0.0002 597.0623 21.5002 680.6623 61.9002 754.5623C79.2002 785.8623 99.8002 815.5623 123.3002 842.5623C142.7002 864.9623 176.6002 867.2623 199.0002 847.7623C221.4002 828.2623 223.7002 794.4623 204.2002 772.0623C185.7002 750.7623 169.5002 727.5623 155.9002 702.9623C123.9002 644.9623 107.3002 579.3623 107.3002 512.6623C107.3002 417.0623000000001 142.0002 324.6623 204.8002 252.5623000000001C224.2002 230.1623 221.9002 196.3613 199.8002 176.8613C189.3002 167.8613 176.8002 163.4623 164.2002 163.4623M862.3002 166.4623C850.0002 166.4623 837.4002 170.7623 827.4002 179.4623C804.8002 198.8613 802.3002 232.5623000000001 821.7002 254.9623000000001C883.0992 326.6623 916.9002 417.8613000000001 916.9002 512.3613C916.9002 607.7623 882.4002 699.9623 819.9002 772.0623C800.5002 794.4623 802.8002 828.2623 825.0992 847.7623C847.5002 867.1623 881.3002 864.8623 900.5992 842.5623C980.2002 751.0623 1024.0002 633.9623 1024.0002 512.6623C1024.0002 392.6623 981.0992 276.5623000000001 903.0992 185.4623C892.3002 172.9623 877.5002 166.4623 862.3002 166.4623M622.0002 512.4623C622.0002 451.7623 572.7002 402.6623 512.2002 402.6623C451.7002 402.6623 402.4002 451.9623 402.4002 512.4623C402.4002 572.9623 451.7002 622.2623 512.2002 622.2623C572.7002 622.2623 622.0002 573.1623 622.0002 512.4623M721.7002 320.5623000000001C712.5992 320.5623000000001 703.5002 323.2623 695.4002 328.9623000000001C674.8002 343.5623000000001 669.8002 372.0623000000001 684.5002 392.6623C709.2002 427.7623 722.4002 468.8613 722.4002 511.9623C722.4002 555.2623 709.2002 596.8623 684.0992 631.9623C669.5002 652.5623 674.3002 680.9623 694.8002 695.6623C715.3002 710.3623 743.8002 705.4623 758.5002 684.9623C794.5992 634.3623 813.8002 574.5623 813.8002 511.9623C813.8002 449.8613000000001 794.8002 390.5623000000001 759.3002 339.8613000000001C750.0002 327.1623 735.8002 320.5623000000001 721.7002 320.5623000000001M301.1002 320.7623C286.8002 320.7623 272.6002 327.5623000000001 263.7002 340.1623C228.1002 390.5623000000001 209.4002 449.9623000000001 209.4002 511.7623C209.4002 573.5623 228.2002 632.8623 263.4002 683.3623C277.7002 703.9623 306.3002 708.9623 327.1002 694.5623C347.7002 679.9623 352.7002 651.6623 338.3002 630.8623C313.6002 595.9623 300.9002 554.6623 300.9002 511.7623C300.9002 468.8613 313.9002 427.5623000000001 338.5002 392.6623C353.1002 372.0623000000001 348.1002 343.6623 327.3002 328.9623000000001C319.4002 323.5623000000001 310.0002 320.7623 301.1002 320.7623" />
    <glyph glyph-name="container-node"
      unicode="&#xE014;"
      horiz-adv-x="1024" d="M896 255.999283L960 255.999283L960 319.999283L896 319.999283L896 255.999283zM448 255.999283L512 255.999283L512 319.999283L448 319.999283L448 255.999283zM320 255.999283L384 255.999283L384 319.999283L320 319.999283L320 255.999283zM192 255.999283L256 255.999283L256 319.999283L192 319.999283L192 255.999283zM64 255.999283L128 255.999283L128 319.999283L64 319.999283L64 255.999283zM1013.1 373.099283C1005.8 380.399283 997.2 383.999283 987.4 383.999283L36.6 383.999283C26.6 383.999283 18.2 380.399283 10.9 373.099283C3.6 365.799283 0 357.1992830000001 0 347.399283L0 228.499283C0 218.499283 3.6 210.099283 10.7 202.799283C18 195.599283 26.4 191.999283 36.4 191.999283L987.4 191.999283C997.4 191.999283 1005.8 195.599283 1013.1 202.899283C1020.4 210.199283 1024 218.599283 1024 228.599283L1024 347.399283C1024 357.399283 1020.4 365.799283 1013.1 373.099283L1013.1 373.099283zM22.3 447.999283L1001.8 447.999283C1013.2 447.999283 1020.3 453.099283 1023.1 463.499283C1025.6 473.7992829999999 1022.9 486.699283 1014.4 501.899283C1014.4 501.899283 874.3 791.499283 863.8 812.999283C856 832.099283 841.4 832 841.4 832L185.6 832C185.6 832 169 832.399283 161.8 814.2992830000001C151.3 791.699283 9.7 501.999283 9.7 501.999283C1.2 486.899283 -1.7 473.999283 1 463.599283C3.7 453.199283 10.8 447.999283 22.3 447.999283L22.3 447.999283z" />
    <glyph glyph-name="cpu"
      unicode="&#xE015;"
      horiz-adv-x="832" d="M16 320L112 320C120.8 320 128 312.8 128 304L128 272C128 263.2000000000001 120.8 256 112 256L16 256C7.2 256 0 263.2000000000001 0 272L0 304C0 312.8 7.2 320 16 320M16 448L112 448C120.8 448 128 440.8 128 432L128 400C128 391.2000000000001 120.8 384 112 384L16 384C7.2 384 0 391.2000000000001 0 400L0 432C0 440.8 7.2 448 16 448M16 576L112 576C120.8 576 128 568.8 128 560L128 528C128 519.2 120.8 512 112 512L16 512C7.2 512 0 519.2 0 528L0 560C0 568.8 7.2 576 16 576M16 704L112 704C120.8 704 128 696.8 128 688L128 656C128 647.2 120.8 640 112 640L16 640C7.2 640 0 647.2 0 656L0 688C0 696.8 7.2 704 16 704M720 320L816 320C824.8 320 832 312.8 832 304L832 272C832 263.2000000000001 824.8 256 816 256L720 256C711.2 256 704 263.2000000000001 704 272L704 304C704 312.8 711.2 320 720 320M720 448L816 448C824.8 448 832 440.8 832 432L832 400C832 391.2000000000001 824.8 384 816 384L720 384C711.2 384 704 391.2000000000001 704 400L704 432C704 440.8 711.2 448 720 448M720 576L816 576C824.8 576 832 568.8 832 560L832 528C832 519.2 824.8 512 816 512L720 512C711.2 512 704 519.2 704 528L704 560C704 568.8 711.2 576 720 576M720 704L816 704C824.8 704 832 696.8 832 688L832 656C832 647.2 824.8 640 816 640L720 640C711.2 640 704 647.2 704 656L704 688C704 696.8 711.2 704 720 704M592 192L624 192C632.8 192 640 184.8 640 176L640 80C640 71.2000000000001 632.8 64 624 64L592 64C583.2 64 576 71.2000000000001 576 80L576 176C576 184.8 583.2 192 592 192M464 192L496 192C504.8 192 512 184.8 512 176L512 80C512 71.2000000000001 504.8 64 496 64L464 64C455.2 64 448 71.2000000000001 448 80L448 176C448 184.8 455.2 192 464 192M336 192L368 192C376.8 192 384 184.8 384 176L384 80C384 71.2000000000001 376.8 64 368 64L336 64C327.2 64 320 71.2000000000001 320 80L320 176C320 184.8 327.2 192 336 192M208 192L240 192C248.8 192 256 184.8 256 176L256 80C256 71.2000000000001 248.8 64 240 64L208 64C199.2 64 192 71.2000000000001 192 80L192 176C192 184.8 199.2 192 208 192M592 896L624 896C632.8 896 640 888.8 640 880L640 784C640 775.2 632.8 768 624 768L592 768C583.2 768 576 775.2 576 784L576 880C576 888.8 583.2 896 592 896M464 896L496 896C504.8 896 512 888.8 512 880L512 784C512 775.2 504.8 768 496 768L464 768C455.2 768 448 775.2 448 784L448 880C448 888.8 455.2 896 464 896M336 896L368 896C376.8 896 384 888.8 384 880L384 784C384 775.2 376.8 768 368 768L336 768C327.2 768 320 775.2 320 784L320 880C320 888.8 327.2 896 336 896M192 784L192 880C192 888.8 199.2 896 208 896L240 896C248.8 896 256 888.8 256 880L256 784C256 775.2 248.8 768 240 768L208 768C199.2 768 192 775.1 192 784M639.9 691.6L640 269.6C640 262.7000000000001 634.4 257.2000000000001 627.6 257.2000000000001L204.5 256C197.6 256 192 261.6 192 268.4L192 691.6C192 698.5 197.6 704 204.4 704L627.4 704C634.4 704 639.9 698.4 639.9 691.6" />
    <glyph glyph-name="degraded"
      unicode="&#xE016;"
      horiz-adv-x="1024" d="M671.7002 1024C703.8002 1024 734.5992 1022.9 763.9002 1020C793.2002 1017.1 821.3002 1013.4 848.2002 1007.9C874.9002 1002.4 899.0002 996.2 920.4002 989.4C941.9002 982.1 960.5992 974.3 976.5002 965.2C991.9002 956.1 1003.9002 946.5 1011.5992 936.6C1019.3002 926.7 1024.0002 916.6 1024.0002 906.5L1024.0002 758.6C1024.0002 747.8 1020.2002 737.7 1012.5002 727.6C1004.8002 717.7 992.8002 708.1 977.4002 699C961.5992 690.6 942.5002 682.4 921.0992 675.4C899.7002 668.2 875.5992 661.9 848.9002 656.4C821.5992 651.3 793.3002 647.1 764.2002 644.9C759.8002 644.5 755.4002 644.2 750.9002 643.9C748.4002 648 745.7002 652 742.5992 655.8C730.0002 672.1 712.5992 686.6 689.5992 700.2L688.8002 700.6C670.3002 711.3 648.2002 720.8 621.4002 729.9L620.2002 730.3C596.7002 737.8 570.2002 744.6 541.4002 750.5C515.0002 755.9 486.1002 760.1 450.6002 763.6C420.6002 766.6 388.3002 768 351.9002 768C341.1002 768 330.6002 767.9 320.3002 767.6C320.0002 767.8 319.9002 767.9 319.6002 768.2L319.6002 906.4C319.6002 916.5 323.7002 926.6 331.7002 936.5C339.5002 946.4 351.5002 956.1 367.2002 965.1C382.6002 974.1 401.2002 982.3 422.6002 989.3C444.0002 996.3 468.1002 1002.5 494.8002 1007.8C521.9002 1013.1 550.5002 1017.1 580.0002 1019.9C609.5992 1022.7 640.0002 1024 671.7002 1024M1024.0002 647.2L1024.0002 437.3C1024.0002 426.5 1020.2002 416.4 1012.5002 406.3C1004.8002 396.4 992.8002 386.8 977.4002 377.7000000000001C961.5992 369.3 942.5002 361.1 921.0992 354.1C899.7002 346.9 875.5992 340.6 848.9002 335.1C822.8002 330.2000000000001 795.7002 326.2000000000001 768.0002 323.9L767.7002 547.9C795.5992 550.2 822.7002 554.2 848.9002 559.1C875.5992 564.6 902.3002 571.6 921.0992 578.1C939.9002 584.6 961.5002 593.3 977.3002 601.7C992.7002 610.8 1004.7002 620.4 1012.4002 630.3C1016.7002 635.9 1019.8002 641.6 1021.7002 647.4C1022.0002 648.5 1023.9002 648.2 1024.0002 647.2M232.2002 503.4C230.9002 503.4 229.3002 503.2 227.8002 502.5C226.7172 502 225.7022 501.431 224.7002 500.85L224.1002 500.5L223.4002 500.1L171.4002 447.7000000000001C170.0002 446.8 169.0002 445.4 168.3002 443.9C167.6002 442.4 167.4002 440.5 167.4002 438.8C167.4002 437.5 167.6002 435.9 168.3002 434.4C168.9422 433.116 169.6672 431.9170000000001 170.7852 430.648L171.1002 430.3L171.4002 430L282.4002 319.6L169.1002 206.5C167.7002 205.6 166.7002 204.2000000000001 166.0002 202.7000000000001C165.3002 201.2000000000001 165.1002 199.3 165.1002 197.6C165.1002 196.3 165.3002 194.7000000000001 166.0002 193.2000000000001C166.6412 191.917 167.3672 190.718 168.4852 189.448L168.8002 189.1L169.1002 188.8L221.1002 136.6C222.4002 135.2000000000001 224.0002 134.2000000000001 225.5002 133.5C227.0002 132.8 228.9002 132.6 230.6002 132.6C231.9002 132.6 233.5002 132.8 235.0002 133.5C236.3932 134.057 237.5272 134.8730000000001 238.4022 136.0270000000001L238.6002 136.3L238.8002 136.6L352.1002 249.2000000000001L465.3002 137C466.2002 135.6 467.6002 134.6 469.1002 133.9C470.6002 133.2000000000001 472.0002 133 473.5002 133C475.3002 133 477.1002 133.2000000000001 478.6002 133.9C479.8832 134.542 481.0822 135.268 482.3522 136.385L482.7002 136.7000000000001L483.0002 137L535.0002 188.7000000000001C536.4002 190 537.4002 191.6 538.0992 193.1C538.8002 194.6 539.0992 195.9 539.0002 197.2000000000001C539.0002 199 538.8002 200.8 538.0992 202.3C537.5432 203.693 536.7262 204.827 535.5722 205.702L535.3002 205.9L535.0002 206.1L421.8002 319.2000000000001L532.8002 429.3C534.2002 430.6 535.2002 432.2000000000001 535.9002 433.7000000000001C536.5992 435.2000000000001 536.8002 436.6 536.8002 438.1C536.8002 439.9 536.5992 441.7000000000001 535.9002 443.2000000000001C535.3432 444.593 534.5272 445.727 533.3722 446.603L533.0992 446.8L532.8002 447L481.4002 499.6C480.1002 500.5 478.5002 501.3 477.0002 502C475.5002 502.7 473.6002 502.9 471.9002 502.9C470.6002 502.9 469.0002 502.7 467.5002 502.2C466.0942 501.825 464.9512 501.187 464.0722 500.037L463.9002 499.8L463.7002 499.6L352.6002 388.7000000000001L241.1002 500.1C240.2002 501.2 238.8002 502.2 237.3002 502.7C235.8002 503.2 233.9002 503.4 232.2002 503.4M351.9002 704C383.8912000000001 704 414.8822 702.9 444.1742 700C473.4652 697.1 501.5572 693.4 528.4502 687.9C555.1422 682.4 579.2352 676.2 600.6292 669.4C622.1232 662.1 640.8182 654.3 656.7142 645.2C672.1092 636.1 684.1052 626.5 691.8042 616.6C699.2632 607.076 703.7352 597.36 703.9902 587.64L704.0002 587.1L704.0002 442.9C703.0002 434.1 698.8022 425.8 692.4032 417.4C684.7052 407.5 672.7092 397.9 657.3132 388.8C641.5172 380.4 622.4232 372.2000000000001 601.0292 365.2000000000001C594.2182 362.866 586.9712 360.62 579.3702 358.461L577.7362 358L575.9362 357.6L575.9362 259.6C584.6342 262 593.0312 264.6 601.0292 267.3C622.3232 274.3 641.5172 282.5 657.3132 290.9C672.7092 300 684.7052 309.6 692.4032 319.5C696.7022 325.1 699.8012 330.8 701.7002 336.6C701.9892 337.562 703.7562 337.414 703.9802 336.512L704.0002 336.4L704.0002 117.3C704.0002 106.5 700.2012 96.4 692.5032 86.3C684.8052 76.4 672.8082 66.8 657.4132 57.7000000000001C641.6182 49.3 622.5232 41.1 601.1292 34.1C579.7352 26.9 555.6422 20.6 528.9492 15.1C501.6572 10 473.3662 5.8 444.2742 3.6C415.1822 1.1 384.4912 0 352.3002 0C320.6092 0 290.2182 1.2 260.7262 3.6C231.0342 5.7 202.7422 9.6 176.0502 14.9C148.9572 20.2 124.3652 26.4 102.9712 33.9C81.6772 41 63.1822 48.9 47.5862 57.5C32.0912 66.6 20.3942 76.2000000000001 12.1972 86.1C4.4422 95.624 0.3502 105.533 0.1092 115.922L0.1002 116.5L0.1002 336.2000000000001C0.2002 337.2000000000001 1.8992 337.4 2.2992 336.4C12.2952 311.749 43.7502 284.158 123.6292 261.2910000000001L126.0642 260.6L127.8642 260.1L127.8642 357.1C119.1662 359.5 110.7682 362.1 102.8702 364.9C81.5762 372 63.0822 379.9 47.4862 388.5C31.9912 397.6 20.2942 407.2000000000001 12.0962 417.1C4.3422 426.624 0.2502 436.533 0.0092 446.9220000000001L0.0002 447.5L0.0002 586.4C0.0002 596.5 4.0982 606.6 12.0962 616.5C19.8942 626.4 31.8912 636.1 47.5862 645.1C62.9822 654.1 81.5762 662.3 102.9712 669.3C124.3652 676.3 148.4582 682.5 175.1502 687.8C202.2422 693.1 230.8342 697.1 260.3262 699.9C289.8182 702.7 320.2092 704 351.9002 704" />
    <glyph glyph-name="disconnected"
      unicode="&#xE017;"
      horiz-adv-x="1024" d="M108.623985 512.024611C108.623985 570.3952790000001 121.577938 628.166248 146.192143 680.6398790000001L67.0709935 760C65.9747901 757.901055 64.7788411 755.902059 63.6826377 753.803114C23.4243431 680.140131 2 596.48217 2 511.824711C2 390.185836 45.8461415 272.7448520000001 125.465021 181.290809C136.126821 169.196886 150.973944 163 165.722318 163C178.278286 163 190.734508 167.29784 200.699087 176.19337C223.020142 195.583626 225.212549 229.566549 205.681376 251.955299C143.202769 324.019086 108.623985 416.2727270000001 108.623985 512.024611L108.623985 512.024611zM299.957389 511.1716740000001C299.957389 515.978541 300.157489 520.585122 300.457638 525.091559L224.693833 601C215.598295 572.1587979999999 211 542.015737 211 511.1716740000001C211 449.4835480000001 229.691327 390.298999 265.074983 339.9270390000001C273.770322 327.609442 287.464155 321 301.557187 321C310.452626 321 319.349065 323.503577 327.144955 329.011445C347.23498 343.23176 352.033374 371.0715310000001 337.840292 391.200286C312.951873 426.65093 299.957389 468.010014 299.957389 511.1716740000001L299.957389 511.1716740000001zM904.420459 186.077441C981.677971 276.866315 1024 392.652126 1024 512.237471C1024 633.622595 980.280192 750.708247 900.727685 842.197035C881.363601 864.59429 847.426247 866.894008 825.366517 847.396398C803.008049 827.998775 800.812966 794.002941 820.17705 771.605686C882.560555 699.714496 916.997473 607.525793 916.997473 512.137483C916.997473 421.048646 885.555938 332.759466 828.360901 262.268104L754.997988 335.759098C756.09503 337.158927 757.492809 338.458767 758.391024 340.0585710000001C793.925982 390.2524200000001 812.590678 449.645142 812.590678 511.4375690000001C812.590678 573.7299350000001 793.725158 633.322632 757.692634 683.716456C743.618928 703.813993 715.770256 708.4134300000001 695.707781 694.21517C675.644308 680.01691 671.153231 652.220316 685.226937 632.122779C710.280052 596.727117 723.75528 555.032226 723.75528 511.4375690000001C723.75528 471.542458 712.576046 432.947188 691.215705 399.351305L616.054363 474.442103C620.346613 486.0406809999999 622.642608 498.639137 622.642608 511.83752C622.642608 572.530082 573.433594 621.6240660000001 513.045347 621.6240660000001C499.869856 621.6240660000001 487.292843 619.324348 475.713958 615.024874L83.6404554 1008.2766818C65.4743245 1026.57443941 35.828222 1026.57443941 17.6620911 1008.2766818C-0.504039765 989.9789242 -0.603952486 960.3825512 17.6620911 942.0847935L121.470409 837.9975489999999L197.529967 762.006862L334.176598 625.1236369999999L409.836505 549.3329249999999L549.976086 408.950129L942.450238 15.69832C951.534303 6.59944 963.410928 2 975.489377 2C987.566826 2 999.44545 6.59944 1008.52852 15.69832C1026.79456 33.996079 1026.79456 63.592452 1008.52852 81.89021L904.420459 186.077441z" />
    <glyph glyph-name="domain"
      unicode="&#xE018;"
      horiz-adv-x="1024" d="M320 915.7998L320 843.5998C333.7 851.4998 347.9 858.5998 362.5 864.7998C409.8 884.7998 460.1 894.9998 512 894.9998L512 958.9998C443.3 958.8998 378.2 943.3998 320 915.7998L320 915.7998zM256 224.6998C250.7 229.4008 245.5 234.2998 240.5 239.4008C205.2 274.6998 177.5 315.7998 158.2 361.4998000000001C138.2 408.7998 128 459.0998 128 510.9998000000001C128 555.0998 135.3 598.0998 149.8 638.9998L82.6 638.9998C70.5 598.2998 64 555.3998 64 510.8998C64 358.6998 139.9 224.1998 256 143.1998L256 224.6998zM896 510.8998C896 458.9998000000001 885.9 408.6998 865.8 361.4008C846.5 315.6998 818.8 274.5998 783.5 239.2998C778.4 234.1998 773.3 229.4008 768 224.5998L768 143.0998C884.1 224.0998 960 358.5998 960 510.7998L960 510.8998L896 510.8998C896 510.9998000000001 896 510.8998 896 510.8998L896 510.8998zM640 63.9998000000001L704 63.9998000000001L704 447.9998000000001L640 447.9998000000001L640 63.9998000000001zM960 639.9998L1024 639.9998L1024 959.9998L960 959.9998L960 639.9998zM128 895.9998L192 895.9998L192 959.9998L128 959.9998L128 895.9998zM64 767.9998L192 767.9998L192 831.9998L64 831.9998L64 767.9998zM224 1023.9998L32 1023.9998C14.4 1023.9998 0 1009.5998 0 991.9998L0 735.9998C0 718.3998 14.4 703.9998 32 703.9998L224 703.9998C241.6 703.9998 256 718.3998 256 735.9998L256 991.9998C256 1009.5998 241.6 1023.9998 224 1023.9998L224 1023.9998zM448 383.9998000000001L512 383.9998000000001L512 447.9998000000001L448 447.9998000000001L448 383.9998000000001zM384 63.9998000000001L512 63.9998000000001L512 127.9998000000001L384 127.9998000000001L384 63.9998000000001zM384 191.9998000000001L512.1 191.9998000000001L512.1 319.9998000000001L384 319.9998000000001L384 191.9998000000001zM320 480.0998L320 32.0998C320 14.4998000000001 334.4 0.0998 352 0.0998L544 0.0998C561.6 0.0998 576 14.4998000000001 576 32.0998L576 480.0998C576 497.6998 561.6 512.0998 544 512.0998L352 512.0998C334.4 512.0998 320 497.6998 320 480.0998L320 480.0998zM736 863.9998L832 863.9998L832 959.9998L736 959.9998L736 863.9998zM640 671.9998L832 671.9998L832 767.9998L640 767.9998L640 671.9998zM576 991.9998L576 617.9998C576 600.2998 590.3 585.9998 608 585.9998L864 585.9998C881.7 585.9998 896 600.2998 896 617.9998L896 991.9998C896 1009.6998 881.7 1023.9998 864 1023.9998L608 1023.9998C590.3 1023.9998 576 1009.6998 576 991.9998L576 991.9998z" />
    <glyph glyph-name="edit"
      unicode="&#xE019;"
      horiz-adv-x="1024" d="M1024 836.1001C1024 817.0001 1017.3 800.9001000000001 1004 787.6001L857.5 637.1001L638.8 855.6001L787.3 1003.5001C800.3 1017.2001 816.5 1024.0001 835.9 1024.0001C855 1024.0001 871.4 1017.2001 885 1003.5001L1004 885.1001C1017.3 871.1001 1024 854.8000999999999 1024 836.1001L1024 836.1001zM806.2 585.1001L219.4 0.0001L0 0.0001L0 219.4001L586.6 804.5001L806.2 585.1001zM219.6 73.1001L292.9 146.2001L146.3 292.6001L73.2 219.5001L73.2 146.4001L146.3 146.4001L146.3 73.0001L219.6 73.1001z" />
    <glyph glyph-name="enhancement"
      unicode="&#xE01A;"
      horiz-adv-x="1024" d="M561 704L463 704C454.7 704 448 697.3 448 689L448 576L335 576C326.7 576 320 569.2 320 560.9L320 462.9C320 454.6 326.7 448 335 448L448 448L448 335C448 326.7000000000001 454.7 320 463 320L561 320C569.3 320 576 326.7000000000001 576 335L576 448L689 448C697.3 448 704 454.5 704 462.8L704 560.9C704 569.2 697.3 576 689 576L576 575.9L576 689C576 697.3 569.3 704 561 704L561 704zM469.781 1001.447C484.981 1024.25 516.281 1030.95 539.781 1016.048C545.78 1012.448 550.681 1007.348 554.681 1001.447L624.979 862.434L788.078 948.642C814.178 958.543 843.478 945.742 853.478 920.339C856.077 913.639 857.277 906.838 856.777 899.737L832.478 742.222L986.376 712.02C1013.275 704.918 1029.476 677.716 1022.176 651.414C1020.275 644.613 1016.976 638.412 1012.576 632.912L903.377 512.000007L1012.576 391.088C1030.275 369.786 1026.976 338.684 1005.676 321.582C1000.076 317.182 993.876 313.98 986.776 312.1810000000001L828.178 286.578L857.077 124.463C858.777 97.06 837.277 73.758 809.478 72.357C802.178 71.857 794.878 73.058 788.378 75.558L627.58 161.7670000000001L554.681 22.553C539.48 -0.249 508.181 -6.95 484.781 7.951C478.781 11.552 473.881 16.652 469.881 22.553L396.9820000000001 161.7670000000001L236.184 75.558C210.084 65.657 180.785 78.458 170.785 103.86C168.185 110.562 166.984 117.362 167.484 124.463L196.384 286.578L37.786 312.1810000000001C10.686 319.081 -5.514 346.284 1.786 372.587C3.687 379.387 6.986 385.588 11.386 391.088L120.585 512.000007L11.186 632.912C-6.213 654.2139999999999 -3.014 685.317 18.686 702.418C24.286 706.819 30.486 710.019 37.586 711.819L191.584 742.222L167.285 899.737C165.885 926.94 187.185 950.242 215.184 951.643C222.184 952.143 229.484 950.942 235.984 948.442L396.882 862.234L469.781 1001.447z" />
    <glyph glyph-name="enterprise"
      unicode="&#xE01B;"
      horiz-adv-x="1024" d="M438.9 1024L3e-13 914.3L3e-13 141.7000000000001L585.1 0L658.299 0L1024 146.299L1024 914.3L512.1 1024L438.9 1024zM73.2 198.9L73.2 823.1L576 711.399L576 79.7000000000001L511.6 95L511.6 204.6L128.4 297.3L128.4 186.2000000000001L73.2 198.9zM640 696.999L960 820.9L960 199.8L895.9 174.299L895.9 260.5L704 184.6L704 97.5L640 71.5L640 696.999zM128.4 589.8L511.6 498.8L511.6 647.3L128.4 733.1L128.4 589.8zM704 623.5L704 477.2L896 552.999L896 699.2L704 623.5zM128.4 370.4L511.6 278.8L511.6 426.299L128.4 516.7L128.4 370.4zM704 404L704 257.7000000000001L896.099 333.5L896.099 479.8L704 404z" />
    <glyph glyph-name="equalizer"
      unicode="&#xE01C;"
      horiz-adv-x="896" d="M704 575.9L832 575.9L832 704L704 704L704 575.9zM64 575.9L192 575.9L192 704L64 704L64 575.9zM384 320L512 320L512 448L384 448L384 320zM512 1024L512 512.4L544 512.4C561.7 512.4 576 498.1 576 480.4L576 288C576 270.3 561.7 256 544 256L512 256L512 0L384 0L384 256L352 256C334.3 256 320 270.3 320 288L320 480.4C320 498.1 334.3 512.4 352 512.4L384 512.4L384 1024L512 1024zM832 1023.9L832 768L864 768C881.7 768 896 753.7 896 736L896 544C896 526.3 881.7 512 864 512L832 512L832 0L704 0L704 512L672 512C654.3 512 640 526.3 640 544L640 736C640 753.7 654.3 768 672 768L704 768L704 1023.9L832 1023.9zM192 1023.9L192 768L224 768C241.7 768 256 753.7 256 736L256 544C256 526.3 241.7 512 224 512L192 512L192 0L64 0L64 512L32 512C14.3 512 0 526.3 0 544L0 736C0 753.7 14.3 768 32 768L64 768L64 1023.9L192 1023.9z" />
    <glyph glyph-name="error-circle-o"
      unicode="&#xE01D;"
      horiz-adv-x="1024" d="M409.5 705C403.6 710.9 394.2 710.9 388.3 705L319 635.7C313.1 629.8 313.1 620.4 319 614.5L421.5 512L319 409.5C313.1 403.6 313.1 394.2000000000001 319 388.3L388.3 319C394.2 313.1 403.6 313.1 409.5 319L512 421.5L614.5 319C620.4 313.1 629.9 313.1 635.8 318.9L705.1 388.2000000000001C711 394.1 710.9 403.6 705 409.5L602.5 512L705 614.5C710.9 620.4 710.9 629.8 705.1 635.6L635.8 705C629.9 710.9 620.4 710.9 614.5 705.1L512 602.5L409.5 705zM512 128C300.2 128 128 300.1 128 512C128 723.7 300.2 896 512 896C723.7 896 896 723.8 896 512C896 300.2000000000001 723.7 128 512 128L512 128zM512.1 1024C229.7 1024 0 794.2 0 512C0 229.7000000000001 229.8 0 512.1 0C794.4 0 1024 229.7000000000001 1024 512C1024 794.3 794.4 1024 512.1 1024L512.1 1024z" />
    <glyph glyph-name="export"
      unicode="&#xE01E;"
      horiz-adv-x="1024" d="M975.7998 387.0996L870.9008 282.2006L457.8998 695.3996C452.0998 701.2006 445.3998000000001 704.0996 437.8998000000001 704.0996C430.2998 704.0996 423.6998 701.2006 417.8998000000001 695.3996L328.7998 606.2996C322.9998 600.4996 320.0998 593.7996 320.0998 586.2996C320.0998 578.7006 322.9998 572.0996 328.7998 566.2996L741.9998 153.2996000000001L636.9008 48.2006C610.4998 21.7996000000001 619.4008 -0.0003999999999 656.7998 -0.0003999999999L955.9998 -0.0003999999999C1014.4998 -0.0003999999999 1023.9998 10.2996000000001 1023.9998 68.0996L1023.9998 367.2996000000001C1023.9008 404.5996 1002.1998 413.4996 975.7998 387.0996L975.7998 387.0996zM127.9998 895.9996L895.9998 895.9996L895.9998 662.2996C895.9998 653.7996 899.4008 645.7006 905.4008 639.7006L996.6998 548.3996C1006.7998 538.2996 1023.9998 545.4996 1023.9998 559.7006L1023.9998 1001.2996C1023.9998 1007.8996 1021.9008 1013.2996 1017.5998 1017.5996C1013.2998 1021.8996 1007.9008 1023.9996 1001.2998 1023.9996L22.6998 1023.9996C16.0998 1023.9996 10.6998 1021.8996 6.3998 1017.5996C2.0998 1013.2996 -0.0002 1007.8996 -0.0002 1001.2996L-0.0002 22.7006C-0.0002 16.0996 2.0998 10.7006 6.3998 6.4006000000001C10.6998 2.0996 16.0998 -0.0003999999999 22.6998 -0.0003999999999L463.3998 -0.0003999999999C477.6998 -0.0003999999999 484.7998 17.2006 474.6998 27.2996000000001L383.3998000000001 118.5996C377.3998000000001 124.5996 369.2998 127.9996 360.7998 127.9996L127.9998 127.9996L127.9998 895.9996z" />
    <glyph glyph-name="filter"
      unicode="&#xE01F;"
      horiz-adv-x="896" d="M447.999749 800C207.860976 800 112.225454 853.5 112.225454 882.5C112.225454 911.5 207.860976 960 447.999749 960C688.138521 960 783.774044 912.2 783.774044 882.5C783.774044 852.8 688.138521 800 447.999749 800M448.499971 1024C128.414652 1024 1 942.6 1 884.3C1 848 28.6813079 829.1 67.6546365 784L320.284963 526.8L320.284963 227.3C320.284963 218.9 323.58343 210.9 329.379007 204.9L502.262876 28.1C526.047451 6.3 536.140939 0 544.135493 0C560.524781 0.1 576.113712 11.8 576.113712 31L576.113712 526.9L829.743483 784C839.437793 795.2 896 847 896 884.3C896.098986 944 768.58429 1024 448.499971 1024" />
    <glyph glyph-name="flavor"
      unicode="&#xE020;"
      horiz-adv-x="1088" d="M1088 896L1088 896L1088 128C1052.7 128 1024 156.7000000000001 1024 192L1024 832C1024 867.3 1052.7 896 1088 896L1088 896zM384 576L448 576L448 704L384 704L384 576zM816 705L768 705L768 528C768 519.2 760.8 512 752 512L336 512C327.2 512 320 519.2 320 528L320 705L272 705C263.2 705 256 712.2 256 721L256 880C256 888.8 263.2 896 272 896L816 896C824.8 896 832 888.8 832 880L832 721C832 712.2 824.8 705 816 705L816 705zM704 320L640 320L640 256L704 256L704 192L640 192L640 128L576 128L576 192L512 192L512 128L448 128L448 192L384 192L384 256L448 256L448 320L384 320L384 384L448 384L448 448L512 448L512 384L576 384L576 448L640 448L640 384L704 384L704 320zM128 960L128 64C128 28.7 156.7 0 192 0L896 0C931.3 0 960 28.7 960 64L960 960C960 995.3 931.3 1024 896 1024L192 1024C156.7 1024 128 995.3 128 960L128 960zM513 320L575 320C575.6 320 576 319.6 576 319L576 257C576 256.4 575.6 256 575 256L513 256C512.4 256 512 256.4 512 257L512 319C512 319.6 512.4 320 513 320L513 320zM640 576L704 576L704 704L640 704L640 576zM512 576L576 576L576 704L512 704L512 576zM0 896L0 896C35.3 896 64 867.3 64 832L64 192C64 156.7000000000001 35.3 128 0 128L0 896z" />
    <glyph glyph-name="folder-close"
      unicode="&#xE021;"
      horiz-adv-x="1088" d="M1088 768C1088 768 1088 832 1024 832L502.3 832L469.6 893.9C469.6 893.9 439 960 373.7 960L64 960C0 960 0 896 0 896L0 64L1088 64L1088 768z" />
    <glyph glyph-name="folder-open"
      unicode="&#xE022;"
      horiz-adv-x="1217" d="M1199.5996 503.4004C1187.7996 509.0993999999999 1174.4006 512.0004 1159.2996 512.0004L412.7006 512.0004C288.4996 512.0004 236.7006 430.9004 236.7006 430.9004L75.5996 213.4004L149.9996 471.7994C161.9996 503.9004 187.2996 531.2004 225.5996 553.6004C263.9996 575.9004 304.0996 576.0004 345.7996 576.0004L1088.9996 576.0004L1088.9996 768.0004C1088.9996 768.0004 1088.9996 832.0004 1024.9996 832.0004L503.2996 832.0004L470.5996 893.9004C470.5996 893.9004 439.9996 960.0004 374.7006 960.0004L64.9996 960.0004C0.9996 960.0004 0.9996 896.0004 0.9996 896.0004L0.9996 64.0004L807.7006 64.0004C836.9996 64.0004 868.9006 71.7994 903.4006 87.5004C937.9006 103.2004 964.5996 122.5004 983.7006 145.0004L1196.4006 430.7994C1210.2006 446.2994 1216.9996 462.5924 1216.9996 474.7003999999999C1216.9996 486.8074 1211.2996 497.7003999999999 1199.5996 503.4004" />
    <glyph glyph-name="globe-route"
      unicode="&#xE023;"
      horiz-adv-x="1306" d="M1300.9004 692.2998L1179.0004 570.1998C1169.0004 560.0998 1151.7004 567.1998 1151.7004 581.4998L1151.7004 639.9998L816.4004 639.9998C812.4004 639.9998 809.0004 642.1998 808.5004 646.1998C805.2994 669.9998 801.0004 693.2998 795.5994 715.9998C792.2994 729.9998 788.5004 743.5998 784.4004 756.7998C782.7994 761.9998 786.5994 767.9998 792.0004 767.9998L1151.5004 767.9998L1151.5004 825.3998C1151.5004 839.5998 1168.7004 846.7998 1178.7994 836.6998L1300.7994 714.9998C1303.9004 711.8998 1306.0004 707.7998 1306.0004 703.6998C1306.0004 699.5998 1303.9004 695.4998 1300.9004 692.2998L1300.9004 692.2998zM469.2004 309.2998L347.2994 187.1998C337.2994 177.0998 320.0004 184.1998 320.0004 198.4998000000001L320.0004 255.9998000000001L16.0004 255.9998000000001C7.2004 255.9998000000001 0.0004 263.6998 0.0004 272.4998000000001L0.0004 368.4998000000001C0.0004 377.2998 7.2004 383.9998000000001 16.0004 383.9998000000001L320.0004 383.9998000000001L320.0004 442.1998C320.0004 456.4008 337.2004 463.5998 347.2994 453.4998000000001L469.2004 331.9008C475.4004 325.6998 475.5004 315.4998000000001 469.2004 309.2998L469.2004 309.2998zM1087.5994 560.3998C1087.4004 569.0998 1080.2994 575.9998 1071.5994 575.9998L640.0004 575.9998L640.0004 703.9998L722.2004 703.9998C727.4004 703.9998 731.2994 709.4998 729.9004 714.4998C725.4004 731.5998 720.2994 747.7998 714.5004 763.1998C713.2994 766.2998 710.2994 767.9998 707.0004 767.9998L640.0004 767.9998L640.0004 954.2998C651.6004 950.1998 663.2004 943.7998 674.5994 935.1998C699.2994 916.5998 723.0004 887.8998 743.0994 852.0998C746.5004 845.9998 751.7004 837.2998 761.0994 837.2998L809.4004 837.2998C815.2004 837.2998 819.0994 843.3998 816.7004 848.6998C803.2004 877.8998 787.7994 904.0998 770.9004 926.9998C818.0994 906.8998 861.5004 877.7998 898.5004 841.8998C901.5004 838.9998 905.5004 837.3998 909.5994 837.3998L971.4004 837.3998C978.2004 837.3998 981.9004 845.2998 977.5994 850.4998C889.7994 955.9998 757.7994 1023.3998 609.9004 1023.9998L608.9004 1023.9998L608.4004 1023.9998L608.0004 1023.9998L605.5004 1023.9998C342.5004 1022.5998 128.0004 804.5998 128.0004 541.1998L128.0004 527.9998C128.0004 517.1998 132.7004 473.5998 136.2004 454.9998000000001C136.9004 451.1998 140.2004 447.9998000000001 144.1004 447.9998000000001L193.0004 447.9998000000001C198.1004 447.9998000000001 201.9004 453.1998 200.7994 458.1998C197.1004 475.7998 194.6004 493.7998 193.2004 511.9998000000001L576.0004 511.9998000000001L576.0004 383.9998000000001L533.4004 383.9998000000001C526.2994 383.9998000000001 522.7004 375.9008 527.7004 370.7998L566.6004 331.7998C572.6004 325.7998 576.0004 317.6998 576.0004 309.1998L576.0004 133.6998C564.4004 137.7998 552.7994 144.1998 541.4004 152.7998C521.8004 167.4998000000001 502.9004 188.6998 485.8004 214.5998C483.0004 218.7998 477.0004 219.4008 473.5004 215.9008L438.9004 181.2998C436.2004 178.5998 435.8004 174.2998 438.0004 171.0998C440.4004 167.6998 442.8004 164.2998 445.2004 160.9998000000001C440.7004 162.9008 436.3004 164.9008 431.9004 166.9008C428.9004 168.2998 425.3004 167.6998 422.9004 165.2998L387.0004 129.4998000000001C383.2004 125.6998 384.2004 119.1998 389.0004 116.6998C454.7004 82.9998000000001 529.1004 63.9998000000001 608.0004 63.9998000000001C862.2994 63.9998000000001 1070.5004 261.6998 1087.0004 511.9008C1087.7004 522.4998 1088.0004 533.0998 1088.0004 543.8998L1087.5994 560.3998zM338.6004 575.9998L193.2004 575.9998C196.5004 620.3998 206.9004 662.9998 224.1004 703.9998L353.5004 703.9998C345.4004 663.3998 340.2994 620.7998 338.6004 575.9998L338.6004 575.9998zM257.7994 767.9998C273.9004 792.9998 292.6004 816.7998 313.9004 838.1998C351.9004 876.1998 396.1004 906.0998 445.2004 926.9998C413.9004 884.7998 387.7994 830.0998 369.2994 767.9998L257.7994 767.9998zM576.0004 575.9998L402.6004 575.9998C404.4004 620.2998 409.7994 662.8998 418.7994 703.9998L576.0004 703.9998L576.0004 575.9998zM576.0004 767.9998L436.4004 767.9998C446.6004 798.4998 458.7994 826.8998 472.9004 851.9998C493.0004 887.7998 516.7004 916.4998 541.4004 935.0998C552.7994 943.6998 564.4004 950.0998 576.0004 954.1998L576.0004 767.9998zM575.7994 968.3998L576.6994 968.3998L576.6994 969.2998L575.7994 969.2998L575.7994 968.3998zM640.0004 511.9998000000001L813.4004 511.9998000000001C811.7004 467.9998000000001 806.2994 424.7998 797.4004 383.9998000000001L640.0004 383.9998000000001L640.0004 511.9998000000001zM674.5994 152.9008C663.2004 144.2998 651.6004 137.9008 640.0004 133.7998L640.0004 319.9998000000001L779.9004 319.9998000000001C769.7004 289.0998 757.4004 261.2998 743.0994 235.9998000000001C723.0004 200.1998 699.2994 171.4008 674.5994 152.9008L674.5994 152.9008zM902.2004 249.7998C864.2004 211.7998 820.0004 181.9008 770.9004 160.9998000000001C802.2994 203.4998000000001 828.4004 257.9008 847.0004 320.4998000000001L959.0004 320.4998000000001C942.7994 295.0998 923.7994 271.4998000000001 902.2004 249.7998L902.2004 249.7998zM992.2994 384.4998000000001L862.7004 384.4998000000001C870.7004 424.7998 875.7004 467.5998 877.4004 511.9998000000001L1022.7994 511.9998000000001C1019.5004 467.9998000000001 1009.2994 425.1998 992.2994 384.4998000000001L992.2994 384.4998000000001z" />
    <glyph glyph-name="help"
      unicode="&#xE024;"
      horiz-adv-x="1024" d="M521.2998 448C627.4998 448 713.6998 522 713.6998 610.3C713.6998 698.6 627.5998 770.4 521.2998 770.4C365.9998 770.4 334.4998 686.3 329.1998 616.8C329.1998 609.7 335.1998 608 343.4998 608L444.9998 608C450.4998 608 457.9998 608.5 460.7998 617.5C460.7998 661.4 582.9008 666.9 582.9008 610.4C582.9008 582.1 556.1998 553.1 521.2998 551C486.3998 548.9 447.2998 544.2 447.2998 502.3L447.2998 470.2C447.2998 453.2 456.0998 448 471.9998 448C487.9998 447.9 521.2998 448 521.2998 448M575.2998 272.7000000000001L575.2998 368.7000000000001C575.2998 373.1 573.6998 376.7000000000001 570.5998 380C567.4998 383.1 563.6998 384.7000000000001 559.2998 384.7000000000001L463.2998 384.7000000000001C458.8998 384.7000000000001 455.2998 383.1 451.9998 380C448.8998000000001 376.9 447.2998 373.1 447.2998 368.7000000000001L447.2998 272.7000000000001C447.2998 268.3 448.8998000000001 264.7000000000001 451.9998 261.4C455.0998 258.3 458.8998 256.7000000000001 463.2998 256.7000000000001L559.2998 256.7000000000001C563.6998 256.7000000000001 567.2998 258.3 570.5998 261.4C573.7998 264.6 575.2998 268.4 575.2998 272.7000000000001M511.9998 128C300.1998 128 127.9998 300.1 127.9998 512C127.9998 723.7 300.1998 896 511.9998 896C723.6998 896 895.9998 723.8 895.9998 512C895.9998 300.2000000000001 723.6998 128 511.9998 128M512.0998 1024C229.6998 1024 -0.0002 794.2 -0.0002 512C-0.0002 229.7000000000001 229.7998 0 512.0998 0C794.4008 0 1023.9998 229.7000000000001 1023.9998 512C1023.9998 794.3 794.4008 1024 512.0998 1024" />
    <glyph glyph-name="history"
      unicode="&#xE025;"
      horiz-adv-x="1024" d="M1024 513.2998C1024 231.9998000000001 794.9 -0.0001999999999 512.4 -0.0001999999999C383.8 -0.0001999999999 266.1 47.6998 176.1 126.4008C162.2 138.5998 161.5 159.9998000000001 174.5 173.0998L219.7 218.4008C231.5 230.1998 250.4 230.9008 263.1 220.0998C330.2 162.7998 417.2 128.0998 512.2 128.0998C723.8 127.9998000000001 896 300.1998 896 511.9998000000001C896 723.7998 723.8 895.9998 512.2 895.9998C406.4 895.9998 310.5 852.8998 241 783.4998L329.8 694.6998C350 674.4998 335.7 639.9998 307.2 639.9998L32.5 639.9998C14.8 639.8998 0 654.2998 0 671.9998L0 946.6998C0 975.1998 35 989.4998 55.1 969.2998L150.6 873.7998C242.4 965.5998 368.7 1023.9998 508.2 1023.9998C789 1023.9998 1023.3 797.7998 1024 513.2998M576.5 463.9998000000001L576.5 751.9998C576.5 760.7998 569.3 767.9998 560.5 767.9998L528.5 767.9998C519.7 767.9998 512.5 760.7998 512.5 751.9998L512.5 511.9998000000001L336.5 511.9998000000001C327.7 511.9998000000001 320.5 504.7998 320.5 495.9998000000001L320.5 463.9998000000001C320.5 455.1998 327.7 447.9998000000001 336.5 447.9998000000001L560.5 447.9998000000001C569.3 447.9998000000001 576.5 455.1998 576.5 463.9998000000001" />
    <glyph glyph-name="home"
      unicode="&#xE026;"
      horiz-adv-x="1024" d="M1024 512.7002C1024 518.4002 1019.8 523.0002 1015.6 526.4002L559.6 943.0002C546 954.0002 530 960.0002 511.4 960.0002C492.8 960.0002 476.8 954.0002 463.2 943.0002L7.2 526.3002C3 522.9002 0 518.4002 0 512.6002C0 506.8002 1.4 502.0001999999999 4.8 497.8002L39.7 455.0001999999999C43.1 451.2002 47.5 448.9002000000001 53 448.0002C54 447.9002000000001 103 448.1002 157.8 448.0002L157.8 103.3002C157.8 92.7002 161.7 83.5002 169.5 75.7002C177.2 68.0002 186.5 64.0002 197.1 64.0002L447 64.0002L447 320.0002L575 320.0002L575 64.0992L825.7 64.0992C836.3 64.0992 845.5 68.0002 853.3 75.8002C861 83.5002 865 92.8002 865 103.4002L865 448.0002L967.9 448.0002L969.8 448.0002C975.3 448.8002 979.8 451.1002 983.1 454.9002L1018.1 497.7002C1021.5 502.1002 1024 507.0001999999999 1024 512.7002" />
    <glyph glyph-name="import"
      unicode="&#xE027;"
      horiz-adv-x="1024" d="M896 128L128 128L128 425.7000000000001C128 434.2000000000001 124.6 442.3 118.6 448.3L27.3 539.6C17.2 549.8 0 542.6 0 528.4L0 22.7C0 16.1 2.1 10.7 6.4 6.4C10.7 2.1 16.1 0 22.7 0L1001.3 0C1007.9 0 1013.3 2.1 1017.6 6.4C1021.9 10.7 1024 16.1 1024 22.7L1024 1001.3C1024 1007.9 1021.9 1013.3 1017.6 1017.6C1013.3 1021.9 1007.9 1024 1001.3 1024L496.6 1024C482.3 1024 475.2 1006.8 485.3 996.7L576.6 905.4C582.6 899.4 590.7 896 599.2 896L896 896L896 128zM655.8 707.1L550.9 602.1L137.8 1015.3C132 1021.1 125.3 1024 117.8 1024C110.2 1024 103.6 1021.1 97.8 1015.3L8.7 926.2C2.9 920.4 0 913.7 0 906.2C0 898.6 2.9 892 8.7 886.2L421.9 473.2L316.9 368.2000000000001C290.5 341.8 299.4 320 336.8 320L636 320C694.5 320 704 330.3 704 388.1L704 687.3C703.9 724.6 682.2 733.5 655.8 707.1L655.8 707.1z" />
    <glyph glyph-name="in-progress"
      unicode="&#xE028;"
      horiz-adv-x="1024" d="M513.4083 1007.9966L513.4083 911.9906C513.4083 903.4986 520.1013 896.4056 528.5943 896.0056C732.6943 887.5146 896.1353 718.9785999999999 896.1353 512.6806C896.1353 300.9866 724.0033 128.8546 512.4093 128.8546C434.2853 128.8546 361.6573 152.2316 300.9163 192.4926000000001C294.5223 196.6886 286.1303 195.8906 280.7363000000001 190.4946L211.8033 121.6616C204.8093 114.6696 205.8083 103.0806 213.8013 97.3866000000001C297.9193 36.7446 401.1183 0.9796 512.4093 0.9796C794.5343 0.9796 1023.91033 230.5566 1023.91033 512.5806C1024.0103 788.9105999999999 804.0243 1014.7896 529.8923 1023.99801634265C520.9013 1024.2806 513.4083 1016.9876 513.4083 1007.9966M97.1153 811.0886C64.5473 766.0326 39.2713 715.4826 22.6873 661.1356000000001C19.5913 650.8456 27.2833 640.5556 37.9723 640.5556L139.3733 640.5556C145.9673 640.5556 151.8613 644.5516 154.2593 650.6456000000001C164.3493 676.6206 177.1373 701.1966 192.3223 724.0735999999999C196.5183 730.3676 195.7193 738.8596 190.3243 744.1546000000001L121.4913 812.9866C114.3983 820.0796 102.8093 819.0806 97.1153 811.0886M112.8993 512.5806L16.9933 512.5806C8.0023 512.5806 0.7093 505.0876 1.0093 496.0966C4.3053 391.0996 39.4713 293.8936 97.1153 214.0716C102.9093 206.0796 114.3983 205.0806 121.3913 212.0736000000001L190.2243 280.9066000000001C195.6183 286.3016 196.4183 294.6926 192.2223 301.0876C154.6583 357.7316 131.7813 424.8656 128.8843 497.1956C128.5843 505.7876 121.4913 512.5806 112.8993 512.5806" />
    <glyph glyph-name="info"
      unicode="&#xE029;"
      horiz-adv-x="1024" d="M592 655L592 735C592 739.4 590.4 743 587.3 746.3C584.2 749.4 580.4 751 576 751L464 751C459.6 751 456 749.4 452.7 746.3C449.6 743.2 448 739.4 448 735L448 655C448 650.6 449.6 647 452.7 643.7C455.8 640.6 459.6 639 464 639L576 639C580.4 639 584 640.6 587.3 643.7C590.5 646.9 592 650.7 592 655L592 655zM592 319L592 559C592 567.8 584.8 575 576 575L432 575C423.2 575 416 567.8 416 559L416 527C416 518.2 423.2 511 432 511L448 511L448 319L416 319C407.2 319 400 311.8 400 303L400 271C400 262.2000000000001 407.2 255 416 255L624 255C632.8 255 640 262.2000000000001 640 271L640 303C640 311.8 632.8 319 624 319L592 319zM512 128C300.2 128 128 300.1 128 512C128 723.7 300.2 896 512 896C723.7 896 896 723.8 896 512C896 300.2000000000001 723.7 128 512 128L512 128zM512.1 1024C229.7 1024 0 794.2 0 512C0 229.7000000000001 229.8 0 512.1 0C794.4 0 1024 229.7000000000001 1024 512C1024 794.3 794.4 1024 512.1 1024L512.1 1024z" />
    <glyph glyph-name="infrastructure"
      unicode="&#xE02A;"
      horiz-adv-x="1024" d="M448 768L576 768L576 896L448 896L448 768zM992 256L960 256L960 337C960 363.5 938.5 385 912 385L832 385L832 448L864 448C881.7 448 896 462.3 896 480L896 608C896 625.7 881.7 640 864 640L749.6 640L639.9 749.7C639.9 750.5 640 751.3 640 752L640 912C640 938.5 618.5 960 592 960L432 960C405.5 960 384 938.5 384 912L384 752C384 750.8 384.1 749.6 384.1 748.4L275.7 640L160 640C142.3 640 128 625.7 128 608L128 480C128 462.3 142.3 448 160 448L192 448L192 385L112 385C85.5 385 64 363.5 64 337L64 256L32 256C14.3 256 0 241.7000000000001 0 224L0 96C0 78.3 14.3 64 32 64L160 64C177.7 64 192 78.3 192 96L192 224C192 241.7000000000001 177.7 256 160 256L128 256L128 321L320 321L320 256L288 256C270.3 256 256 241.7000000000001 256 224L256 96C256 78.3 270.3 64 288 64L416 64C433.7 64 448 78.3 448 96L448 224C448 241.7000000000001 433.7 256 416 256L384 256L384 337C384 363.5 362.5 385 336 385L256 385L256 448L288 448C305.7 448 320 462.3 320 480L320 593.7L430.3 704L432 704L592 704C593 704 594 704 595 704.1L704 595.1L704 480C704 462.3 718.3 448 736 448L768 448L768 385L688 385C661.5 385 640 363.5 640 337L640 256L608 256C590.3 256 576 241.7000000000001 576 224L576 96C576 78.3 590.3 64 608 64L736 64C753.7 64 768 78.3 768 96L768 224C768 241.7000000000001 753.7 256 736 256L704 256L704 321L896 321L896 256L864 256C846.3 256 832 241.7000000000001 832 224L832 96C832 78.3 846.3 64 864 64L992 64C1009.7 64 1024 78.3 1024 96L1024 224C1024 241.7000000000001 1009.7 256 992 256L992 256z" />
    <glyph glyph-name="integration"
      unicode="&#xE02B;"
      horiz-adv-x="1088" d="M1032.4004 609.2998C1012.0994 609.2998 996.5004 593.0998 985.5004 577.5998C974.5004 562.0998 960.0004 589.7998 960.0004 613.7998L960.0004 720.3998C960.0004 746.6998 939.0994 767.9998 912.7004 767.9998L838.7994 767.9998C806.4004 767.9998 793.4004 776.3998 806.7004 790.7998C822.4004 807.6998 832.5004 821.8998 832.5004 840.0998C832.5004 870.9998 803.5004 895.9998 767.5994 895.9998C731.7994 895.9998 702.7004 870.9998 702.7004 840.0998C702.7004 819.7998 710.7004 808.1998 727.2004 792.2998C743.2004 776.8998 727.9004 767.9998 699.0004 767.9998L625.2004 767.9998C598.9004 767.9998 576.9004 747.4998 576.0004 720.2998L576.0004 668.0998C582.7004 669.0998 584.4004 669.6998 590.5994 669.6998C653.5994 669.6998 704.7994 611.7998 704.7994 540.2998C704.7994 468.7998 653.7004 410.9008 590.5994 410.9008C584.4004 410.9008 582.7004 411.4998000000001 576.0004 412.4998000000001L576.0004 304.4998000000001C576.0004 278.1998 591.5994 255.9998000000001 618.0004 255.9998000000001L700.0004 255.9998000000001C732.7994 255.9998000000001 747.0994 249.4998000000001 731.5994 232.4008C716.0994 215.2998 702.7004 201.9008 702.7004 182.9008C702.7004 152.4998000000001 731.7004 127.9998000000001 767.5994 127.9998000000001C803.4004 127.9998000000001 832.5004 152.5998 832.5004 182.9008C832.5004 200.4998000000001 828.0004 213.1998 807.4004 229.5998C786.7994 245.9998000000001 804.0004 256.2998 837.9004 256.2998L916.4004 256.2998C942.7004 256.2998 960.0004 279.5998 960.0004 305.9008L960.0004 477.0998C960.0004 500.5998 974.0004 530.9998 984.5004 513.2998C995.0004 495.5998 1011.4004 479.7998 1032.4004 479.7998C1063.0994 479.7998 1088.0004 508.7998 1088.0004 544.5998C1088.0004 580.4008 1063.0994 609.2998 1032.4004 609.2998M645.4004 544.5998C645.4004 580.4008 620.7994 609.4008 590.2994 609.4008C570.5004 609.4008 554.7004 598.5998 543.5004 578.6998C532.2994 558.7998 512.0004 588.9998 512.0004 614.7998L512.0004 656.7998C512.0004 683.0998 490.1004 703.9998 463.7994 703.9998L381.1004 703.9998C345.9004 703.9998 336.7994 709.0998 352.9004 729.9998C370.4004 750.2998 378.9004 762.7998 378.9004 780.2998C378.9004 809.9998 349.9004 833.9998 314.0004 833.9998C278.1004 833.9998 249.1004 809.9998 249.1004 780.2998C249.1004 765.2998 255.6004 754.0998 270.9004 732.8998C286.2004 711.6998 280.9004 703.9998 244.1004 703.9998L176.5004 703.9998C150.1004 703.9998 128.0004 683.9998 128.0004 657.6998L128.0004 615.6998C128.0004 592.4008 119.4004 565.1998 102.4004 579.4998C85.4004 593.7998 75.5004 609.4008 55.5004 609.4008C24.2994 609.2998 0.0004 580.2998 0.0004 544.5998C0.0004 508.9008 24.2994 479.7998 55.7004 479.7998C76.7004 479.7998 92.6004 493.6998 104.2004 512.1998C115.7994 530.6998 128.0004 498.5998 128.0004 476.1998L128.0004 243.0998C128.0004 216.7998 154.1004 192.9008 181.4004 191.9998000000001L237.7994 191.9998000000001C229.9004 206.9008 226.4004 224.6998 226.4004 240.4998000000001C226.4004 294.9008 253.4004 319.5998 313.1004 321.2998L312.0004 321.2998C355.7994 322.2998 391.9004 296.5998 391.9004 240.4998000000001C391.9004 224.6998 387.5004 206.0998 380.5004 191.9998000000001L463.0004 191.9998000000001C489.4004 191.9998000000001 512.0004 215.9008 512.0004 242.1998L512.0004 477.0998C512.0004 502.4998000000001 532.7994 533.0998 542.2004 513.1998C551.5994 493.2998 569.5994 479.7998 590.2994 479.7998C620.7994 479.7998 645.4004 508.7998 645.4004 544.5998" />
    <glyph glyph-name="key"
      unicode="&#xE02C;"
      horiz-adv-x="1024" d="M802 704C749 704 706 747 706 800C706 853 749 896 802 896C855 896 898 853 898 800C898 747 855 704 802 704M704 1024C527.3 1024 384 880.7 384 704C384 665.4 390.8 628.4 403.4 594.1L0 199.9L0 0L192 0L192 128L320 128L320 256L448 256L597 402C597 402 596.9 402.1 596.8 402.4C630.3 390.5 666.4 384 704 384C880.7 384 1024 527.3 1024 704C1024 880.7 880.7 1024 704 1024" />
    <glyph glyph-name="locked"
      unicode="&#xE02D;"
      horiz-adv-x="1024" d="M896 400C896 373.5 874.5 352 848 352L368 352C341.5 352 320 373.5 320 400C320 426.5 341.5 448 368 448L848 448C874.5 448 896 426.5 896 400L896 400zM896 208C896 181.5 874.5 160 848 160L368 160C341.5 160 320 181.5 320 208C320 234.5 341.5 256 368 256L848 256C874.5 256 896 234.5 896 208L896 208zM320 704C320 810 406 896 512 896C618 896 704 810 704 704L704 576L320 576L320 704zM960 576L832 576L832 704C832 880.7 688.7 1024 512 1024C335.3 1024 192 880.7 192 704L192 576L64 576C28.7 576 0 547.3 0 512L0 64C0 28.7 28.7 0 64 0L960 0C995.3 0 1024 28.7 1024 64L1024 512C1024 547.3 995.3 576 960 576L960 576z" />
    <glyph glyph-name="maintenance"
      unicode="&#xE02E;"
      horiz-adv-x="1024" d="M221.8999 221.3002L302.4999000000001 221.1992L406.9999000000001 360.1002L481.4999 288.9002000000001L365.8999 167.4002000000001L366.7999 85.6002L224.4999 1.3002L147.6999 56.1992L221.8999 221.3002zM1001.8999 185.1992L483.7999 644.6002C502.8999 680.5002 513.7999 721.5002 513.7999 765.1002C513.7999 907.0002 398.7999 1022.0002 256.8999 1022.0002C230.9999 1022.0002 205.8999 1018.1002 182.2999 1011.0002L330.6999 862.6002C352.8999 840.4002 352.8999 804.1002 330.6999 781.9002L240.1999 691.4002C217.9999 669.2002 181.6999 669.2002 159.4999 691.4002L10.9999 839.7002C3.7999 816.1002 -0.0001 791.0002 -0.0001 765.1002C-0.0001 623.2002 114.9999 508.2002 256.8999 508.2002C300.3999 508.2002 341.4999000000001 519.0002 377.3999 538.2002L836.7999 20.1002C857.2999 -3.6998000000001 892.0999 -5.0998 914.2999 17.1002L1004.7999 107.6002C1026.9999 129.6992 1025.5999 164.6002 1001.8999 185.1992L1001.8999 185.1992zM983.0999 920.0002L958.5999 937.4002C901.0999 986.7002 812.3999 991.6002 763.0999 934.2002L556.9999 695.3002L610.2999 651.0002L804.6999 864.2002C812.3999 873.3002 834.9999 869.8002 843.8999 861.9002C852.7999 854.0002 860.7999 835.6002 853.0999 826.5002L655.3999 611.8002L696.6999 576.8002L708.1999 589.4002L891.8999 793.0002C899.5999 802.1002 917.5999 798.6002 926.5999 790.7002C935.5999 782.8002 943.4999 764.4002 935.7999 755.3002L744.8999 535.9002L796.2999 492.4002L988.0999 717.6002C1037.3999 775.0002 1036.1999 878.0002 982.5999 920.0002L983.0999 920.0002z" />
    <glyph glyph-name="memory"
      unicode="&#xE02F;"
      horiz-adv-x="960" d="M832 256.036384L896 256.036384L896 384.109153L832 384.109153L832 256.036384zM816 512.181922L720 512.181922C711.2 512.181922 704 519.386015 704 528.191018L704 752.318363C704 761.123366 711.2 768.327459 720 768.327459L816 768.327459C824.8 768.327459 832 761.123366 832 752.318363L832 528.191018C832 519.386015 824.8 512.181922 816 512.181922L816 512.181922zM704 256.036384L768 256.036384L768 384.109153L704 384.109153L704 256.036384zM640 528.191018C640 519.386015 632.8 512.181922 624 512.181922L528 512.181922C519.2 512.181922 512 519.386015 512 528.191018L512 752.318363C512 761.123366 519.2 768.327459 528 768.327459L624 768.327459C632.8 768.327459 640 761.123366 640 752.318363L640 528.191018zM576 256.036384L640 256.036384L640 384.109153L576 384.109153L576 256.036384zM448 256.036384L512 256.036384L512 384.109153L448 384.109153L448 256.036384zM432 512.181922L336 512.181922C327.2 512.181922 320 519.386015 320 528.191018L320 752.318363C320 761.123366 327.2 768.327459 336 768.327459L432 768.327459C440.8 768.327459 448 761.123366 448 752.318363L448 528.191018C448 519.386015 440.8 512.181922 432 512.181922L432 512.181922zM320 384.109153L384 384.109153L384 223.617965C384 205.907902 398.3 192 416 192L928 192C945.7 192 960 205.907902 960 223.617965L960 581.7214329999999C922.7 594.928937 896 630.449119 896 672.272882C896 714.096646 922.7 749.716885 960 762.824332L960 863.981808C960 881.69187 945.7 896 928 896L32 896C14.3 896 0 881.69187 0 863.981808L0 762.824332C37.3 749.6168279999999 64 714.096646 64 672.272882C64 630.449119 37.3 594.82888 0 581.7214329999999L0 223.617965C0 205.907902 14.3 192 32 192L288 192C305.7 192 320 205.907902 320 223.617965L320 384.109153zM256 528.191018C256 519.386015 248.8 512.181922 240 512.181922L144 512.181922C135.2 512.181922 128 519.386015 128 528.191018L128 752.318363C128 761.123366 135.2 768.327459 144 768.327459L240 768.327459C248.8 768.327459 256 761.123366 256 752.318363L256 528.191018zM190 256.036384L256 256.036384L256 384.109153L190 384.109153L190 256.036384zM64 256.036384L128 256.036384L128 384.109153L64 384.109153L64 256.036384z" />
    <glyph glyph-name="messages"
      unicode="&#xE030;"
      horiz-adv-x="952" d="M673.941523 651.5L684.143668 672.1C684.143668 672.1 719.851178 752.2 638.535077 776.8C563.019195 799.5 285.15976 883.3 246.151557 895.1L253.353071 951.1C257.954039 986.4 234.149032 1024 198.741586 1024C163.33414 1024 129.827093 995.3 125.326146 960L1 0L130.127156 0L180.237695 386.5L393.4825410000001 448.1L389.781763 434.2000000000001C389.781763 434.2000000000001 386.1810050000001 349 493.803639 381.2000000000001C550.615587 398.2000000000001 952 567.9 952 567.9L673.941523 651.5z" />
    <glyph glyph-name="middleware"
      unicode="&#xE031;"
      horiz-adv-x="1024" d="M1017.7002 433C1004.8002 350.5 972.0992 274.6 924.8002 210.2000000000001C920.0992 203.8 920.8002 195 926.4002 189.4L1019.3002 96.5C1022.3002 93.5 1024.0002 89.4 1024.0002 85.2000000000001L1024.0002 16C1024.0002 7.2 1016.8002 0 1008.0002 0L941.4002 0C937.2002 0 933.0992 1.7 930.0992 4.7L835.9002 98.9C830.3002 104.5 821.5002 105.2000000000001 815.0992 100.5C751.0002 53.3 675.5002 20.7 593.5002 7.6C583.8002 6 574.9002 13.5 574.9002 23.4L574.9002 120.4C574.9002 128 580.3002 134.6 587.8002 136.1C739.7002 166.5 859.0992 286.5 888.8002 438.6C890.3002 446.1 896.8002 451.6 904.5002 451.6L1001.9002 451.6C1011.7002 451.6 1019.2002 442.8 1017.7002 433M447.5002 120.2000000000001L447.5002 23.1C447.5002 13.2 438.6002 5.7 428.9002 7.3C348.1002 20.6 273.6002 52.8 210.2002 99.2000000000001C203.8002 103.9 195.0002 103.2000000000001 189.4002 97.6L96.5002 4.7C93.5002 1.7 89.4002 0 85.2002 0L16.0002 0C7.2002 0 0.0002 7.2 0.0002 16L0.0002 82.6C0.0002 86.8 1.7002 90.9 4.7002 93.9L98.7002 187.9C104.3002 193.5 105.0002 202.3 100.3002 208.7000000000001C52.6002 273.4 19.7002 349.6 6.7002 432.4C5.2002 442.1 12.6002 450.9 22.5002 450.9L119.9002 450.9C127.6002 450.9 134.1002 445.5 135.6002 437.9C165.2002 286.5 283.8002 166.9 434.7002 135.9C442.2002 134.4 447.5002 127.8 447.5002 120.2000000000001M574.5002 904.2L574.5002 1002.2C574.5002 1012.1 583.3002 1019.6 593.0992 1018C675.0002 1004.9 750.3002 972.4 814.4002 925.3C820.8002 920.6 829.5992 921.3 835.2002 926.9L927.5002 1019.3C930.5002 1022.3 934.5992 1024 938.8002 1024L1008.0002 1024C1016.8002 1024 1024.0002 1016.8 1024.0002 1008L1024.0002 941.4C1024.0002 937.2 1022.3002 933.1 1019.3002 930.1L925.7002 836.5C920.0992 830.9 919.4002 822.1 924.0992 815.7C970.5992 752.5 1002.9002 678.3 1016.4002 597.7C1018.0002 587.9 1010.5002 579 1000.5992 579L902.8002 579C895.2002 579 888.7002 584.3 887.0992 591.7C855.7002 741.1 737.3002 858.5 587.4002 888.5C579.9002 890 574.5002 896.6 574.5002 904.2M7.1002 597.2C20.5002 677.4 52.6002 751.4 98.8002 814.3C103.5002 820.7 102.8002 829.5 97.2002 835.1L4.7002 927.5C1.7002 930.5 0.0002 934.6 0.0002 938.8L0.0002 1008C0.0002 1016.8 7.2002 1024 16.0002 1024L82.6002 1024C86.8002 1024 90.9002 1022.3 93.9002 1019.3L187.4002 925.8C193.0002 920.2 201.8002 919.5 208.2002 924.2C271.9002 971.2 346.9002 1003.8 428.3002 1017.2C438.1002 1018.8 446.9002 1011.3 446.9002 1001.4L446.9002 903.3C446.9002 895.7 441.5002 889.2 434.1002 887.6C285.2002 857 167.7002 740 136.3002 591.2C134.7002 583.8 128.2002 578.5 120.6002 578.5L22.8002 578.5C12.9002 578.5 5.4002 587.4 7.1002 597.2M512.0002 768C653.4002 768 768.0002 653.4 768.0002 512C768.0002 370.6 653.4002 256 512.0002 256C370.6002 256 256.0002 370.6 256.0002 512C256.0002 653.4 370.6002 768 512.0002 768" />
    <glyph glyph-name="migration"
      unicode="&#xE032;"
      horiz-adv-x="1024" d="M702.0996 411.7998L268.5996 845.0998C243.7996 869.8998 203.4996 869.8998 178.7006 845.0998C153.8996 820.2998 153.8996 779.9998 178.7006 755.1998L612.0996 321.6998L519.7006 229.5998C505.7996 215.7998 515.5996 191.9998000000001 535.2006 191.9998000000001L799.4006 191.9998000000001C817.4006 191.9998000000001 831.9996 206.5998 831.9996 224.5998L831.9996 488.8998C831.9996 508.4998000000001 808.2996 518.2998 794.4006 504.3998L702.0996 411.7998zM959.9996 639.9998L584.9006 639.9998C577.7996 639.9998 574.2006 631.3998 579.2006 626.2998L627.2006 578.2998C628.7006 576.7998 630.7006 575.9998 632.9006 575.9998L959.9996 575.9998L959.9996 63.9998000000001L447.9996 63.9998000000001L447.9996 391.0998C447.9996 393.1998 447.2006 395.2998 445.7006 396.7998L397.7006 444.7998C392.7006 449.7998 383.9996 446.2998 383.9996 439.0998L383.9996 63.9998000000001C383.9996 28.6998 412.7006 -0.0001999999999 447.9996 -0.0001999999999L959.9996 -0.0001999999999C995.2996 -0.0001999999999 1023.9996 28.6998 1023.9996 63.9998000000001L1023.9996 575.9998C1023.9996 611.2998 995.2996 639.9998 959.9996 639.9998L959.9996 639.9998zM575.9996 711.9998L575.9996 823.9998C575.9996 828.3998 572.4006 831.9998 567.9996 831.9998L519.9996 831.9998C515.5996 831.9998 511.9996 828.3998 511.9996 823.9998L511.9996 711.9998C511.9996 707.5998 515.5996 703.9998 519.9996 703.9998L567.9996 703.9998C572.4006 703.9998 575.9996 707.5998 575.9996 711.9998L575.9996 711.9998zM575.9996 903.9998L575.9996 959.9998C575.9996 995.2998 547.2996 1023.9998 511.9996 1023.9998L455.9996 1023.9998C451.5996 1023.9998 447.9996 1020.3998 447.9996 1015.9998L447.9996 967.9998C447.9996 963.5998 451.5996 959.9998 455.9996 959.9998L511.9996 959.9998L511.9996 903.9998C511.9996 899.5998 515.5996 895.9998 519.9996 895.9998L567.9996 895.9998C572.4006 895.9998 575.9996 899.5998 575.9996 903.9998L575.9996 903.9998zM383.9996 967.9998L383.9996 1015.9998C383.9996 1020.3998 380.3996 1023.9998 375.9996 1023.9998L199.9996 1023.9998C195.5996 1023.9998 191.9996 1020.3998 191.9996 1015.9998L191.9996 967.9998C191.9996 963.5998 195.5996 959.9998 199.9996 959.9998L375.9996 959.9998C380.3996 959.9998 383.9996 963.5998 383.9996 967.9998L383.9996 967.9998zM63.9996 903.9998L63.9996 959.9998L119.9996 959.9998C124.3996 959.9998 127.9996 963.5998 127.9996 967.9998L127.9996 1015.9998C127.9996 1020.3998 124.3996 1023.9998 119.9996 1023.9998L63.9996 1023.9998C28.7006 1023.9998 -0.0004 995.2998 -0.0004 959.9998L-0.0004 903.9998C-0.0004 899.5998 3.5996 895.9998 7.9996 895.9998L55.9996 895.9998C60.3996 895.9998 63.9996 899.5998 63.9996 903.9998L63.9996 903.9998zM63.9996 647.9998L63.9996 823.9998C63.9996 828.3998 60.3996 831.9998 55.9996 831.9998L7.9996 831.9998C3.5996 831.9998 -0.0004 828.3998 -0.0004 823.9998L-0.0004 647.9998C-0.0004 643.5998 3.5996 639.9998 7.9996 639.9998L55.9996 639.9998C60.3996 639.9998 63.9996 643.5998 63.9996 647.9998L63.9996 647.9998zM127.9996 455.9998000000001L127.9996 503.9998000000001C127.9996 508.3998 124.3996 511.9998000000001 119.9996 511.9998000000001L63.9996 511.9998000000001L63.9996 567.9998C63.9996 572.3998 60.3996 575.9998 55.9996 575.9998L7.9996 575.9998C3.5996 575.9998 -0.0004 572.3998 -0.0004 567.9998L-0.0004 511.9998000000001C-0.0004 476.6998 28.7006 447.9998000000001 63.9996 447.9998000000001L119.9996 447.9998000000001C124.3996 447.9998000000001 127.9996 451.5998 127.9996 455.9998000000001L127.9996 455.9998000000001zM311.9996 447.9998000000001L199.9996 447.9998000000001C195.5996 447.9998000000001 191.9996 451.5998 191.9996 455.9998000000001L191.9996 503.9998000000001C191.9996 508.3998 195.5996 511.9998000000001 199.9996 511.9998000000001L311.9996 511.9998000000001C316.3996 511.9998000000001 319.9996 508.3998 319.9996 503.9998000000001L319.9996 455.9998000000001C319.9996 451.5998 316.3996 447.9998000000001 311.9996 447.9998000000001L311.9996 447.9998000000001z" />
    <glyph glyph-name="module"
      unicode="&#xE033;"
      horiz-adv-x="1024" d="M960 206.75L768 110.75L768 247.55L848 287.55L848 239.597L880 255.597L880 303.55L960 343.55L960 206.75zM584.3 410.9500000000001L658.713 448.4600000000001C659.183 448.161 659.67 447.881 660.18 447.627L842.466 356.3830000000001L768 319.15L584.3 410.9500000000001zM512 655.55L592 695.55L592 648.361L624 664.361L624 711.55L704 751.55L704 614.65L512 518.65L512 655.55zM328.3 818.95L403.195 856.703C403.381 856.601 403.557 856.487 403.748 856.391L586.689 764.819L512 727.15L328.3 818.95zM448 206.75L256 110.75L256 247.55L336 287.55L336 239.597L368 255.597L368 303.55L448 343.55L448 206.75zM72.3 410.9500000000001L146.179 448.1910000000001C146.507 447.997 146.833 447.8 147.18 447.627L329.965 356.1330000000001L256 319.15L72.3 410.9500000000001zM256 503.55L440.4 411.35L365.753 374.026L181.738 466.116L256 503.55zM512 911.55L696.4 820.15L622.322 782.79L438.782 874.642L512 911.55zM768 503.55L953.2 411.75L878.253 374.276L694.236 466.367L768 503.55zM987.596 465.718L767.297 576.017L767.297 816.196C767.297 840.374 753.609 862.554 731.93 873.344L540.105 969.256C522.122 978.248 500.941 978.248 482.958 969.256L291.133 873.344C269.453 862.554 255.766 840.374 255.766 816.196L255.766 576.017L35.368 465.718C13.688 454.928 0 432.7480000000001 0 408.569L0 207.8540000000001C0 183.6760000000001 13.688 161.496 35.368 150.706L227.192 54.794C236.184 50.298 245.975 48 255.766 48C265.557 48 275.348 50.298 284.339 54.794L511.531 168.39L738.724 54.794C747.715 50.298 757.506 48 767.297 48C777.088 48 786.879 50.198 795.871 54.694L987.795 150.606C1009.375 161.496 1024 183.576 1024 207.754L1024 408.569C1024 432.7480000000001 1009.275 454.928 987.596 465.718L987.596 465.718z" />
    <glyph glyph-name="monitoring"
      unicode="&#xE034;"
      horiz-adv-x="1088" d="M848.334 654.6587L657.98 464.3047C639.234 445.5597 608.843 445.5597 590.098 464.3047L465.647 588.7556999999999L305.941 429.0497000000001C287.1960000000001 410.3047000000001 256.804 410.3047000000001 238.059 429.0497000000001C219.313 447.7947000000001 219.313 478.1876999999999 238.059 496.9317L431.706 690.5787L432.413 691.2857C451.158 710.0317 481.55 710.0317 500.295 691.2857L624.039 566.1287L780.451 722.5407C799.196 741.2857 827.638 743.2377 848.334 722.5407C869.03 701.8447 867.079 673.4037000000001 848.334 654.6587L848.334 654.6587zM128 319.9997L960 319.9997L960 831.9997L128 831.9997L128 319.9997zM1088 192.0857L1088 959.9997L0 959.9997L0 192.0857L448 192.0857L448 127.9997L256 127.4427L256 63.9997L832 63.9997L832 127.4427L640 127.9997L640 192.0857L1088 192.0857z" />
    <glyph glyph-name="namespaces"
      unicode="&#xE035;"
      horiz-adv-x="960" d="M512 352.407641L640 352.407641L640 481.407641L512 481.407641L512 352.407641zM320 352.407641L448 352.407641L448 481.407641L320 481.407641L320 352.407641zM320 545.407641L448 545.407641L448 672.407641L320 672.407641L320 545.407641zM512 545.407641L640 545.407641L640 672.407641L512 672.407641L512 545.407641zM280 736.407641C266.745 736.407641 256 725.662641 256 712.407641L256 312.407641C256 299.152641 266.745 288.407641 280 288.407641L680 288.407641C693.255 288.407641 704 299.152641 704 312.407641L704 712.407641C704 725.662641 693.255 736.407641 680 736.407641L280 736.407641zM783.884 865.476641L896 800.407641L896 223.6946410000001L783.884 158.626641C774.052 152.919641 768 142.4106410000001 768 131.042641C768 106.4686410000001 794.624 91.126641 815.886 103.450641L948.035 180.047641C955.441 184.339641 960 192.251641 960 200.810641L960 823.291641C960 831.850641 955.441 839.762641 948.035 844.055641L815.886 920.652641C794.624 932.9756411 768 917.634641 768 893.059641C768 881.691641 774.052 871.182641 783.884 865.476641L783.884 865.476641zM192 893.059641L192 893.059641C192 917.634641 165.376 932.9756411 144.115 920.652641L11.965 844.055641C4.559 839.762641 0 831.850641 0 823.291641L0 200.810641C0 192.251641 4.559 184.339641 11.965 180.047641L144.115 103.450641C165.376 91.126641 192 106.4686410000001 192 131.042641C192 142.4106410000001 185.949 152.919641 176.116 158.626641L64 223.6946410000001L64 800.407641L176.116 865.476641C185.949 871.182641 192 881.691641 192 893.059641L192 893.059641z" />
    <glyph glyph-name="network"
      unicode="&#xE036;"
      horiz-adv-x="1088" d="M1024 384L960 384L960 512C960 547.3 931.3 576 896 576L574 576L574 704L510 704L510 576L192 576C156.7 576 128 547.3 128 512L128 384L64 384C28.7 384 0 355.3 0 320L0 128C0 92.7000000000001 28.7 64 64 64L256 64C291.3 64 320 92.7000000000001 320 128L320 320C320 355.3 291.3 384 256 384L192 384L192 512L510 512L510 384L447 384C411.7 384 383 355.3 383 320L383 128C383 92.7000000000001 411.7 64 447 64L639 64C674.3 64 703 92.7000000000001 703 128L703 320C703 355.3 674.3 384 639 384L574 384L574 512L896 512L896 384L832 384C796.7 384 768 355.3 768 320L768 128C768 92.7000000000001 796.7 64 832 64L1024 64C1059.3 64 1088 92.7000000000001 1088 128L1088 320C1088 355.3 1059.3 384 1024 384L1024 384zM704 832L960.5 832L960.5 896L704 896L704 832zM64 768L1024 768L1024 960L64 960L64 768z" />
    <glyph glyph-name="off"
      unicode="&#xE037;"
      horiz-adv-x="1024" d="M512 736C477 736 448 707.3 448 672L448 352C448 316.7000000000001 476.7 288 512 288C547.3 288 576 316.7000000000001 576 352L576 672C576 707.3 547 736 512 736M512 128C299.9 128 128 299.9 128 512C128 724.1 299.9 896 512 896C724.1 896 896 724.1 896 512C896 299.9 724.1 128 512 128M512 1024C229.2 1024 0 794.8 0 512C0 229.2000000000001 229.2 0 512 0C794.8 0 1024 229.2000000000001 1024 512C1024 794.8 794.8 1024 512 1024" />
    <glyph glyph-name="ok"
      unicode="&#xE038;"
      horiz-adv-x="1024" d="M668.2998 662.6001L465.0998 459.4001L352.1998 572.3000999999999C339.6998 584.8000999999999 319.4998 584.8000999999999 306.9998 572.3000999999999L261.7998 527.1001C249.2998 514.6001 249.2998 494.4001 261.7998 481.9001L442.3998000000001 301.3001000000001C454.8998 288.8001000000001 475.0998 288.8001000000001 487.5998 301.3001000000001L758.5998 572.3000999999999C771.0998 584.8000999999999 771.0998 605.0001 758.5998 617.5001L713.4008 662.7001C700.9998 675.1001 680.7998 675.1001 668.2998 662.6001M512.0998 896.1001C300.2998 896.1001 128.0998 723.8000999999999 128.0998 512.1001C128.0998 300.2001 300.2998 128.1001 512.0998 128.1001C723.7998 128.1001 896.0998 300.3001000000001 896.0998 512.1001C895.9998 723.8000999999999 723.7998 896.1001 512.0998 896.1001M512.0998 0.0001C229.6998 0.0001 -0.0002 229.7001 -0.0002 512.0001C-0.0002 794.3000999999999 229.6998 1024.0001 512.0998 1024.0001C794.2998 1024.0001 1023.9998 794.3000999999999 1023.9998 512.0001C1023.9998 229.7001 794.2998 0.0001 512.0998 0.0001" />
    <glyph glyph-name="on-running"
      unicode="&#xE039;"
      horiz-adv-x="1024" d="M512.0996 128.0996C300.2996 128.0996 128.0996 300.2006 128.0996 512.0996C128.0996 723.7996 300.2996 896.0996 512.0996 896.0996C723.7996 896.0996 895.9996 723.7996 896.0996 512.0996C896.0996 300.2996000000001 723.7996 128.0996 512.0996 128.0996M512.0996 1023.9996C229.7006 1023.9996 -0.0004 794.2996 -0.0004 511.9996C-0.0004 229.7006 229.7006 -0.0003999999999 512.0996 -0.0003999999999C794.2996 -0.0003999999999 1023.9996 229.7006 1023.9996 511.9996C1023.9996 794.2996 794.2996 1023.9996 512.0996 1023.9996M716.2996 541.0996C709.9996 528.7996 575.4996 344.4996 493.7006 241.5996C477.9996 223.7996000000001 463.3996 229.7996000000001 457.2996 233.7006C443.8996 242.5996 443.0996 252.2996000000001 450.9996 278.9996C458.8996 305.7006 494.0996 447.9996 494.0996 447.9996L341.2996 447.9996C328.2006 447.7996000000001 312.2006 447.7996000000001 307.0996 460.2006C302.2006 471.9996 306.8996 482.7996000000001 314.3996 493.2006C369.9996 570.4996 508.0996 759.0996 508.0996 759.0996C508.0996 759.0996 527.2006 784.2996 541.4006 785.7006C554.4006 786.9996 562.9006 783.4996 566.9996 774.3996C572.0996 763.7996 570.4006 751.0996 566.7996 737.0996C563.4996 723.9996 526.4006 575.9996 526.4006 575.9996L695.2996 575.9996C702.5996 575.9996 711.4996 574.5996 717.4006 566.9996C723.2996 559.3996 719.4996 546.9996 716.2996 541.0996" />
    <glyph glyph-name="on"
      unicode="&#xE03A;"
      horiz-adv-x="1024" d="M663.600992 799.600319L663.600992 799.600319C641.801085 773.800362 643.801076 735.4004259999999 668.300972 712.100465C670.300963 710.200468 672.300955 708.300471 674.201946 706.300474C703.600821 676.900523 726.701722 642.60058 742.800654 604.5006430000001C759.600582 565.200709 768.000546 523.300778 768.000546 480.00085C768.000546 436.700922 759.600582 394.800992 742.901653 355.501057C726.800722 317.40112 703.701821 283.2011770000001 674.300946 253.701226C644.902071 224.201275 610.601218 201.201313 572.50138 185.1013400000001C533.202548 168.4013670000001 491.301727 160.0013810000001 448.001912 160.0013810000001C404.703096 160.0013810000001 362.802275 168.4013670000001 323.5024430000001 185.1013400000001C285.402605 201.201313 251.203751 224.301275 221.703877 253.701226C192.204003 283.101177 169.204101 317.40112 153.10317 355.501057C136.403241 394.800992 128.003277 436.700922 128.003277 480.00085C128.003277 523.300778 136.403241 565.200709 153.10317 604.5006430000001C169.204101 642.60058 192.303003 676.800523 221.703877 706.300474C223.703869 708.300471 225.602861 710.200468 227.602852 712.100465C252.102748 735.4004259999999 254.102739 773.800362 232.302832 799.600319C208.502934 827.8002730000001 165.803116 830.000269 139.10323 804.500311C53.7045941 723.200446 0.403821557 608.500637 0 481.300848C-0.696173749 233.10126 199.102974 32.4015930000001 447.301915 32C695.000858 31.601595 896 232.301261 896 480.00085C896 607.9006380000001 842.401229 723.200446 756.500595 804.900311C729.901709 830.2002689999999 687.300891 827.700273 663.600992 799.600319M448.001912 992C413.0020610000001 992 384.002185 963.3000477 384.002185 928.0001063L384.002185 608.000638C384.002185 572.700696 412.703062 544.0007439999999 448.001912 544.0007439999999C483.301761 544.0007439999999 512.001639 572.700696 512.001639 608.000638L512.001639 928.0001063C512.001639 963.3000477 483.001762 992 448.001912 992" />
    <glyph glyph-name="openshift"
      unicode="&#xE03B;"
      horiz-adv-x="1116" d="M1005.39724 520.792138C1002.15877 585.1016440000001 984.222727 647.1681209999999 956.571286 704.7485389999999L1116 763.0753C1103.54505 788.74908 1089.34639 813.177288 1072.65615 836.608038L998.172427 809.9368010000001C949.098518 878.484251 881.590648 937.3102409 799.385202 974.9495101C544.0503 1094.5944044 238.395695 982.9251695 119.322327 727.430946C80.4617339 644.925092 65.7641572 556.685607 73.7358428 470.690151L145.229055 496.363931C147.471686 468.447122 151.954946 441.52577 159.428714 414.8555340000001L330.06658 477.171125C324.586484 505.338048 322.343854 535.4988860000001 324.586484 564.4131520000001L253.591189 538.9884870000001C257.078614 576.8768709999999 266.046136 614.7642539999999 283.4832610000001 650.408608C358.215939 819.160032 555.508411 891.446198 722.659852 813.426402C759.527773 795.729282 791.662475 772.298532 819.562875 744.380723L894.045595 771.301074C914.473227 750.363468 930.913516 726.433489 945.113175 701.258938L785.684461 642.681062C817.072286 585.600873 832.516739 521.041253 826.786684 455.486175L918.45857 488.637386L912.728514 486.393356C909.241089 447.509516 900.272568 408.37456 882.586484 371.4836340000001C804.616339 205.2253530000001 606.077073 132.939188 439.923468 210.70987C403.055546 228.406989 369.67505 251.8377400000001 343.020445 279.754548L257.327573 248.846367C213.235843 296.705325 182.345936 355.2812 170.139948 418.346135L0 356.029544C15.4444536 293.713953 42.3480179 235.636306 80.2117751 183.041175L165.655688 213.9503560000001C214.730596 145.4019060000001 282.238466 86.575916 364.442913 48.937647C619.777814 -70.45813 925.183461 40.961988 1044.50679 296.705325C1083.36738 379.2101790000001 1096.81916 467.450665 1090.09327 552.199548L1005.39724 520.792138z" />
    <glyph glyph-name="openstack"
      unicode="&#xE03C;"
      horiz-adv-x="1024" d="M768 320L768 304C768 277.5 746.5 256 720 256L304 256C277.5 256 256 277.5 256 304L256 320L0 320L0 96C0 43 43 0 96 0L928 0C981 0 1024 43 1024 96L1024 320L768 320zM0 384L256 384L256 640L0 640L0 384zM768 384L1024 384L1024 640L768 640L768 384zM0 704L0 928C0 981 43 1024 96 1024L928 1024C981 1024 1024 981 1024 928L1024 704L768 704L768 720C768 746.5 746.5 768 720 768L304 768C277.5 768 256 746.5 256 720L256 704L0 704z" />
    <glyph glyph-name="optimize"
      unicode="&#xE03D;"
      horiz-adv-x="1024" d="M480 479.005L288 671.005L352 735.005L544 543.005L480 479.005zM1009 142.005L373.9 777.105C355.2 795.8050000000001 324.7 795.8050000000001 306 777.105L245.9 717.005C227.2 698.3050000000001 227.2 667.8050000000001 245.9 649.105L881 14.005C899.7 -4.6949999999999 930.2 -4.6949999999999 948.9 14.005L1009 74.105C1027.7 92.805 1027.7 123.305 1009 142.005L1009 142.005zM64 440.405L64 399.005C64 390.2050000000001 71.2 383.005 80 383.005L121.4 383.005C125.6 383.005 129.7 384.7050000000001 132.7 387.7050000000001L244.7 499.705C250.9 505.905 250.9 516.105 244.7 522.3050000000001L203.3 563.7049999999999C197.1 569.905 186.9 569.905 180.7 563.7049999999999L68.7 451.705C65.7 448.7050000000001 64 444.605 64 440.405L64 440.405zM336 447.005L368 447.005C376.8 447.005 384 439.805 384 431.005L384 335.005C384 326.2050000000001 376.8 319.005 368 319.005L336 319.005C327.2 319.005 320 326.2050000000001 320 335.005L320 431.005C320 439.805 327.2 447.005 336 447.005L336 447.005zM16 703.005L112 703.005C120.8 703.005 128 695.8050000000001 128 687.005L128 655.005C128 646.2049999999999 120.8 639.005 112 639.005L16 639.005C7.2 639.005 0 646.2049999999999 0 655.005L0 687.005C0 695.8050000000001 7.2 703.005 16 703.005L16 703.005zM640 901.605L640 943.005C640 951.805 632.8 959.005 624 959.005L582.6 959.005C578.4 959.005 574.3 957.305 571.3 954.305L459.3 842.3050000000001C453.1 836.105 453.1 825.905 459.3 819.705L500.7 778.3050000000001C506.9 772.105 517.1 772.105 523.3 778.3050000000001L635.3 890.3050000000001C638.3 893.3050000000001 640 897.405 640 901.605L640 901.605zM592 703.005L688 703.005C696.8 703.005 704 695.8050000000001 704 687.005L704 655.005C704 646.2049999999999 696.8 639.005 688 639.005L592 639.005C583.2 639.005 576 646.2049999999999 576 655.005L576 687.005C576 695.8050000000001 583.2 703.005 592 703.005L592 703.005zM336 1023.005L368 1023.005C376.8 1023.005 384 1015.805 384 1007.005L384 911.005C384 902.205 376.8 895.005 368 895.005L336 895.005C327.2 895.005 320 902.205 320 911.005L320 1007.005C320 1015.805 327.2 1023.005 336 1023.005L336 1023.005zM244.7 842.3050000000001L132.7 954.305C129.7 957.305 125.6 959.005 121.4 959.005L80 959.005C71.2 959.005 64 951.805 64 943.005L64 901.605C64 897.405 65.7 893.3050000000001 68.7 890.3050000000001L180.7 778.3050000000001C186.9 772.105 197.1 772.105 203.3 778.3050000000001L244.7 819.705C250.9 825.905 250.9 836.105 244.7 842.3050000000001L244.7 842.3050000000001z" />
    <glyph glyph-name="orders"
      unicode="&#xE03E;"
      horiz-adv-x="896" d="M604.3 662.6L401.1 459.4L288.2 572.3C275.7 584.8 255.5 584.8 243 572.3L197.8 527.1C185.3 514.6 185.3 494.4 197.8 481.9L378.4 301.3C390.9 288.8 411.1 288.8 423.6 301.3L694.6 572.3C707.1 584.8 707.1 605 694.6 617.5L649.401 662.7C637 675.1 616.8 675.1 604.3 662.6L604.3 662.6zM384 896L512 896L512 960L384 960L384 896zM576 896L576 961C576 996.3 547.3 1024 512 1024L386 1024C350.7 1024 320 996.3 320 961L320 896L192 896L192 768L704 768L704 896L576 896zM768 896C768.1 895.9 768 128.2000000000001 768 128.2000000000001C767.901 128.1 767.8 128 767.8 128L128 128L128 895.7C128.1 895.8 128.1 895.9 128.2 895.9L0 896L0 128C0 57.7000000000001 57.6 0 128 0L768 0C838.401 0 896 57.7000000000001 896 128L896 896L768 896z" />
    </font>
</defs>
</svg>
